STARTFONT 2.1
FONT -Shinonome-Gothic-Bold-R-Normal--16-150-75-75-C-0-ISO10646-1
SIZE 16 75 75
FONTBOUNDINGBOX 16 16 0 -2
STARTPROPERTIES 19
FONT_ASCENT 14
FONT_DESCENT 2
DEFAULT_CHAR 8481
COPYRIGHT "Public Domain"
FONTNAME_REGISTRY ""
FOUNDRY "Shinonome"
FAMILY_NAME "Gothic"
WEIGHT_NAME "Bold"
SLANT "R"
SETWIDTH_NAME "Normal"
ADD_STYLE_NAME ""
PIXEL_SIZE 16
POINT_SIZE 150
RESOLUTION_X 75
RESOLUTION_Y 75
SPACING "C"
AVERAGE_WIDTH 0
CHARSET_REGISTRY "ISO10646"
CHARSET_ENCODING "1"
ENDPROPERTIES
CHARS 7126
STARTCHAR U0020
ENCODING 32
SWIDTH 480 0
DWIDTH 8 0
BBX 8 16 0 -2
BITMAP
00
00
00
00
00
00
00
00
00
00
00
00
00
00
00
00
ENDCHAR
STARTCHAR U0021
ENCODING 33
SWIDTH 480 0
DWIDTH 8 0
BBX 8 16 0 -2
BITMAP
00
1c
1c
1c
1c
18
18
18
18
18
18
00
00
18
18
00
ENDCHAR
STARTCHAR U0022
ENCODING 34
SWIDTH 480 0
DWIDTH 8 0
BBX 8 16 0 -2
BITMAP
76
36
36
6c
00
00
00
00
00
00
00
00
00
00
00
00
ENDCHAR
STARTCHAR U0023
ENCODING 35
SWIDTH 480 0
DWIDTH 8 0
BBX 8 16 0 -2
BITMAP
00
1b
1b
1b
7f
36
36
36
36
36
ff
6c
6c
6c
6c
00
ENDCHAR
STARTCHAR U0024
ENCODING 36
SWIDTH 480 0
DWIDTH 8 0
BBX 8 16 0 -2
BITMAP
18
3c
6a
db
db
d8
68
3c
1a
1b
db
db
6a
3c
18
18
ENDCHAR
STARTCHAR U0025
ENCODING 37
SWIDTH 480 0
DWIDTH 8 0
BBX 8 16 0 -2
BITMAP
01
71
db
db
da
da
74
0c
18
1b
35
35
6d
6d
c7
c0
ENDCHAR
STARTCHAR U0026
ENCODING 38
SWIDTH 480 0
DWIDTH 8 0
BBX 8 16 0 -2
BITMAP
00
3c
66
66
66
34
18
38
6d
cd
c6
c6
6d
39
00
00
ENDCHAR
STARTCHAR U0027
ENCODING 39
SWIDTH 480 0
DWIDTH 8 0
BBX 8 16 0 -2
BITMAP
70
30
30
60
00
00
00
00
00
00
00
00
00
00
00
00
ENDCHAR
STARTCHAR U0028
ENCODING 40
SWIDTH 480 0
DWIDTH 8 0
BBX 8 16 0 -2
BITMAP
00
03
06
0c
0c
18
18
18
18
18
18
18
0c
0c
06
03
ENDCHAR
STARTCHAR U0029
ENCODING 41
SWIDTH 480 0
DWIDTH 8 0
BBX 8 16 0 -2
BITMAP
00
60
30
18
18
0c
0c
0c
0c
0c
0c
0c
18
18
30
60
ENDCHAR
STARTCHAR U002A
ENCODING 42
SWIDTH 480 0
DWIDTH 8 0
BBX 8 16 0 -2
BITMAP
00
00
00
00
18
db
6a
3c
6a
db
18
00
00
00
00
00
ENDCHAR
STARTCHAR U002B
ENCODING 43
SWIDTH 480 0
DWIDTH 8 0
BBX 8 16 0 -2
BITMAP
00
00
00
18
18
18
18
ff
18
18
18
18
00
00
00
00
ENDCHAR
STARTCHAR U002C
ENCODING 44
SWIDTH 480 0
DWIDTH 8 0
BBX 8 16 0 -2
BITMAP
00
00
00
00
00
00
00
00
00
00
00
00
70
30
30
60
ENDCHAR
STARTCHAR U002D
ENCODING 45
SWIDTH 480 0
DWIDTH 8 0
BBX 8 16 0 -2
BITMAP
00
00
00
00
00
00
00
ff
00
00
00
00
00
00
00
00
ENDCHAR
STARTCHAR U002E
ENCODING 46
SWIDTH 480 0
DWIDTH 8 0
BBX 8 16 0 -2
BITMAP
00
00
00
00
00
00
00
00
00
00
00
00
70
70
00
00
ENDCHAR
STARTCHAR U002F
ENCODING 47
SWIDTH 480 0
DWIDTH 8 0
BBX 8 16 0 -2
BITMAP
00
03
03
06
06
0c
0c
18
18
30
30
60
60
c0
c0
00
ENDCHAR
STARTCHAR U0030
ENCODING 48
SWIDTH 480 0
DWIDTH 8 0
BBX 8 16 0 -2
BITMAP
00
1c
36
36
63
63
63
63
63
63
63
36
36
1c
00
00
ENDCHAR
STARTCHAR U0031
ENCODING 49
SWIDTH 480 0
DWIDTH 8 0
BBX 8 16 0 -2
BITMAP
00
18
18
38
68
18
18
18
18
18
18
18
18
18
00
00
ENDCHAR
STARTCHAR U0032
ENCODING 50
SWIDTH 480 0
DWIDTH 8 0
BBX 8 16 0 -2
BITMAP
00
1c
36
63
63
03
06
0c
18
30
30
60
60
7f
00
00
ENDCHAR
STARTCHAR U0033
ENCODING 51
SWIDTH 480 0
DWIDTH 8 0
BBX 8 16 0 -2
BITMAP
00
3c
66
c3
c3
03
06
3c
06
03
c3
c3
66
3c
00
00
ENDCHAR
STARTCHAR U0034
ENCODING 52
SWIDTH 480 0
DWIDTH 8 0
BBX 8 16 0 -2
BITMAP
00
0c
1c
1c
34
34
6c
6c
cc
ff
0c
0c
0c
0c
00
00
ENDCHAR
STARTCHAR U0035
ENCODING 53
SWIDTH 480 0
DWIDTH 8 0
BBX 8 16 0 -2
BITMAP
00
7e
60
60
60
dc
e6
c3
03
03
c3
c3
66
3c
00
00
ENDCHAR
STARTCHAR U0036
ENCODING 54
SWIDTH 480 0
DWIDTH 8 0
BBX 8 16 0 -2
BITMAP
00
3c
66
60
c0
c0
dc
e6
c3
c3
c3
c3
66
3c
00
00
ENDCHAR
STARTCHAR U0037
ENCODING 55
SWIDTH 480 0
DWIDTH 8 0
BBX 8 16 0 -2
BITMAP
00
ff
03
06
06
0c
0c
0c
0c
18
18
18
18
18
18
00
ENDCHAR
STARTCHAR U0038
ENCODING 56
SWIDTH 480 0
DWIDTH 8 0
BBX 8 16 0 -2
BITMAP
00
3c
66
c3
c3
c3
66
3c
66
c3
c3
c3
66
3c
00
00
ENDCHAR
STARTCHAR U0039
ENCODING 57
SWIDTH 480 0
DWIDTH 8 0
BBX 8 16 0 -2
BITMAP
00
3c
66
c3
c3
c3
c3
67
3d
03
03
c3
66
3c
00
00
ENDCHAR
STARTCHAR U003A
ENCODING 58
SWIDTH 480 0
DWIDTH 8 0
BBX 8 16 0 -2
BITMAP
00
00
00
00
1c
1c
00
00
00
00
00
1c
1c
00
00
00
ENDCHAR
STARTCHAR U003B
ENCODING 59
SWIDTH 480 0
DWIDTH 8 0
BBX 8 16 0 -2
BITMAP
00
00
00
00
1c
1c
00
00
00
00
1c
0c
0c
18
00
00
ENDCHAR
STARTCHAR U003C
ENCODING 60
SWIDTH 480 0
DWIDTH 8 0
BBX 8 16 0 -2
BITMAP
00
00
00
03
06
0c
18
30
30
18
0c
06
03
00
00
00
ENDCHAR
STARTCHAR U003D
ENCODING 61
SWIDTH 480 0
DWIDTH 8 0
BBX 8 16 0 -2
BITMAP
00
00
00
00
00
ff
00
00
00
ff
00
00
00
00
00
00
ENDCHAR
STARTCHAR U003E
ENCODING 62
SWIDTH 480 0
DWIDTH 8 0
BBX 8 16 0 -2
BITMAP
00
00
00
60
30
18
0c
06
06
0c
18
30
60
00
00
00
ENDCHAR
STARTCHAR U003F
ENCODING 63
SWIDTH 480 0
DWIDTH 8 0
BBX 8 16 0 -2
BITMAP
00
3c
66
c3
c3
c3
06
0c
0c
18
18
00
00
18
18
00
ENDCHAR
STARTCHAR U0040
ENCODING 64
SWIDTH 480 0
DWIDTH 8 0
BBX 8 16 0 -2
BITMAP
00
1c
36
63
6d
da
d6
d6
d6
dd
60
60
33
1e
00
00
ENDCHAR
STARTCHAR U0041
ENCODING 65
SWIDTH 480 0
DWIDTH 8 0
BBX 8 16 0 -2
BITMAP
00
18
18
34
34
34
66
66
66
7e
c3
c3
c3
c3
00
00
ENDCHAR
STARTCHAR U0042
ENCODING 66
SWIDTH 480 0
DWIDTH 8 0
BBX 8 16 0 -2
BITMAP
00
f8
cc
c6
c6
c6
cc
fc
c6
c3
c3
c3
c6
fc
00
00
ENDCHAR
STARTCHAR U0043
ENCODING 67
SWIDTH 480 0
DWIDTH 8 0
BBX 8 16 0 -2
BITMAP
00
3c
66
63
c0
c0
c0
c0
c0
c0
c0
63
66
3c
00
00
ENDCHAR
STARTCHAR U0044
ENCODING 68
SWIDTH 480 0
DWIDTH 8 0
BBX 8 16 0 -2
BITMAP
00
f8
cc
c6
c6
c3
c3
c3
c3
c3
c6
c6
cc
f8
00
00
ENDCHAR
STARTCHAR U0045
ENCODING 69
SWIDTH 480 0
DWIDTH 8 0
BBX 8 16 0 -2
BITMAP
00
ff
c0
c0
c0
c0
c0
fe
c0
c0
c0
c0
c0
ff
00
00
ENDCHAR
STARTCHAR U0046
ENCODING 70
SWIDTH 480 0
DWIDTH 8 0
BBX 8 16 0 -2
BITMAP
00
ff
c0
c0
c0
c0
c0
fe
c0
c0
c0
c0
c0
c0
00
00
ENDCHAR
STARTCHAR U0047
ENCODING 71
SWIDTH 480 0
DWIDTH 8 0
BBX 8 16 0 -2
BITMAP
00
1c
36
63
60
c0
c0
cf
c3
c3
c3
63
77
1d
00
00
ENDCHAR
STARTCHAR U0048
ENCODING 72
SWIDTH 480 0
DWIDTH 8 0
BBX 8 16 0 -2
BITMAP
00
c3
c3
c3
c3
c3
c3
ff
c3
c3
c3
c3
c3
c3
00
00
ENDCHAR
STARTCHAR U0049
ENCODING 73
SWIDTH 480 0
DWIDTH 8 0
BBX 8 16 0 -2
BITMAP
00
3c
18
18
18
18
18
18
18
18
18
18
18
3c
00
00
ENDCHAR
STARTCHAR U004A
ENCODING 74
SWIDTH 480 0
DWIDTH 8 0
BBX 8 16 0 -2
BITMAP
00
03
03
03
03
03
03
03
03
03
03
63
36
1c
00
00
ENDCHAR
STARTCHAR U004B
ENCODING 75
SWIDTH 480 0
DWIDTH 8 0
BBX 8 16 0 -2
BITMAP
00
63
63
66
66
6c
6c
74
76
66
63
63
61
61
00
00
ENDCHAR
STARTCHAR U004C
ENCODING 76
SWIDTH 480 0
DWIDTH 8 0
BBX 8 16 0 -2
BITMAP
00
60
60
60
60
60
60
60
60
60
60
60
60
7f
00
00
ENDCHAR
STARTCHAR U004D
ENCODING 77
SWIDTH 480 0
DWIDTH 8 0
BBX 8 16 0 -2
BITMAP
00
c3
c3
e7
e7
e7
d5
d5
d5
db
db
db
db
c3
00
00
ENDCHAR
STARTCHAR U004E
ENCODING 78
SWIDTH 480 0
DWIDTH 8 0
BBX 8 16 0 -2
BITMAP
00
c3
e3
e3
d3
d3
db
db
db
cd
cd
c7
c7
c3
00
00
ENDCHAR
STARTCHAR U004F
ENCODING 79
SWIDTH 480 0
DWIDTH 8 0
BBX 8 16 0 -2
BITMAP
00
3c
66
66
c3
c3
c3
c3
c3
c3
c3
66
66
3c
00
00
ENDCHAR
STARTCHAR U0050
ENCODING 80
SWIDTH 480 0
DWIDTH 8 0
BBX 8 16 0 -2
BITMAP
00
fc
c6
c3
c3
c3
c6
fc
c0
c0
c0
c0
c0
c0
00
00
ENDCHAR
STARTCHAR U0051
ENCODING 81
SWIDTH 480 0
DWIDTH 8 0
BBX 8 16 0 -2
BITMAP
00
3c
66
66
c3
c3
c3
c3
c3
c3
dd
66
66
3c
0c
07
ENDCHAR
STARTCHAR U0052
ENCODING 82
SWIDTH 480 0
DWIDTH 8 0
BBX 8 16 0 -2
BITMAP
00
fc
c6
c3
c3
c3
c6
fc
cc
c6
c6
c6
c3
c3
00
00
ENDCHAR
STARTCHAR U0053
ENCODING 83
SWIDTH 480 0
DWIDTH 8 0
BBX 8 16 0 -2
BITMAP
00
3c
66
c3
c3
c0
70
1c
06
03
c3
c3
66
3c
00
00
ENDCHAR
STARTCHAR U0054
ENCODING 84
SWIDTH 480 0
DWIDTH 8 0
BBX 8 16 0 -2
BITMAP
00
ff
18
18
18
18
18
18
18
18
18
18
18
18
00
00
ENDCHAR
STARTCHAR U0055
ENCODING 85
SWIDTH 480 0
DWIDTH 8 0
BBX 8 16 0 -2
BITMAP
00
c3
c3
c3
c3
c3
c3
c3
c3
c3
c3
c3
66
3c
00
00
ENDCHAR
STARTCHAR U0056
ENCODING 86
SWIDTH 480 0
DWIDTH 8 0
BBX 8 16 0 -2
BITMAP
00
c3
c3
c3
c3
66
66
66
34
34
34
18
18
18
00
00
ENDCHAR
STARTCHAR U0057
ENCODING 87
SWIDTH 480 0
DWIDTH 8 0
BBX 8 16 0 -2
BITMAP
00
db
db
db
db
db
db
d5
d5
76
66
66
66
66
00
00
ENDCHAR
STARTCHAR U0058
ENCODING 88
SWIDTH 480 0
DWIDTH 8 0
BBX 8 16 0 -2
BITMAP
00
c3
66
66
34
34
18
34
34
34
66
66
c3
c3
00
00
ENDCHAR
STARTCHAR U0059
ENCODING 89
SWIDTH 480 0
DWIDTH 8 0
BBX 8 16 0 -2
BITMAP
00
c3
c3
66
66
66
34
34
18
18
18
18
18
18
00
00
ENDCHAR
STARTCHAR U005A
ENCODING 90
SWIDTH 480 0
DWIDTH 8 0
BBX 8 16 0 -2
BITMAP
00
ff
06
06
0c
0c
18
18
30
30
60
60
c0
ff
00
00
ENDCHAR
STARTCHAR U005B
ENCODING 91
SWIDTH 480 0
DWIDTH 8 0
BBX 8 16 0 -2
BITMAP
1f
18
18
18
18
18
18
18
18
18
18
18
18
18
18
1f
ENDCHAR
STARTCHAR U005C
ENCODING 92
SWIDTH 480 0
DWIDTH 8 0
BBX 8 16 0 -2
BITMAP
00
c0
c0
60
60
30
30
18
18
0c
0c
06
06
03
03
00
ENDCHAR
STARTCHAR U005D
ENCODING 93
SWIDTH 480 0
DWIDTH 8 0
BBX 8 16 0 -2
BITMAP
f8
18
18
18
18
18
18
18
18
18
18
18
18
18
18
f8
ENDCHAR
STARTCHAR U005E
ENCODING 94
SWIDTH 480 0
DWIDTH 8 0
BBX 8 16 0 -2
BITMAP
18
34
66
c3
00
00
00
00
00
00
00
00
00
00
00
00
ENDCHAR
STARTCHAR U005F
ENCODING 95
SWIDTH 480 0
DWIDTH 8 0
BBX 8 16 0 -2
BITMAP
00
00
00
00
00
00
00
00
00
00
00
00
00
00
ff
00
ENDCHAR
STARTCHAR U0060
ENCODING 96
SWIDTH 480 0
DWIDTH 8 0
BBX 8 16 0 -2
BITMAP
38
30
30
18
00
00
00
00
00
00
00
00
00
00
00
00
ENDCHAR
STARTCHAR U0061
ENCODING 97
SWIDTH 480 0
DWIDTH 8 0
BBX 8 16 0 -2
BITMAP
00
00
00
00
00
3e
63
03
3f
63
c3
c3
c7
7d
00
00
ENDCHAR
STARTCHAR U0062
ENCODING 98
SWIDTH 480 0
DWIDTH 8 0
BBX 8 16 0 -2
BITMAP
00
c0
c0
c0
c0
dc
e6
c3
c3
c3
c3
c3
e6
dc
00
00
ENDCHAR
STARTCHAR U0063
ENCODING 99
SWIDTH 480 0
DWIDTH 8 0
BBX 8 16 0 -2
BITMAP
00
00
00
00
00
3c
66
c3
c0
c0
c0
c3
66
3c
00
00
ENDCHAR
STARTCHAR U0064
ENCODING 100
SWIDTH 480 0
DWIDTH 8 0
BBX 8 16 0 -2
BITMAP
00
03
03
03
03
3d
67
c3
c3
c3
c3
c3
67
3d
00
00
ENDCHAR
STARTCHAR U0065
ENCODING 101
SWIDTH 480 0
DWIDTH 8 0
BBX 8 16 0 -2
BITMAP
00
00
00
00
00
3c
66
c3
c3
ff
c0
c3
66
3c
00
00
ENDCHAR
STARTCHAR U0066
ENCODING 102
SWIDTH 480 0
DWIDTH 8 0
BBX 8 16 0 -2
BITMAP
00
0e
18
18
18
7e
18
18
18
18
18
18
18
18
00
00
ENDCHAR
STARTCHAR U0067
ENCODING 103
SWIDTH 480 0
DWIDTH 8 0
BBX 8 16 0 -2
BITMAP
00
00
00
00
00
3d
66
66
66
3c
60
7c
c6
c3
c3
7e
ENDCHAR
STARTCHAR U0068
ENCODING 104
SWIDTH 480 0
DWIDTH 8 0
BBX 8 16 0 -2
BITMAP
00
60
60
60
60
6e
73
63
63
63
63
63
63
63
00
00
ENDCHAR
STARTCHAR U0069
ENCODING 105
SWIDTH 480 0
DWIDTH 8 0
BBX 8 16 0 -2
BITMAP
00
18
18
00
00
38
18
18
18
18
18
18
18
18
00
00
ENDCHAR
STARTCHAR U006A
ENCODING 106
SWIDTH 480 0
DWIDTH 8 0
BBX 8 16 0 -2
BITMAP
00
0c
0c
00
00
1c
0c
0c
0c
0c
0c
0c
0c
0c
18
70
ENDCHAR
STARTCHAR U006B
ENCODING 107
SWIDTH 480 0
DWIDTH 8 0
BBX 8 16 0 -2
BITMAP
00
60
60
60
60
63
66
6c
68
74
66
66
63
63
00
00
ENDCHAR
STARTCHAR U006C
ENCODING 108
SWIDTH 480 0
DWIDTH 8 0
BBX 8 16 0 -2
BITMAP
00
38
18
18
18
18
18
18
18
18
18
18
18
18
00
00
ENDCHAR
STARTCHAR U006D
ENCODING 109
SWIDTH 480 0
DWIDTH 8 0
BBX 8 16 0 -2
BITMAP
00
00
00
00
00
f6
db
db
db
db
db
db
db
db
00
00
ENDCHAR
STARTCHAR U006E
ENCODING 110
SWIDTH 480 0
DWIDTH 8 0
BBX 8 16 0 -2
BITMAP
00
00
00
00
00
6e
73
63
63
63
63
63
63
63
00
00
ENDCHAR
STARTCHAR U006F
ENCODING 111
SWIDTH 480 0
DWIDTH 8 0
BBX 8 16 0 -2
BITMAP
00
00
00
00
00
3c
66
c3
c3
c3
c3
c3
66
3c
00
00
ENDCHAR
STARTCHAR U0070
ENCODING 112
SWIDTH 480 0
DWIDTH 8 0
BBX 8 16 0 -2
BITMAP
00
00
00
00
00
dc
e6
c3
c3
c3
c3
e6
dc
c0
c0
c0
ENDCHAR
STARTCHAR U0071
ENCODING 113
SWIDTH 480 0
DWIDTH 8 0
BBX 8 16 0 -2
BITMAP
00
00
00
00
00
3d
67
c3
c3
c3
c3
67
3d
03
03
03
ENDCHAR
STARTCHAR U0072
ENCODING 114
SWIDTH 480 0
DWIDTH 8 0
BBX 8 16 0 -2
BITMAP
00
00
00
00
00
36
38
30
30
30
30
30
30
30
00
00
ENDCHAR
STARTCHAR U0073
ENCODING 115
SWIDTH 480 0
DWIDTH 8 0
BBX 8 16 0 -2
BITMAP
00
00
00
00
00
3e
63
60
70
1c
07
03
63
3e
00
00
ENDCHAR
STARTCHAR U0074
ENCODING 116
SWIDTH 480 0
DWIDTH 8 0
BBX 8 16 0 -2
BITMAP
00
00
18
18
18
7e
18
18
18
18
18
18
18
0e
00
00
ENDCHAR
STARTCHAR U0075
ENCODING 117
SWIDTH 480 0
DWIDTH 8 0
BBX 8 16 0 -2
BITMAP
00
00
00
00
00
63
63
63
63
63
63
63
67
3d
00
00
ENDCHAR
STARTCHAR U0076
ENCODING 118
SWIDTH 480 0
DWIDTH 8 0
BBX 8 16 0 -2
BITMAP
00
00
00
00
00
c3
c3
c3
66
66
34
34
18
18
00
00
ENDCHAR
STARTCHAR U0077
ENCODING 119
SWIDTH 480 0
DWIDTH 8 0
BBX 8 16 0 -2
BITMAP
00
00
00
00
00
db
db
db
db
d5
d5
66
66
66
00
00
ENDCHAR
STARTCHAR U0078
ENCODING 120
SWIDTH 480 0
DWIDTH 8 0
BBX 8 16 0 -2
BITMAP
00
00
00
00
00
c3
66
34
34
18
34
34
66
c3
00
00
ENDCHAR
STARTCHAR U0079
ENCODING 121
SWIDTH 480 0
DWIDTH 8 0
BBX 8 16 0 -2
BITMAP
00
00
00
00
00
c3
c3
66
66
34
34
1c
18
18
30
e0
ENDCHAR
STARTCHAR U007A
ENCODING 122
SWIDTH 480 0
DWIDTH 8 0
BBX 8 16 0 -2
BITMAP
00
00
00
00
00
7f
06
0c
0c
18
18
30
60
ff
00
00
ENDCHAR
STARTCHAR U007B
ENCODING 123
SWIDTH 480 0
DWIDTH 8 0
BBX 8 16 0 -2
BITMAP
06
0c
0c
0c
0c
0c
0c
18
0c
0c
0c
0c
0c
0c
0c
06
ENDCHAR
STARTCHAR U007C
ENCODING 124
SWIDTH 480 0
DWIDTH 8 0
BBX 8 16 0 -2
BITMAP
18
18
18
18
18
18
18
18
18
18
18
18
18
18
18
18
ENDCHAR
STARTCHAR U007D
ENCODING 125
SWIDTH 480 0
DWIDTH 8 0
BBX 8 16 0 -2
BITMAP
60
30
30
30
30
30
30
18
30
30
30
30
30
30
30
60
ENDCHAR
STARTCHAR U007E
ENCODING 126
SWIDTH 480 0
DWIDTH 8 0
BBX 8 16 0 -2
BITMAP
00
00
00
70
db
0e
00
00
00
00
00
00
00
00
00
00
ENDCHAR
STARTCHAR U00A1
ENCODING 161
SWIDTH 480 0
DWIDTH 8 0
BBX 8 16 0 -2
BITMAP
00
18
18
00
00
18
18
18
18
18
18
18
38
38
38
38
ENDCHAR
STARTCHAR U00A2
ENCODING 162
SWIDTH 480 0
DWIDTH 8 0
BBX 8 16 0 -2
BITMAP
00
00
18
3e
6b
db
d8
d8
d8
d8
d8
db
6b
3e
18
00
ENDCHAR
STARTCHAR U00A3
ENCODING 163
SWIDTH 480 0
DWIDTH 8 0
BBX 8 16 0 -2
BITMAP
00
00
00
00
0e
1b
18
18
18
7e
18
18
3e
6b
30
00
ENDCHAR
STARTCHAR U00A4
ENCODING 164
SWIDTH 480 0
DWIDTH 8 0
BBX 8 16 0 -2
BITMAP
00
00
00
00
00
63
3e
36
36
3e
63
00
00
00
00
00
ENDCHAR
STARTCHAR U00A5
ENCODING 165
SWIDTH 480 0
DWIDTH 8 0
BBX 8 16 0 -2
BITMAP
c3
c3
66
66
66
34
34
ff
18
ff
18
18
18
18
00
00
ENDCHAR
STARTCHAR U00A6
ENCODING 166
SWIDTH 480 0
DWIDTH 8 0
BBX 8 16 0 -2
BITMAP
00
18
18
18
18
18
00
00
00
18
18
18
18
18
00
00
ENDCHAR
STARTCHAR U00A7
ENCODING 167
SWIDTH 480 0
DWIDTH 8 0
BBX 8 16 0 -2
BITMAP
00
3e
63
60
30
3e
63
63
63
3e
06
03
63
3e
00
00
ENDCHAR
STARTCHAR U00A8
ENCODING 168
SWIDTH 480 0
DWIDTH 8 0
BBX 8 16 0 -2
BITMAP
00
36
36
36
00
00
00
00
00
00
00
00
00
00
00
00
ENDCHAR
STARTCHAR U00A9
ENCODING 169
SWIDTH 480 0
DWIDTH 8 0
BBX 8 16 0 -2
BITMAP
00
00
3e
63
dd
d6
d1
d1
d1
d6
d6
dd
63
3e
00
00
ENDCHAR
STARTCHAR U00AA
ENCODING 170
SWIDTH 480 0
DWIDTH 8 0
BBX 8 16 0 -2
BITMAP
00
1e
33
1f
33
37
1d
00
3f
00
00
00
00
00
00
00
ENDCHAR
STARTCHAR U00AB
ENCODING 171
SWIDTH 480 0
DWIDTH 8 0
BBX 8 16 0 -2
BITMAP
00
00
00
0d
1b
36
6c
d8
d8
6c
36
1b
0d
00
00
00
ENDCHAR
STARTCHAR U00AC
ENCODING 172
SWIDTH 480 0
DWIDTH 8 0
BBX 8 16 0 -2
BITMAP
00
00
00
00
00
00
00
ff
ff
07
07
00
00
00
00
00
ENDCHAR
STARTCHAR U00AD
ENCODING 173
SWIDTH 480 0
DWIDTH 8 0
BBX 8 16 0 -2
BITMAP
00
00
00
00
00
00
00
ff
ff
00
00
00
00
00
00
00
ENDCHAR
STARTCHAR U00AE
ENCODING 174
SWIDTH 480 0
DWIDTH 8 0
BBX 8 16 0 -2
BITMAP
00
00
3e
63
dd
d6
d6
dd
d5
d6
d6
d3
63
3e
00
00
ENDCHAR
STARTCHAR U00AF
ENCODING 175
SWIDTH 480 0
DWIDTH 8 0
BBX 8 16 0 -2
BITMAP
00
00
ff
00
00
00
00
00
00
00
00
00
00
00
00
00
ENDCHAR
STARTCHAR U00B0
ENCODING 176
SWIDTH 480 0
DWIDTH 8 0
BBX 8 16 0 -2
BITMAP
00
3c
66
66
66
3c
00
00
00
00
00
00
00
00
00
00
ENDCHAR
STARTCHAR U00B1
ENCODING 177
SWIDTH 480 0
DWIDTH 8 0
BBX 8 16 0 -2
BITMAP
00
00
00
00
18
18
18
ff
18
18
18
00
ff
00
00
00
ENDCHAR
STARTCHAR U00B2
ENCODING 178
SWIDTH 480 0
DWIDTH 8 0
BBX 8 16 0 -2
BITMAP
00
1c
36
06
0c
18
30
3e
00
00
00
00
00
00
00
00
ENDCHAR
STARTCHAR U00B3
ENCODING 179
SWIDTH 480 0
DWIDTH 8 0
BBX 8 16 0 -2
BITMAP
00
1c
36
06
1c
06
36
1c
00
00
00
00
00
00
00
00
ENDCHAR
STARTCHAR U00B4
ENCODING 180
SWIDTH 480 0
DWIDTH 8 0
BBX 8 16 0 -2
BITMAP
00
0e
1c
38
00
00
00
00
00
00
00
00
00
00
00
00
ENDCHAR
STARTCHAR U00B5
ENCODING 181
SWIDTH 480 0
DWIDTH 8 0
BBX 8 16 0 -2
BITMAP
00
00
00
00
00
00
00
33
33
33
66
66
76
6a
c3
c0
ENDCHAR
STARTCHAR U00B6
ENCODING 182
SWIDTH 480 0
DWIDTH 8 0
BBX 8 16 0 -2
BITMAP
00
3e
7a
7a
7a
7a
3a
1a
1a
1a
1a
1a
1a
1a
00
00
ENDCHAR
STARTCHAR U00B7
ENCODING 183
SWIDTH 480 0
DWIDTH 8 0
BBX 8 16 0 -2
BITMAP
00
00
00
00
00
00
1c
1c
00
00
00
00
00
00
00
00
ENDCHAR
STARTCHAR U00B8
ENCODING 184
SWIDTH 480 0
DWIDTH 8 0
BBX 8 16 0 -2
BITMAP
00
00
00
00
00
00
00
00
00
00
00
00
00
0e
0c
18
ENDCHAR
STARTCHAR U00B9
ENCODING 185
SWIDTH 480 0
DWIDTH 8 0
BBX 8 16 0 -2
BITMAP
00
0c
1c
34
0c
0c
0c
0c
00
00
00
00
00
00
00
00
ENDCHAR
STARTCHAR U00BA
ENCODING 186
SWIDTH 480 0
DWIDTH 8 0
BBX 8 16 0 -2
BITMAP
00
1c
36
36
36
36
1c
00
3e
00
00
00
00
00
00
00
ENDCHAR
STARTCHAR U00BB
ENCODING 187
SWIDTH 480 0
DWIDTH 8 0
BBX 8 16 0 -2
BITMAP
00
00
00
00
d8
6c
36
1b
0d
0d
1b
36
6c
d8
00
00
ENDCHAR
STARTCHAR U00BC
ENCODING 188
SWIDTH 480 0
DWIDTH 8 0
BBX 8 16 0 -2
BITMAP
00
60
e6
66
6c
6c
68
1b
33
37
6d
6f
c3
c3
00
00
ENDCHAR
STARTCHAR U00BD
ENCODING 189
SWIDTH 480 0
DWIDTH 8 0
BBX 8 16 0 -2
BITMAP
00
60
e6
66
6c
6c
68
1e
3b
33
66
6c
cc
df
00
00
ENDCHAR
STARTCHAR U00BE
ENCODING 190
SWIDTH 480 0
DWIDTH 8 0
BBX 8 16 0 -2
BITMAP
00
70
db
1b
76
1a
dc
75
1b
1b
35
3f
63
63
00
00
ENDCHAR
STARTCHAR U00BF
ENCODING 191
SWIDTH 480 0
DWIDTH 8 0
BBX 8 16 0 -2
BITMAP
0c
0c
00
00
0c
0c
0c
18
30
30
61
61
61
33
1e
00
ENDCHAR
STARTCHAR U00C0
ENCODING 192
SWIDTH 480 0
DWIDTH 8 0
BBX 8 16 0 -2
BITMAP
38
18
0c
18
18
34
34
66
66
7e
c3
c3
c3
c3
00
00
ENDCHAR
STARTCHAR U00C1
ENCODING 193
SWIDTH 480 0
DWIDTH 8 0
BBX 8 16 0 -2
BITMAP
1c
18
30
18
18
34
34
66
66
7e
c3
c3
c3
c3
00
00
ENDCHAR
STARTCHAR U00C2
ENCODING 194
SWIDTH 480 0
DWIDTH 8 0
BBX 8 16 0 -2
BITMAP
18
3c
66
18
18
34
34
66
66
7e
c3
c3
c3
c3
00
00
ENDCHAR
STARTCHAR U00C3
ENCODING 195
SWIDTH 480 0
DWIDTH 8 0
BBX 8 16 0 -2
BITMAP
3a
6c
00
18
18
34
34
66
66
7e
c3
c3
c3
c3
00
00
ENDCHAR
STARTCHAR U00C4
ENCODING 196
SWIDTH 480 0
DWIDTH 8 0
BBX 8 16 0 -2
BITMAP
66
66
00
18
18
34
34
66
66
7e
c3
c3
c3
c3
00
00
ENDCHAR
STARTCHAR U00C5
ENCODING 197
SWIDTH 480 0
DWIDTH 8 0
BBX 8 16 0 -2
BITMAP
18
34
18
18
18
34
34
66
66
7e
c3
c3
c3
c3
00
00
ENDCHAR
STARTCHAR U00C6
ENCODING 198
SWIDTH 480 0
DWIDTH 8 0
BBX 8 16 0 -2
BITMAP
00
00
1f
34
34
34
37
6c
6c
7c
cc
cc
cc
cf
00
00
ENDCHAR
STARTCHAR U00C7
ENCODING 199
SWIDTH 480 0
DWIDTH 8 0
BBX 8 16 0 -2
BITMAP
00
3c
66
63
c0
c0
c0
c0
c0
c0
63
66
3c
0c
0c
18
ENDCHAR
STARTCHAR U00C8
ENCODING 200
SWIDTH 480 0
DWIDTH 8 0
BBX 8 16 0 -2
BITMAP
38
18
0c
ff
c0
c0
c0
fe
c0
c0
c0
c0
c0
ff
00
00
ENDCHAR
STARTCHAR U00C9
ENCODING 201
SWIDTH 480 0
DWIDTH 8 0
BBX 8 16 0 -2
BITMAP
1c
18
30
ff
c0
c0
c0
fe
c0
c0
c0
c0
c0
ff
00
00
ENDCHAR
STARTCHAR U00CA
ENCODING 202
SWIDTH 480 0
DWIDTH 8 0
BBX 8 16 0 -2
BITMAP
18
3c
66
ff
c0
c0
c0
fe
c0
c0
c0
c0
c0
ff
00
00
ENDCHAR
STARTCHAR U00CB
ENCODING 203
SWIDTH 480 0
DWIDTH 8 0
BBX 8 16 0 -2
BITMAP
66
66
00
ff
c0
c0
c0
fe
c0
c0
c0
c0
c0
ff
00
00
ENDCHAR
STARTCHAR U00CC
ENCODING 204
SWIDTH 480 0
DWIDTH 8 0
BBX 8 16 0 -2
BITMAP
38
18
0c
3c
18
18
18
18
18
18
18
18
18
3c
00
00
ENDCHAR
STARTCHAR U00CD
ENCODING 205
SWIDTH 480 0
DWIDTH 8 0
BBX 8 16 0 -2
BITMAP
1c
18
30
3c
18
18
18
18
18
18
18
18
18
3c
00
00
ENDCHAR
STARTCHAR U00CE
ENCODING 206
SWIDTH 480 0
DWIDTH 8 0
BBX 8 16 0 -2
BITMAP
18
3c
66
3c
18
18
18
18
18
18
18
18
18
3c
00
00
ENDCHAR
STARTCHAR U00CF
ENCODING 207
SWIDTH 480 0
DWIDTH 8 0
BBX 8 16 0 -2
BITMAP
66
66
00
3c
18
18
18
18
18
18
18
18
18
3c
00
00
ENDCHAR
STARTCHAR U00D0
ENCODING 208
SWIDTH 480 0
DWIDTH 8 0
BBX 8 16 0 -2
BITMAP
00
78
6c
66
66
63
63
fb
63
63
66
66
6c
78
00
00
ENDCHAR
STARTCHAR U00D1
ENCODING 209
SWIDTH 480 0
DWIDTH 8 0
BBX 8 16 0 -2
BITMAP
3a
6c
c3
c3
e3
e3
d3
d3
db
cd
cd
c7
c7
c3
00
00
ENDCHAR
STARTCHAR U00D2
ENCODING 210
SWIDTH 480 0
DWIDTH 8 0
BBX 8 16 0 -2
BITMAP
38
18
0c
3c
66
c3
c3
c3
c3
c3
c3
c3
66
3c
00
00
ENDCHAR
STARTCHAR U00D3
ENCODING 211
SWIDTH 480 0
DWIDTH 8 0
BBX 8 16 0 -2
BITMAP
1c
18
30
3c
66
c3
c3
c3
c3
c3
c3
c3
66
3c
00
00
ENDCHAR
STARTCHAR U00D4
ENCODING 212
SWIDTH 480 0
DWIDTH 8 0
BBX 8 16 0 -2
BITMAP
18
3c
66
3c
66
c3
c3
c3
c3
c3
c3
c3
66
3c
00
00
ENDCHAR
STARTCHAR U00D5
ENCODING 213
SWIDTH 480 0
DWIDTH 8 0
BBX 8 16 0 -2
BITMAP
3a
6c
00
3c
66
c3
c3
c3
c3
c3
c3
c3
66
3c
00
00
ENDCHAR
STARTCHAR U00D6
ENCODING 214
SWIDTH 480 0
DWIDTH 8 0
BBX 8 16 0 -2
BITMAP
66
66
00
3c
66
c3
c3
c3
c3
c3
c3
c3
66
3c
00
00
ENDCHAR
STARTCHAR U00D7
ENCODING 215
SWIDTH 480 0
DWIDTH 8 0
BBX 8 16 0 -2
BITMAP
00
00
00
00
c1
63
36
1c
1c
36
63
c1
00
00
00
00
ENDCHAR
STARTCHAR U00D8
ENCODING 216
SWIDTH 480 0
DWIDTH 8 0
BBX 8 16 0 -2
BITMAP
03
03
3e
66
c7
cd
cd
db
db
d3
d3
e3
66
7c
c0
c0
ENDCHAR
STARTCHAR U00D9
ENCODING 217
SWIDTH 480 0
DWIDTH 8 0
BBX 8 16 0 -2
BITMAP
38
18
0c
c3
c3
c3
c3
c3
c3
c3
c3
c3
66
3c
00
00
ENDCHAR
STARTCHAR U00DA
ENCODING 218
SWIDTH 480 0
DWIDTH 8 0
BBX 8 16 0 -2
BITMAP
1c
18
30
c3
c3
c3
c3
c3
c3
c3
c3
c3
66
3c
00
00
ENDCHAR
STARTCHAR U00DB
ENCODING 219
SWIDTH 480 0
DWIDTH 8 0
BBX 8 16 0 -2
BITMAP
18
3c
66
00
c3
c3
c3
c3
c3
c3
c3
c3
66
3c
00
00
ENDCHAR
STARTCHAR U00DC
ENCODING 220
SWIDTH 480 0
DWIDTH 8 0
BBX 8 16 0 -2
BITMAP
66
66
00
c3
c3
c3
c3
c3
c3
c3
c3
c3
66
3c
00
00
ENDCHAR
STARTCHAR U00DD
ENCODING 221
SWIDTH 480 0
DWIDTH 8 0
BBX 8 16 0 -2
BITMAP
1c
18
d3
c3
66
66
34
34
18
18
18
18
18
18
00
00
ENDCHAR
STARTCHAR U00DE
ENCODING 222
SWIDTH 480 0
DWIDTH 8 0
BBX 8 16 0 -2
BITMAP
c0
c0
fc
c6
c3
c3
c6
fc
c0
c0
c0
c0
c0
c0
00
00
ENDCHAR
STARTCHAR U00DF
ENCODING 223
SWIDTH 480 0
DWIDTH 8 0
BBX 8 16 0 -2
BITMAP
00
7c
c6
c3
c3
c6
dc
c6
c3
c3
c3
c3
c6
dc
00
00
ENDCHAR
STARTCHAR U00E0
ENCODING 224
SWIDTH 480 0
DWIDTH 8 0
BBX 8 16 0 -2
BITMAP
00
38
18
0c
00
3e
63
03
3f
63
c3
c3
c7
7d
00
00
ENDCHAR
STARTCHAR U00E1
ENCODING 225
SWIDTH 480 0
DWIDTH 8 0
BBX 8 16 0 -2
BITMAP
00
1c
18
30
00
3e
63
03
3f
63
c3
c3
c7
7d
00
00
ENDCHAR
STARTCHAR U00E2
ENCODING 226
SWIDTH 480 0
DWIDTH 8 0
BBX 8 16 0 -2
BITMAP
00
18
3c
66
00
3e
63
03
3f
63
c3
c3
c7
7d
00
00
ENDCHAR
STARTCHAR U00E3
ENCODING 227
SWIDTH 480 0
DWIDTH 8 0
BBX 8 16 0 -2
BITMAP
00
3a
6c
00
00
3e
63
03
3f
63
c3
c3
c7
7d
00
00
ENDCHAR
STARTCHAR U00E4
ENCODING 228
SWIDTH 480 0
DWIDTH 8 0
BBX 8 16 0 -2
BITMAP
00
00
36
36
00
3e
63
03
3f
63
c3
c3
c7
7d
00
00
ENDCHAR
STARTCHAR U00E5
ENCODING 229
SWIDTH 480 0
DWIDTH 8 0
BBX 8 16 0 -2
BITMAP
00
18
34
18
00
3e
63
03
3f
63
c3
c3
c7
7d
00
00
ENDCHAR
STARTCHAR U00E6
ENCODING 230
SWIDTH 480 0
DWIDTH 8 0
BBX 8 16 0 -2
BITMAP
00
00
00
00
00
76
db
1b
3f
68
d8
db
db
76
00
00
ENDCHAR
STARTCHAR U00E7
ENCODING 231
SWIDTH 480 0
DWIDTH 8 0
BBX 8 16 0 -2
BITMAP
00
00
00
00
3c
66
c3
c0
c0
c0
c3
66
3c
18
18
30
ENDCHAR
STARTCHAR U00E8
ENCODING 232
SWIDTH 480 0
DWIDTH 8 0
BBX 8 16 0 -2
BITMAP
00
38
18
0c
00
3c
66
c3
c3
ff
c0
c3
66
3c
00
00
ENDCHAR
STARTCHAR U00E9
ENCODING 233
SWIDTH 480 0
DWIDTH 8 0
BBX 8 16 0 -2
BITMAP
00
1c
18
30
00
3c
66
c3
c3
ff
c0
c3
66
3c
00
00
ENDCHAR
STARTCHAR U00EA
ENCODING 234
SWIDTH 480 0
DWIDTH 8 0
BBX 8 16 0 -2
BITMAP
00
18
3c
66
00
3c
66
c3
c3
ff
c0
c3
66
3c
00
00
ENDCHAR
STARTCHAR U00EB
ENCODING 235
SWIDTH 480 0
DWIDTH 8 0
BBX 8 16 0 -2
BITMAP
00
66
66
00
00
3c
66
c3
c3
ff
c0
c3
66
3c
00
00
ENDCHAR
STARTCHAR U00EC
ENCODING 236
SWIDTH 480 0
DWIDTH 8 0
BBX 8 16 0 -2
BITMAP
00
38
18
0c
00
38
18
18
18
18
18
18
18
18
00
00
ENDCHAR
STARTCHAR U00ED
ENCODING 237
SWIDTH 480 0
DWIDTH 8 0
BBX 8 16 0 -2
BITMAP
00
1c
18
30
00
38
18
18
18
18
18
18
18
18
00
00
ENDCHAR
STARTCHAR U00EE
ENCODING 238
SWIDTH 480 0
DWIDTH 8 0
BBX 8 16 0 -2
BITMAP
00
18
3c
66
00
38
18
18
18
18
18
18
18
18
00
00
ENDCHAR
STARTCHAR U00EF
ENCODING 239
SWIDTH 480 0
DWIDTH 8 0
BBX 8 16 0 -2
BITMAP
00
66
66
00
00
38
18
18
18
18
18
18
18
18
00
00
ENDCHAR
STARTCHAR U00F0
ENCODING 240
SWIDTH 480 0
DWIDTH 8 0
BBX 8 16 0 -2
BITMAP
00
76
1c
38
6c
3c
66
c3
c3
c3
c3
c3
66
3c
00
00
ENDCHAR
STARTCHAR U00F1
ENCODING 241
SWIDTH 480 0
DWIDTH 8 0
BBX 8 16 0 -2
BITMAP
00
3a
6c
00
00
6e
73
63
63
63
63
63
63
63
00
00
ENDCHAR
STARTCHAR U00F2
ENCODING 242
SWIDTH 480 0
DWIDTH 8 0
BBX 8 16 0 -2
BITMAP
00
38
18
0c
00
3c
66
c3
c3
c3
c3
c3
66
3c
00
00
ENDCHAR
STARTCHAR U00F3
ENCODING 243
SWIDTH 480 0
DWIDTH 8 0
BBX 8 16 0 -2
BITMAP
00
1c
18
30
00
3c
66
c3
c3
c3
c3
c3
66
3c
00
00
ENDCHAR
STARTCHAR U00F4
ENCODING 244
SWIDTH 480 0
DWIDTH 8 0
BBX 8 16 0 -2
BITMAP
00
18
3c
66
00
3c
66
c3
c3
c3
c3
c3
66
3c
00
00
ENDCHAR
STARTCHAR U00F5
ENCODING 245
SWIDTH 480 0
DWIDTH 8 0
BBX 8 16 0 -2
BITMAP
00
3a
6c
00
00
3c
66
c3
c3
c3
c3
c3
66
3c
00
00
ENDCHAR
STARTCHAR U00F6
ENCODING 246
SWIDTH 480 0
DWIDTH 8 0
BBX 8 16 0 -2
BITMAP
00
66
66
00
00
3c
66
c3
c3
c3
c3
c3
66
3c
00
00
ENDCHAR
STARTCHAR U00F7
ENCODING 247
SWIDTH 480 0
DWIDTH 8 0
BBX 8 16 0 -2
BITMAP
00
00
00
00
00
18
18
00
ff
00
18
18
00
00
00
00
ENDCHAR
STARTCHAR U00F8
ENCODING 248
SWIDTH 480 0
DWIDTH 8 0
BBX 8 16 0 -2
BITMAP
00
00
00
00
00
3d
66
cd
cd
db
d3
d3
66
dc
00
00
ENDCHAR
STARTCHAR U00F9
ENCODING 249
SWIDTH 480 0
DWIDTH 8 0
BBX 8 16 0 -2
BITMAP
00
38
18
0c
00
63
63
63
63
63
63
63
67
3d
00
00
ENDCHAR
STARTCHAR U00FA
ENCODING 250
SWIDTH 480 0
DWIDTH 8 0
BBX 8 16 0 -2
BITMAP
00
1c
18
30
00
63
63
63
63
63
63
63
67
3d
00
00
ENDCHAR
STARTCHAR U00FB
ENCODING 251
SWIDTH 480 0
DWIDTH 8 0
BBX 8 16 0 -2
BITMAP
00
18
3c
66
00
63
63
63
63
63
63
63
67
3d
00
00
ENDCHAR
STARTCHAR U00FC
ENCODING 252
SWIDTH 480 0
DWIDTH 8 0
BBX 8 16 0 -2
BITMAP
00
36
36
00
00
63
63
63
63
63
63
63
67
3d
00
00
ENDCHAR
STARTCHAR U00FD
ENCODING 253
SWIDTH 480 0
DWIDTH 8 0
BBX 8 16 0 -2
BITMAP
00
0e
0c
18
00
63
63
33
36
1a
0c
0c
18
18
30
60
ENDCHAR
STARTCHAR U00FE
ENCODING 254
SWIDTH 480 0
DWIDTH 8 0
BBX 8 16 0 -2
BITMAP
00
00
60
60
60
7c
66
63
63
63
66
7c
60
60
60
60
ENDCHAR
STARTCHAR U00FF
ENCODING 255
SWIDTH 480 0
DWIDTH 8 0
BBX 8 16 0 -2
BITMAP
00
36
36
00
00
63
63
33
36
1a
0c
0c
18
18
30
60
ENDCHAR
STARTCHAR U0391
ENCODING 913
SWIDTH 960 0
DWIDTH 16 0
BBX 16 16 0 -2
BITMAP
0000
0180
0180
0340
0340
0660
0660
0c30
0ff0
0c30
1818
1818
300c
781e
0000
0000
ENDCHAR
STARTCHAR U0392
ENCODING 914
SWIDTH 960 0
DWIDTH 16 0
BBX 16 16 0 -2
BITMAP
0000
7fe0
1830
1818
1818
1830
1fe0
1830
1818
180c
180c
1818
1870
7fc0
0000
0000
ENDCHAR
STARTCHAR U0393
ENCODING 915
SWIDTH 960 0
DWIDTH 16 0
BBX 16 16 0 -2
BITMAP
0000
3ff8
0c18
0c0c
0c00
0c00
0c00
0c00
0c00
0c00
0c00
0c00
0c00
1e00
0000
0000
ENDCHAR
STARTCHAR U0394
ENCODING 916
SWIDTH 960 0
DWIDTH 16 0
BBX 16 16 0 -2
BITMAP
0000
0300
0300
0680
0680
0cc0
0cc0
1860
1860
1830
3030
3030
6018
fffc
0000
0000
ENDCHAR
STARTCHAR U0395
ENCODING 917
SWIDTH 960 0
DWIDTH 16 0
BBX 16 16 0 -2
BITMAP
0000
7ff8
1818
180c
1800
1800
18c0
1fc0
18c0
1800
1800
180c
1818
7ff8
0000
0000
ENDCHAR
STARTCHAR U0396
ENCODING 918
SWIDTH 960 0
DWIDTH 16 0
BBX 16 16 0 -2
BITMAP
0000
1ff8
1830
3060
00c0
00c0
0180
0300
0300
0600
0c00
0c18
1818
3ff8
0000
0000
ENDCHAR
STARTCHAR U0397
ENCODING 919
SWIDTH 960 0
DWIDTH 16 0
BBX 16 16 0 -2
BITMAP
0000
783c
3018
3018
3018
3018
3018
3ff8
3018
3018
3018
3018
3018
783c
0000
0000
ENDCHAR
STARTCHAR U0398
ENCODING 920
SWIDTH 960 0
DWIDTH 16 0
BBX 16 16 0 -2
BITMAP
0000
07c0
1c70
3838
3018
600c
6c6c
6fec
6c6c
600c
3018
3838
1c70
07c0
0000
0000
ENDCHAR
STARTCHAR U0399
ENCODING 921
SWIDTH 960 0
DWIDTH 16 0
BBX 16 16 0 -2
BITMAP
0000
0780
0300
0300
0300
0300
0300
0300
0300
0300
0300
0300
0300
0780
0000
0000
ENDCHAR
STARTCHAR U039A
ENCODING 922
SWIDTH 960 0
DWIDTH 16 0
BBX 16 16 0 -2
BITMAP
0000
3c3c
1830
1860
18c0
1980
1b00
1b00
1d80
18c0
1860
1830
1818
3c1e
0000
0000
ENDCHAR
STARTCHAR U039B
ENCODING 923
SWIDTH 960 0
DWIDTH 16 0
BBX 16 16 0 -2
BITMAP
0000
0180
0180
0340
0340
0660
0660
0c30
0c30
0c30
1818
1818
300c
781e
0000
0000
ENDCHAR
STARTCHAR U039C
ENCODING 924
SWIDTH 960 0
DWIDTH 16 0
BBX 16 16 0 -2
BITMAP
0000
e01c
6018
7038
7038
6868
6868
6cd8
6cd8
6cd8
6698
6698
6318
f33c
0000
0000
ENDCHAR
STARTCHAR U039D
ENCODING 925
SWIDTH 960 0
DWIDTH 16 0
BBX 16 16 0 -2
BITMAP
0000
783c
3818
3418
3418
3618
3318
3318
3198
30d8
30d8
3068
3038
7818
0000
0000
ENDCHAR
STARTCHAR U039E
ENCODING 926
SWIDTH 960 0
DWIDTH 16 0
BBX 16 16 0 -2
BITMAP
0000
7ffc
600c
0000
0000
0000
3018
3ff8
3018
0000
0000
0000
600c
7ffc
0000
0000
ENDCHAR
STARTCHAR U039F
ENCODING 927
SWIDTH 960 0
DWIDTH 16 0
BBX 16 16 0 -2
BITMAP
0000
07c0
1c70
3838
3018
600c
600c
600c
600c
600c
3018
3838
1c70
07c0
0000
0000
ENDCHAR
STARTCHAR U03A0
ENCODING 928
SWIDTH 960 0
DWIDTH 16 0
BBX 16 16 0 -2
BITMAP
0000
3ff8
1830
1830
1830
1830
1830
1830
1830
1830
1830
1830
1830
3c78
0000
0000
ENDCHAR
STARTCHAR U03A1
ENCODING 929
SWIDTH 960 0
DWIDTH 16 0
BBX 16 16 0 -2
BITMAP
0000
3fe0
0c38
0c0c
0c0c
0c0c
0c38
0fe0
0c00
0c00
0c00
0c00
0c00
1e00
0000
0000
ENDCHAR
STARTCHAR U03A3
ENCODING 931
SWIDTH 960 0
DWIDTH 16 0
BBX 16 16 0 -2
BITMAP
0000
3ff0
1830
0c18
0600
0300
0180
01c0
0180
0300
0600
0c18
1818
3ff8
0000
0000
ENDCHAR
STARTCHAR U03A4
ENCODING 932
SWIDTH 960 0
DWIDTH 16 0
BBX 16 16 0 -2
BITMAP
0000
7ff8
6318
c30c
0300
0300
0300
0300
0300
0300
0300
0300
0300
0780
0000
0000
ENDCHAR
STARTCHAR U03A5
ENCODING 933
SWIDTH 960 0
DWIDTH 16 0
BBX 16 16 0 -2
BITMAP
0000
1e78
334c
6186
0180
0180
0180
0180
0180
0180
0180
0180
0180
03c0
0000
0000
ENDCHAR
STARTCHAR U03A6
ENCODING 934
SWIDTH 960 0
DWIDTH 16 0
BBX 16 16 0 -2
BITMAP
0000
03c0
0180
07e0
1db8
1998
318c
318c
318c
1998
1db8
07e0
0180
03c0
0000
0000
ENDCHAR
STARTCHAR U03A7
ENCODING 935
SWIDTH 960 0
DWIDTH 16 0
BBX 16 16 0 -2
BITMAP
0000
7878
3030
1860
0cc0
0cc0
0680
0300
0680
0cc0
0cc0
1860
3030
7878
0000
0000
ENDCHAR
STARTCHAR U03A8
ENCODING 936
SWIDTH 960 0
DWIDTH 16 0
BBX 16 16 0 -2
BITMAP
0000
0780
e31c
b336
3330
3330
3330
3330
3b70
1b60
0fc0
0300
0300
0780
0000
0000
ENDCHAR
STARTCHAR U03A9
ENCODING 937
SWIDTH 960 0
DWIDTH 16 0
BBX 16 16 0 -2
BITMAP
0000
03c0
0e70
1c38
1818
300c
300c
300c
1818
1c38
0e70
334c
334c
3f7c
0000
0000
ENDCHAR
STARTCHAR U03B1
ENCODING 945
SWIDTH 960 0
DWIDTH 16 0
BBX 16 16 0 -2
BITMAP
0000
0000
0000
0000
0000
0018
0798
0cd0
18d0
18e0
30c0
31c0
3358
1e70
0000
0000
ENDCHAR
STARTCHAR U03B2
ENCODING 946
SWIDTH 960 0
DWIDTH 16 0
BBX 16 16 0 -2
BITMAP
0000
00f0
0198
0318
0318
0618
0630
0de0
0c60
0c30
1830
1830
1a60
1bc0
3000
3000
ENDCHAR
STARTCHAR U03B3
ENCODING 947
SWIDTH 960 0
DWIDTH 16 0
BBX 16 16 0 -2
BITMAP
0000
0000
0000
0000
0000
0000
1e38
3360
6340
0380
0380
0300
0600
0600
0c00
0c00
ENDCHAR
STARTCHAR U03B4
ENCODING 948
SWIDTH 960 0
DWIDTH 16 0
BBX 16 16 0 -2
BITMAP
0000
0380
06e0
0630
0318
0180
0740
0cc0
1860
3060
30c0
30c0
1980
0f00
0000
0000
ENDCHAR
STARTCHAR U03B5
ENCODING 949
SWIDTH 960 0
DWIDTH 16 0
BBX 16 16 0 -2
BITMAP
0000
0000
0000
0000
0000
0000
03e0
0630
0600
03c0
0600
0c00
0c60
07c0
0000
0000
ENDCHAR
STARTCHAR U03B6
ENCODING 950
SWIDTH 960 0
DWIDTH 16 0
BBX 16 16 0 -2
BITMAP
0600
0c30
0c60
07c0
0180
0300
0600
0c00
1800
1800
0c00
0700
0180
00c0
00c0
0380
ENDCHAR
STARTCHAR U03B7
ENCODING 951
SWIDTH 960 0
DWIDTH 16 0
BBX 16 16 0 -2
BITMAP
0000
0000
0000
0000
0000
0000
1de0
3730
0630
0c30
0c30
0c60
1860
1860
00c0
00c0
ENDCHAR
STARTCHAR U03B8
ENCODING 952
SWIDTH 960 0
DWIDTH 16 0
BBX 16 16 0 -2
BITMAP
0000
00e0
01b0
0318
0618
0618
0ff8
0c30
1830
1860
1860
18c0
0d80
0700
0000
0000
ENDCHAR
STARTCHAR U03B9
ENCODING 953
SWIDTH 960 0
DWIDTH 16 0
BBX 16 16 0 -2
BITMAP
0000
0000
0000
0000
0000
0000
0600
0600
0c00
0c00
1800
1860
19c0
0f00
0000
0000
ENDCHAR
STARTCHAR U03BA
ENCODING 954
SWIDTH 960 0
DWIDTH 16 0
BBX 16 16 0 -2
BITMAP
0000
0000
0000
0000
0000
0000
0c70
0cd8
0d80
0e00
1b00
1b00
3330
31e0
0000
0000
ENDCHAR
STARTCHAR U03BB
ENCODING 955
SWIDTH 960 0
DWIDTH 16 0
BBX 16 16 0 -2
BITMAP
0000
0180
00c0
00c0
00c0
00c0
00c0
01c0
0340
0340
0660
0c60
1830
3018
0000
0000
ENDCHAR
STARTCHAR U03BC
ENCODING 956
SWIDTH 960 0
DWIDTH 16 0
BBX 16 16 0 -2
BITMAP
0000
0000
0000
0000
0000
0000
0c60
0c60
0c60
0cc0
18c0
18c0
1dd8
3770
3000
6000
ENDCHAR
STARTCHAR U03BD
ENCODING 957
SWIDTH 960 0
DWIDTH 16 0
BBX 16 16 0 -2
BITMAP
0000
0000
0000
0000
0000
0000
3830
0c30
0c60
0c60
0cc0
1980
1b00
3c00
0000
0000
ENDCHAR
STARTCHAR U03BE
ENCODING 958
SWIDTH 960 0
DWIDTH 16 0
BBX 16 16 0 -2
BITMAP
0030
01e0
0300
0180
07e0
0c00
0c00
0600
1fc0
3000
3000
1e00
0380
00c0
00c0
1f80
ENDCHAR
STARTCHAR U03BF
ENCODING 959
SWIDTH 960 0
DWIDTH 16 0
BBX 16 16 0 -2
BITMAP
0000
0000
0000
0000
0000
0000
03c0
0660
0c30
1830
1830
1860
0cc0
0780
0000
0000
ENDCHAR
STARTCHAR U03C0
ENCODING 960
SWIDTH 960 0
DWIDTH 16 0
BBX 16 16 0 -2
BITMAP
0000
0000
0000
0000
0000
0018
1ff0
36c0
06c0
06c0
0d80
0d80
19b0
30e0
0000
0000
ENDCHAR
STARTCHAR U03C1
ENCODING 961
SWIDTH 960 0
DWIDTH 16 0
BBX 16 16 0 -2
BITMAP
0000
0000
0000
0000
0000
0000
03c0
0660
0c30
0c30
0c30
1830
1a60
1bc0
3000
3000
ENDCHAR
STARTCHAR U03C3
ENCODING 963
SWIDTH 960 0
DWIDTH 16 0
BBX 16 16 0 -2
BITMAP
0000
0000
0000
0000
0000
0018
01f0
0360
0630
0c30
0c30
0c60
06c0
0380
0000
0000
ENDCHAR
STARTCHAR U03C4
ENCODING 964
SWIDTH 960 0
DWIDTH 16 0
BBX 16 16 0 -2
BITMAP
0000
0000
0000
0000
0000
0018
1ff0
3300
0300
0600
0600
0c60
0cc0
0780
0000
0000
ENDCHAR
STARTCHAR U03C5
ENCODING 965
SWIDTH 960 0
DWIDTH 16 0
BBX 16 16 0 -2
BITMAP
0000
0000
0000
0000
0000
0000
0330
0318
0318
0330
0630
0660
06c0
0380
0000
0000
ENDCHAR
STARTCHAR U03C6
ENCODING 966
SWIDTH 960 0
DWIDTH 16 0
BBX 16 16 0 -2
BITMAP
0000
0060
0060
0060
00c0
00c0
03e0
0eb0
19b0
19b0
1b30
1b60
0f80
0600
0600
0600
ENDCHAR
STARTCHAR U03C7
ENCODING 967
SWIDTH 960 0
DWIDTH 16 0
BBX 16 16 0 -2
BITMAP
0000
0000
0000
0000
0000
0000
0e30
1b60
0340
0380
0300
0700
0d00
1b00
31b0
60e0
ENDCHAR
STARTCHAR U03C8
ENCODING 968
SWIDTH 960 0
DWIDTH 16 0
BBX 16 16 0 -2
BITMAP
0000
0060
0060
00c0
00c0
00c0
1998
3598
0db0
0d30
1b60
1b40
0f80
0600
0600
0600
ENDCHAR
STARTCHAR U03C9
ENCODING 969
SWIDTH 960 0
DWIDTH 16 0
BBX 16 16 0 -2
BITMAP
0000
0000
0000
0000
0000
0000
0c30
19b0
3198
3198
6318
6318
66b0
3ce0
0000
0000
ENDCHAR
STARTCHAR U0401
ENCODING 1025
SWIDTH 960 0
DWIDTH 16 0
BBX 16 16 0 -2
BITMAP
0c30
0c30
0000
7ff0
1830
1818
1800
18c0
1fc0
18c0
1800
1818
1830
7ff0
0000
0000
ENDCHAR
STARTCHAR U0410
ENCODING 1040
SWIDTH 960 0
DWIDTH 16 0
BBX 16 16 0 -2
BITMAP
0000
0180
0180
0340
0340
0660
0660
0c30
0ff0
0c30
1818
1818
300c
781e
0000
0000
ENDCHAR
STARTCHAR U0411
ENCODING 1041
SWIDTH 960 0
DWIDTH 16 0
BBX 16 16 0 -2
BITMAP
0000
7ff0
1830
1818
1800
1800
1fe0
1830
1818
180c
180c
1818
1870
7fc0
0000
0000
ENDCHAR
STARTCHAR U0412
ENCODING 1042
SWIDTH 960 0
DWIDTH 16 0
BBX 16 16 0 -2
BITMAP
0000
7fe0
1830
1818
1818
1830
1fe0
1830
1818
180c
180c
1818
1870
7fc0
0000
0000
ENDCHAR
STARTCHAR U0413
ENCODING 1043
SWIDTH 960 0
DWIDTH 16 0
BBX 16 16 0 -2
BITMAP
0000
3ff8
0c18
0c0c
0c00
0c00
0c00
0c00
0c00
0c00
0c00
0c00
0c00
1e00
0000
0000
ENDCHAR
STARTCHAR U0414
ENCODING 1044
SWIDTH 960 0
DWIDTH 16 0
BBX 16 16 0 -2
BITMAP
0000
1ffc
0630
0630
0630
0630
0630
0630
0630
0630
0c30
0c30
1830
7ffc
600c
600c
ENDCHAR
STARTCHAR U0415
ENCODING 1045
SWIDTH 960 0
DWIDTH 16 0
BBX 16 16 0 -2
BITMAP
0000
7ff8
1818
180c
1800
1800
18c0
1fc0
18c0
1800
1800
180c
1818
7ff8
0000
0000
ENDCHAR
STARTCHAR U0416
ENCODING 1046
SWIDTH 960 0
DWIDTH 16 0
BBX 16 16 0 -2
BITMAP
0000
73ce
d99b
1998
1998
1998
0db0
0ff0
1998
318c
318c
6186
6186
f3cf
0000
0000
ENDCHAR
STARTCHAR U0417
ENCODING 1047
SWIDTH 960 0
DWIDTH 16 0
BBX 16 16 0 -2
BITMAP
0000
07c0
1c70
3038
0018
0018
0030
07e0
0030
0018
0018
3030
1c70
07c0
0000
0000
ENDCHAR
STARTCHAR U0418
ENCODING 1048
SWIDTH 960 0
DWIDTH 16 0
BBX 16 16 0 -2
BITMAP
0000
783c
3038
3068
3068
30d8
3198
3198
3318
3618
3618
3418
3818
303c
0000
0000
ENDCHAR
STARTCHAR U0419
ENCODING 1049
SWIDTH 960 0
DWIDTH 16 0
BBX 16 16 0 -2
BITMAP
0ee0
0c60
7bdc
3038
3038
3068
30d8
3198
3198
3318
3618
3418
3818
303c
0000
0000
ENDCHAR
STARTCHAR U041A
ENCODING 1050
SWIDTH 960 0
DWIDTH 16 0
BBX 16 16 0 -2
BITMAP
0000
3c78
18cc
18c0
1980
1980
1b00
1f00
1980
18c0
1860
1830
1818
3c3c
0000
0000
ENDCHAR
STARTCHAR U041B
ENCODING 1051
SWIDTH 960 0
DWIDTH 16 0
BBX 16 16 0 -2
BITMAP
0000
1ff8
0630
0630
0630
0630
0630
0630
0630
0c30
0c30
1830
d030
e078
0000
0000
ENDCHAR
STARTCHAR U041C
ENCODING 1052
SWIDTH 960 0
DWIDTH 16 0
BBX 16 16 0 -2
BITMAP
0000
701c
3018
3838
3838
3468
3468
3668
36d8
66cc
634c
638c
618c
f99e
0000
0000
ENDCHAR
STARTCHAR U041D
ENCODING 1053
SWIDTH 960 0
DWIDTH 16 0
BBX 16 16 0 -2
BITMAP
0000
783c
3018
3018
3018
3018
3018
3ff8
3018
3018
3018
3018
3018
783c
0000
0000
ENDCHAR
STARTCHAR U041E
ENCODING 1054
SWIDTH 960 0
DWIDTH 16 0
BBX 16 16 0 -2
BITMAP
0000
07c0
1c70
3838
3018
600c
600c
600c
600c
600c
3018
3838
1c70
07c0
0000
0000
ENDCHAR
STARTCHAR U041F
ENCODING 1055
SWIDTH 960 0
DWIDTH 16 0
BBX 16 16 0 -2
BITMAP
0000
3ffc
1818
1818
1818
1818
1818
1818
1818
1818
1818
1818
1818
3c3c
0000
0000
ENDCHAR
STARTCHAR U0420
ENCODING 1056
SWIDTH 960 0
DWIDTH 16 0
BBX 16 16 0 -2
BITMAP
0000
3fe0
0c38
0c0c
0c0c
0c0c
0c38
0fe0
0c00
0c00
0c00
0c00
0c00
1e00
0000
0000
ENDCHAR
STARTCHAR U0421
ENCODING 1057
SWIDTH 960 0
DWIDTH 16 0
BBX 16 16 0 -2
BITMAP
0000
07c0
1c68
3838
3018
6000
6000
6000
6000
6000
3018
3838
1c70
07c0
0000
0000
ENDCHAR
STARTCHAR U0422
ENCODING 1058
SWIDTH 960 0
DWIDTH 16 0
BBX 16 16 0 -2
BITMAP
0000
7ff8
6318
c30c
0300
0300
0300
0300
0300
0300
0300
0300
0300
0780
0000
0000
ENDCHAR
STARTCHAR U0423
ENCODING 1059
SWIDTH 960 0
DWIDTH 16 0
BBX 16 16 0 -2
BITMAP
0000
3c3c
1818
0c30
0c30
0660
0660
0340
0340
0180
0180
0300
3600
1c00
0000
0000
ENDCHAR
STARTCHAR U0424
ENCODING 1060
SWIDTH 960 0
DWIDTH 16 0
BBX 16 16 0 -2
BITMAP
0000
03c0
0180
07e0
1db8
1998
318c
318c
318c
1998
1db8
07e0
0180
03c0
0000
0000
ENDCHAR
STARTCHAR U0425
ENCODING 1061
SWIDTH 960 0
DWIDTH 16 0
BBX 16 16 0 -2
BITMAP
0000
7878
3030
1860
0cc0
0cc0
0680
0300
0680
0cc0
0cc0
1860
3030
7878
0000
0000
ENDCHAR
STARTCHAR U0426
ENCODING 1062
SWIDTH 960 0
DWIDTH 16 0
BBX 16 16 0 -2
BITMAP
0000
7878
3030
3030
3030
3030
3030
3030
3030
3030
3030
3030
3030
7ffc
000c
000c
ENDCHAR
STARTCHAR U0427
ENCODING 1063
SWIDTH 960 0
DWIDTH 16 0
BBX 16 16 0 -2
BITMAP
0000
3c78
1830
1830
1830
1830
1830
0c70
07d0
0030
0030
0030
0030
0078
0000
0000
ENDCHAR
STARTCHAR U0428
ENCODING 1064
SWIDTH 960 0
DWIDTH 16 0
BBX 16 16 0 -2
BITMAP
0000
7bde
318c
318c
318c
318c
318c
318c
318c
318c
318c
318c
318c
7ffe
0000
0000
ENDCHAR
STARTCHAR U0429
ENCODING 1065
SWIDTH 960 0
DWIDTH 16 0
BBX 16 16 0 -2
BITMAP
0000
7bde
318c
318c
318c
318c
318c
318c
318c
318c
318c
318c
318c
7fff
0003
0003
ENDCHAR
STARTCHAR U042A
ENCODING 1066
SWIDTH 960 0
DWIDTH 16 0
BBX 16 16 0 -2
BITMAP
0000
7f00
6600
c600
0600
0600
07f0
061c
060e
0606
0606
060e
061c
0ff0
0000
0000
ENDCHAR
STARTCHAR U042B
ENCODING 1067
SWIDTH 960 0
DWIDTH 16 0
BBX 16 16 0 -2
BITMAP
0000
783c
3018
3018
3018
3018
3e18
3398
31d8
30d8
30d8
31d8
3398
7e3c
0000
0000
ENDCHAR
STARTCHAR U042C
ENCODING 1068
SWIDTH 960 0
DWIDTH 16 0
BBX 16 16 0 -2
BITMAP
0000
3c00
1800
1800
1800
1800
1fc0
1870
1838
1818
1818
1838
1870
3fc0
0000
0000
ENDCHAR
STARTCHAR U042D
ENCODING 1069
SWIDTH 960 0
DWIDTH 16 0
BBX 16 16 0 -2
BITMAP
0000
07c0
1c70
1838
3018
001c
0f34
19ec
000c
000c
3018
1838
1c70
07c0
0000
0000
ENDCHAR
STARTCHAR U042E
ENCODING 1070
SWIDTH 960 0
DWIDTH 16 0
BBX 16 16 0 -2
BITMAP
0000
78f0
3198
330c
330c
3606
3606
3e06
3606
3606
330c
330c
3198
78f0
0000
0000
ENDCHAR
STARTCHAR U042F
ENCODING 1071
SWIDTH 960 0
DWIDTH 16 0
BBX 16 16 0 -2
BITMAP
0000
07f8
1c30
3030
3030
3030
1c30
07f0
0330
0630
0c30
0c30
3830
e078
0000
0000
ENDCHAR
STARTCHAR U0430
ENCODING 1072
SWIDTH 960 0
DWIDTH 16 0
BBX 16 16 0 -2
BITMAP
0000
0000
0000
0000
0000
07c0
0c60
0060
07a0
0ce0
1860
18e0
19a8
0f38
0000
0000
ENDCHAR
STARTCHAR U0431
ENCODING 1073
SWIDTH 960 0
DWIDTH 16 0
BBX 16 16 0 -2
BITMAP
0000
0030
03e0
0600
0c00
0c00
1bc0
1c60
1830
1830
1830
1830
0c60
07c0
0000
0000
ENDCHAR
STARTCHAR U0432
ENCODING 1074
SWIDTH 960 0
DWIDTH 16 0
BBX 16 16 0 -2
BITMAP
0000
0000
0000
0000
0000
1fe0
0c30
0c30
0c60
0fe0
0c30
0c30
0c30
1fe0
0000
0000
ENDCHAR
STARTCHAR U0433
ENCODING 1075
SWIDTH 960 0
DWIDTH 16 0
BBX 16 16 0 -2
BITMAP
0000
0000
0000
0000
0000
1ff0
0c30
0c30
0c00
0c00
0c00
0c00
0c00
1e00
0000
0000
ENDCHAR
STARTCHAR U0434
ENCODING 1076
SWIDTH 960 0
DWIDTH 16 0
BBX 16 16 0 -2
BITMAP
0000
0000
0000
0000
0000
0ff0
0660
0660
0660
0660
0660
0c60
0c60
3ff8
3018
3018
ENDCHAR
STARTCHAR U0435
ENCODING 1077
SWIDTH 960 0
DWIDTH 16 0
BBX 16 16 0 -2
BITMAP
0000
0000
0000
0000
0000
0780
0cc0
1860
1860
1fe0
1800
1800
0c60
07c0
0000
0000
ENDCHAR
STARTCHAR U0436
ENCODING 1078
SWIDTH 960 0
DWIDTH 16 0
BBX 16 16 0 -2
BITMAP
0000
0000
0000
0000
0000
3bdc
1998
0db0
07e0
06a0
0db0
0db0
1998
33cc
0000
0000
ENDCHAR
STARTCHAR U0437
ENCODING 1079
SWIDTH 960 0
DWIDTH 16 0
BBX 16 16 0 -2
BITMAP
0000
0000
0000
0000
0000
07e0
0e30
0030
0060
03e0
0030
0030
0e30
07e0
0000
0000
ENDCHAR
STARTCHAR U0438
ENCODING 1080
SWIDTH 960 0
DWIDTH 16 0
BBX 16 16 0 -2
BITMAP
0000
0000
0000
0000
0000
1e3c
0c18
0c38
0c68
0cd8
0d98
0e18
0c18
1e3c
0000
0000
ENDCHAR
STARTCHAR U0439
ENCODING 1081
SWIDTH 960 0
DWIDTH 16 0
BBX 16 16 0 -2
BITMAP
0000
0000
0770
0630
03e0
1e3c
0c18
0c38
0c68
0cd8
0d98
0e18
0c18
1e3c
0000
0000
ENDCHAR
STARTCHAR U043A
ENCODING 1082
SWIDTH 960 0
DWIDTH 16 0
BBX 16 16 0 -2
BITMAP
0000
0000
0000
0000
0000
1e70
0cd0
0d80
0d00
0f00
0d80
0cc0
0c60
1e78
0000
0000
ENDCHAR
STARTCHAR U043B
ENCODING 1083
SWIDTH 960 0
DWIDTH 16 0
BBX 16 16 0 -2
BITMAP
0000
0000
0000
0000
0000
07f8
0330
0330
0330
0330
0330
3330
3630
1c78
0000
0000
ENDCHAR
STARTCHAR U043C
ENCODING 1084
SWIDTH 960 0
DWIDTH 16 0
BBX 16 16 0 -2
BITMAP
0000
0000
0000
0000
0000
3c3c
1c38
1a68
1a68
1b58
1b58
1998
1998
3c3c
0000
0000
ENDCHAR
STARTCHAR U043D
ENCODING 1085
SWIDTH 960 0
DWIDTH 16 0
BBX 16 16 0 -2
BITMAP
0000
0000
0000
0000
0000
1e78
0c30
0c30
0c30
0ff0
0c30
0c30
0c30
1e78
0000
0000
ENDCHAR
STARTCHAR U043E
ENCODING 1086
SWIDTH 960 0
DWIDTH 16 0
BBX 16 16 0 -2
BITMAP
0000
0000
0000
0000
0000
07c0
0c60
1830
1830
1830
1830
1830
0c60
07c0
0000
0000
ENDCHAR
STARTCHAR U043F
ENCODING 1087
SWIDTH 960 0
DWIDTH 16 0
BBX 16 16 0 -2
BITMAP
0000
0000
0000
0000
0000
3ff0
1860
1860
1860
1860
1860
1860
1860
3cf0
0000
0000
ENDCHAR
STARTCHAR U0440
ENCODING 1088
SWIDTH 960 0
DWIDTH 16 0
BBX 16 16 0 -2
BITMAP
0000
0000
0000
0000
0000
1dc0
0e60
0c30
0c30
0c30
0c30
0e60
0dc0
0c00
0c00
1e00
ENDCHAR
STARTCHAR U0441
ENCODING 1089
SWIDTH 960 0
DWIDTH 16 0
BBX 16 16 0 -2
BITMAP
0000
0000
0000
0000
0000
0780
0cc0
1860
1800
1800
1800
1860
0cc0
0780
0000
0000
ENDCHAR
STARTCHAR U0442
ENCODING 1090
SWIDTH 960 0
DWIDTH 16 0
BBX 16 16 0 -2
BITMAP
0000
0000
0000
0000
0000
3ff0
3330
3330
0300
0300
0300
0300
0300
0780
0000
0000
ENDCHAR
STARTCHAR U0443
ENCODING 1091
SWIDTH 960 0
DWIDTH 16 0
BBX 16 16 0 -2
BITMAP
0000
0000
0000
0000
0000
1e78
0c30
0c30
0660
0660
0340
0340
0180
0300
1b00
0e00
ENDCHAR
STARTCHAR U0444
ENCODING 1092
SWIDTH 960 0
DWIDTH 16 0
BBX 16 16 0 -2
BITMAP
0000
0380
0180
0180
0180
0180
0eb0
1bd8
318c
318c
318c
318c
1bd8
0eb0
0180
03c0
ENDCHAR
STARTCHAR U0445
ENCODING 1093
SWIDTH 960 0
DWIDTH 16 0
BBX 16 16 0 -2
BITMAP
0000
0000
0000
0000
0000
1e78
0c30
0660
0340
0180
0340
0660
0c30
1e78
0000
0000
ENDCHAR
STARTCHAR U0446
ENCODING 1094
SWIDTH 960 0
DWIDTH 16 0
BBX 16 16 0 -2
BITMAP
0000
0000
0000
0000
0000
3cf0
1860
1860
1860
1860
1860
1860
1860
3ff8
0018
0018
ENDCHAR
STARTCHAR U0447
ENCODING 1095
SWIDTH 960 0
DWIDTH 16 0
BBX 16 16 0 -2
BITMAP
0000
0000
0000
0000
0000
1e78
0c30
0c30
0c30
0c30
07f0
0030
0030
0078
0000
0000
ENDCHAR
STARTCHAR U0448
ENCODING 1096
SWIDTH 960 0
DWIDTH 16 0
BBX 16 16 0 -2
BITMAP
0000
0000
0000
0000
0000
7bde
318c
318c
318c
318c
318c
318c
318c
7ffe
0000
0000
ENDCHAR
STARTCHAR U0449
ENCODING 1097
SWIDTH 960 0
DWIDTH 16 0
BBX 16 16 0 -2
BITMAP
0000
0000
0000
0000
0000
7bde
318c
318c
318c
318c
318c
318c
318c
7fff
0003
0003
ENDCHAR
STARTCHAR U044A
ENCODING 1098
SWIDTH 960 0
DWIDTH 16 0
BBX 16 16 0 -2
BITMAP
0000
0000
0000
0000
0000
3f80
3300
3300
0300
03f0
031c
030c
031c
07f0
0000
0000
ENDCHAR
STARTCHAR U044B
ENCODING 1099
SWIDTH 960 0
DWIDTH 16 0
BBX 16 16 0 -2
BITMAP
0000
0000
0000
0000
0000
3c3c
1818
1818
1818
1f18
19d8
18d8
19d8
3f3c
0000
0000
ENDCHAR
STARTCHAR U044C
ENCODING 1100
SWIDTH 960 0
DWIDTH 16 0
BBX 16 16 0 -2
BITMAP
0000
0000
0000
0000
0000
0f00
0600
0600
0600
07e0
0638
0618
0638
0fe0
0000
0000
ENDCHAR
STARTCHAR U044D
ENCODING 1101
SWIDTH 960 0
DWIDTH 16 0
BBX 16 16 0 -2
BITMAP
0000
0000
0000
0000
0000
07c0
0c60
1830
0770
0dd0
0030
1830
0c60
07c0
0000
0000
ENDCHAR
STARTCHAR U044E
ENCODING 1102
SWIDTH 960 0
DWIDTH 16 0
BBX 16 16 0 -2
BITMAP
0000
0000
0000
0000
0000
3cf0
1998
1b0c
1b0c
1f0c
1b0c
1b0c
1998
3cf0
0000
0000
ENDCHAR
STARTCHAR U044F
ENCODING 1103
SWIDTH 960 0
DWIDTH 16 0
BBX 16 16 0 -2
BITMAP
0000
0000
0000
0000
0000
0ff0
1860
1860
1860
0fe0
0660
0c60
0c60
38f0
0000
0000
ENDCHAR
STARTCHAR U0451
ENCODING 1105
SWIDTH 960 0
DWIDTH 16 0
BBX 16 16 0 -2
BITMAP
0000
0000
0cc0
0cc0
0000
0780
0cc0
1860
1860
1fe0
1800
1800
0c60
07c0
0000
0000
ENDCHAR
STARTCHAR U2010
ENCODING 8208
SWIDTH 960 0
DWIDTH 16 0
BBX 16 16 0 -2
BITMAP
0000
0000
0000
0000
0000
0000
0000
0fe0
0000
0000
0000
0000
0000
0000
0000
0000
ENDCHAR
STARTCHAR U2015
ENCODING 8213
SWIDTH 960 0
DWIDTH 16 0
BBX 16 16 0 -2
BITMAP
0000
0000
0000
0000
0000
0000
0000
ffff
0000
0000
0000
0000
0000
0000
0000
0000
ENDCHAR
STARTCHAR U2018
ENCODING 8216
SWIDTH 960 0
DWIDTH 16 0
BBX 16 16 0 -2
BITMAP
0018
0030
0038
0038
0000
0000
0000
0000
0000
0000
0000
0000
0000
0000
0000
0000
ENDCHAR
STARTCHAR U2019
ENCODING 8217
SWIDTH 960 0
DWIDTH 16 0
BBX 16 16 0 -2
BITMAP
3800
3800
1800
3000
0000
0000
0000
0000
0000
0000
0000
0000
0000
0000
0000
0000
ENDCHAR
STARTCHAR U201C
ENCODING 8220
SWIDTH 960 0
DWIDTH 16 0
BBX 16 16 0 -2
BITMAP
006c
00d8
00ec
00ec
0000
0000
0000
0000
0000
0000
0000
0000
0000
0000
0000
0000
ENDCHAR
STARTCHAR U201D
ENCODING 8221
SWIDTH 960 0
DWIDTH 16 0
BBX 16 16 0 -2
BITMAP
7600
7600
3600
6c00
0000
0000
0000
0000
0000
0000
0000
0000
0000
0000
0000
0000
ENDCHAR
STARTCHAR U2020
ENCODING 8224
SWIDTH 960 0
DWIDTH 16 0
BBX 16 16 0 -2
BITMAP
0180
03c0
0db0
1ff8
0db0
0180
07e0
03c0
03c0
03c0
03c0
03c0
0180
0180
0180
0180
ENDCHAR
STARTCHAR U2021
ENCODING 8225
SWIDTH 960 0
DWIDTH 16 0
BBX 16 16 0 -2
BITMAP
0300
0780
1b60
3ff0
1b60
0780
0780
0300
0300
0780
0780
1b60
3ff0
1b60
0780
0300
ENDCHAR
STARTCHAR U2025
ENCODING 8229
SWIDTH 960 0
DWIDTH 16 0
BBX 16 16 0 -2
BITMAP
0000
0000
0000
0000
0000
0000
0000
3838
3838
0000
0000
0000
0000
0000
0000
0000
ENDCHAR
STARTCHAR U2026
ENCODING 8230
SWIDTH 960 0
DWIDTH 16 0
BBX 16 16 0 -2
BITMAP
0000
0000
0000
0000
0000
0000
0000
e38e
e38e
0000
0000
0000
0000
0000
0000
0000
ENDCHAR
STARTCHAR U2030
ENCODING 8240
SWIDTH 960 0
DWIDTH 16 0
BBX 16 16 0 -2
BITMAP
0000
0018
3830
7460
6c60
6cc0
6d80
6d00
3a00
0d9c
0f5a
1ad6
36d6
66d6
c39c
0000
ENDCHAR
STARTCHAR U2032
ENCODING 8242
SWIDTH 960 0
DWIDTH 16 0
BBX 16 16 0 -2
BITMAP
0000
1800
3800
7000
6000
0000
0000
0000
0000
0000
0000
0000
0000
0000
0000
0000
ENDCHAR
STARTCHAR U2033
ENCODING 8243
SWIDTH 960 0
DWIDTH 16 0
BBX 16 16 0 -2
BITMAP
0000
3300
7700
ee00
cc00
0000
0000
0000
0000
0000
0000
0000
0000
0000
0000
0000
ENDCHAR
STARTCHAR U203B
ENCODING 8251
SWIDTH 960 0
DWIDTH 16 0
BBX 16 16 0 -2
BITMAP
0000
0000
638c
3398
1830
0c60
06c0
739c
739c
06c0
0c60
1830
3398
638c
0000
0000
ENDCHAR
STARTCHAR U203E
ENCODING 8254
SWIDTH 480 0
DWIDTH 8 0
BBX 8 16 0 -2
BITMAP
ff
00
00
00
00
00
00
00
00
00
00
00
00
00
00
00
ENDCHAR
STARTCHAR U2103
ENCODING 8451
SWIDTH 960 0
DWIDTH 16 0
BBX 16 16 0 -2
BITMAP
0000
70f6
db9a
da0e
7606
0c06
0c00
0c00
0c00
0c00
0606
060c
03b8
00e0
0000
0000
ENDCHAR
STARTCHAR U212B
ENCODING 8491
SWIDTH 960 0
DWIDTH 16 0
BBX 16 16 0 -2
BITMAP
01c0
0360
0360
01c0
0180
0180
0340
0340
0660
0660
07e0
0c30
0c30
1e78
0000
0000
ENDCHAR
STARTCHAR U2190
ENCODING 8592
SWIDTH 960 0
DWIDTH 16 0
BBX 16 16 0 -2
BITMAP
0000
0000
0000
0000
0c00
1800
7000
ffff
7000
1800
0c00
0000
0000
0000
0000
0000
ENDCHAR
STARTCHAR U2191
ENCODING 8593
SWIDTH 960 0
DWIDTH 16 0
BBX 16 16 0 -2
BITMAP
0300
0300
0780
0780
0d40
1b60
0300
0300
0300
0300
0300
0300
0300
0300
0300
0300
ENDCHAR
STARTCHAR U2192
ENCODING 8594
SWIDTH 960 0
DWIDTH 16 0
BBX 16 16 0 -2
BITMAP
0000
0000
0000
0000
0060
0030
001c
ffff
001c
0030
0060
0000
0000
0000
0000
0000
ENDCHAR
STARTCHAR U2193
ENCODING 8595
SWIDTH 960 0
DWIDTH 16 0
BBX 16 16 0 -2
BITMAP
0300
0300
0300
0300
0300
0300
0300
0300
0300
0300
1b60
0d40
0780
0780
0300
0300
ENDCHAR
STARTCHAR U21D2
ENCODING 8658
SWIDTH 960 0
DWIDTH 16 0
BBX 16 16 0 -2
BITMAP
0000
0000
0000
0030
0018
fffc
0006
0003
0006
fffc
0018
0030
0000
0000
0000
0000
ENDCHAR
STARTCHAR U21D4
ENCODING 8660
SWIDTH 960 0
DWIDTH 16 0
BBX 16 16 0 -2
BITMAP
0000
0000
0000
1830
3018
7ffc
c006
8003
c006
7ffc
3018
1830
0000
0000
0000
0000
ENDCHAR
STARTCHAR U2200
ENCODING 8704
SWIDTH 960 0
DWIDTH 16 0
BBX 16 16 0 -2
BITMAP
0000
6006
6006
300c
300c
1ff8
1818
0c30
0c30
0660
0660
0340
0340
0180
0180
0000
ENDCHAR
STARTCHAR U2202
ENCODING 8706
SWIDTH 960 0
DWIDTH 16 0
BBX 16 16 0 -2
BITMAP
0000
01c0
0760
0c30
0030
0030
07b0
0ce0
1ce0
18e0
38c0
39c0
1b80
0e00
0000
0000
ENDCHAR
STARTCHAR U2203
ENCODING 8707
SWIDTH 960 0
DWIDTH 16 0
BBX 16 16 0 -2
BITMAP
0000
0000
3ff0
0030
0030
0030
0030
3ff0
0030
0030
0030
0030
3ff0
0000
0000
0000
ENDCHAR
STARTCHAR U2207
ENCODING 8711
SWIDTH 960 0
DWIDTH 16 0
BBX 16 16 0 -2
BITMAP
0000
fffe
600c
700c
3018
3818
1830
1c30
0c60
0e60
06c0
0740
0380
0180
0000
0000
ENDCHAR
STARTCHAR U2208
ENCODING 8712
SWIDTH 960 0
DWIDTH 16 0
BBX 16 16 0 -2
BITMAP
0000
0000
0000
0ff8
1800
3000
3000
3ff8
3000
3000
1800
0ff8
0000
0000
0000
0000
ENDCHAR
STARTCHAR U220B
ENCODING 8715
SWIDTH 960 0
DWIDTH 16 0
BBX 16 16 0 -2
BITMAP
0000
0000
0000
3fe0
0030
0018
0018
3ff8
0018
0018
0030
3fe0
0000
0000
0000
0000
ENDCHAR
STARTCHAR U221A
ENCODING 8730
SWIDTH 960 0
DWIDTH 16 0
BBX 16 16 0 -2
BITMAP
01ff
0180
0180
0300
0300
0300
0300
0600
0600
6600
6600
7400
d400
dc00
1800
1800
ENDCHAR
STARTCHAR U221D
ENCODING 8733
SWIDTH 960 0
DWIDTH 16 0
BBX 16 16 0 -2
BITMAP
0000
0000
0000
0000
3c78
66cc
c380
c380
c380
c380
66cc
3c78
0000
0000
0000
0000
ENDCHAR
STARTCHAR U221E
ENCODING 8734
SWIDTH 960 0
DWIDTH 16 0
BBX 16 16 0 -2
BITMAP
0000
0000
0000
0000
3c38
6eec
c6c6
c386
c386
c6c6
6eec
3878
0000
0000
0000
0000
ENDCHAR
STARTCHAR U2220
ENCODING 8736
SWIDTH 960 0
DWIDTH 16 0
BBX 16 16 0 -2
BITMAP
0000
0000
0018
0030
0060
00c0
0180
0300
0600
0c00
1800
3000
7ffc
0000
0000
0000
ENDCHAR
STARTCHAR U2225
ENCODING 8741
SWIDTH 960 0
DWIDTH 16 0
BBX 16 16 0 -2
BITMAP
0cc0
0cc0
0cc0
0cc0
0cc0
0cc0
0cc0
0cc0
0cc0
0cc0
0cc0
0cc0
0cc0
0cc0
0cc0
0cc0
ENDCHAR
STARTCHAR U2227
ENCODING 8743
SWIDTH 960 0
DWIDTH 16 0
BBX 16 16 0 -2
BITMAP
0000
0000
0180
0180
0340
0340
0660
0660
0c30
0c30
1818
1818
300c
300c
0000
0000
ENDCHAR
STARTCHAR U2228
ENCODING 8744
SWIDTH 960 0
DWIDTH 16 0
BBX 16 16 0 -2
BITMAP
0000
0000
300c
300c
1818
1818
0c30
0c30
0660
0660
0340
0340
0180
0180
0000
0000
ENDCHAR
STARTCHAR U2229
ENCODING 8745
SWIDTH 960 0
DWIDTH 16 0
BBX 16 16 0 -2
BITMAP
0000
0000
07c0
0c60
1830
1830
3018
3018
3018
3018
3018
3018
3018
3018
0000
0000
ENDCHAR
STARTCHAR U222A
ENCODING 8746
SWIDTH 960 0
DWIDTH 16 0
BBX 16 16 0 -2
BITMAP
0000
0000
3018
3018
3018
3018
3018
3018
3018
3018
1830
1830
0c60
07c0
0000
0000
ENDCHAR
STARTCHAR U222B
ENCODING 8747
SWIDTH 960 0
DWIDTH 16 0
BBX 16 16 0 -2
BITMAP
03c0
06c0
0600
0600
0700
0700
0300
0380
0380
0180
01c0
01c0
00c0
00c0
06c0
0780
ENDCHAR
STARTCHAR U222C
ENCODING 8748
SWIDTH 960 0
DWIDTH 16 0
BBX 16 16 0 -2
BITMAP
1e78
36d8
30c0
30c0
38e0
38e0
1860
1c70
1c70
0c30
0e38
0e38
0618
0618
36d8
3cf0
ENDCHAR
STARTCHAR U2234
ENCODING 8756
SWIDTH 960 0
DWIDTH 16 0
BBX 16 16 0 -2
BITMAP
0000
0000
0000
0380
0380
0000
0000
0000
0000
0000
0000
701c
701c
0000
0000
0000
ENDCHAR
STARTCHAR U2235
ENCODING 8757
SWIDTH 960 0
DWIDTH 16 0
BBX 16 16 0 -2
BITMAP
0000
0000
0000
701c
701c
0000
0000
0000
0000
0000
0000
0380
0380
0000
0000
0000
ENDCHAR
STARTCHAR U223D
ENCODING 8765
SWIDTH 960 0
DWIDTH 16 0
BBX 16 16 0 -2
BITMAP
0000
0000
0000
0000
3c78
60cc
c186
c186
c306
c306
660c
3c78
0000
0000
0000
0000
ENDCHAR
STARTCHAR U2252
ENCODING 8786
SWIDTH 960 0
DWIDTH 16 0
BBX 16 16 0 -2
BITMAP
0000
0000
3800
3800
0000
7ffc
0000
0000
0000
7ffc
0000
0038
0038
0000
0000
0000
ENDCHAR
STARTCHAR U2260
ENCODING 8800
SWIDTH 960 0
DWIDTH 16 0
BBX 16 16 0 -2
BITMAP
0000
0000
00c0
00c0
0180
7ffc
0180
0300
0300
7ffc
0300
0600
0600
0000
0000
0000
ENDCHAR
STARTCHAR U2261
ENCODING 8801
SWIDTH 960 0
DWIDTH 16 0
BBX 16 16 0 -2
BITMAP
0000
0000
0000
7ffc
0000
0000
0000
7ffc
0000
0000
0000
7ffc
0000
0000
0000
0000
ENDCHAR
STARTCHAR U2266
ENCODING 8806
SWIDTH 960 0
DWIDTH 16 0
BBX 16 16 0 -2
BITMAP
0000
0000
003c
01e0
0f00
7800
0f00
01e0
003c
0000
7ffc
0000
0000
7ffc
0000
0000
ENDCHAR
STARTCHAR U2267
ENCODING 8807
SWIDTH 960 0
DWIDTH 16 0
BBX 16 16 0 -2
BITMAP
0000
0000
7800
0f00
01e0
003c
01e0
0f00
7800
0000
7ffc
0000
0000
7ffc
0000
0000
ENDCHAR
STARTCHAR U226A
ENCODING 8810
SWIDTH 960 0
DWIDTH 16 0
BBX 16 16 0 -2
BITMAP
0000
0198
0330
0660
0cc0
1980
3300
6600
3300
1980
0cc0
0660
0330
0198
00cc
0000
ENDCHAR
STARTCHAR U226B
ENCODING 8811
SWIDTH 960 0
DWIDTH 16 0
BBX 16 16 0 -2
BITMAP
0000
3300
1980
0cc0
0660
0330
0198
00cc
0198
0330
0660
0cc0
1980
3300
6600
0000
ENDCHAR
STARTCHAR U2282
ENCODING 8834
SWIDTH 960 0
DWIDTH 16 0
BBX 16 16 0 -2
BITMAP
0000
0000
0000
07fc
1c00
3000
6000
6000
6000
6000
3000
1c00
07fc
0000
0000
0000
ENDCHAR
STARTCHAR U2283
ENCODING 8835
SWIDTH 960 0
DWIDTH 16 0
BBX 16 16 0 -2
BITMAP
0000
0000
0000
7fc0
0070
0018
000c
000c
000c
000c
0018
0070
7fc0
0000
0000
0000
ENDCHAR
STARTCHAR U2286
ENCODING 8838
SWIDTH 960 0
DWIDTH 16 0
BBX 16 16 0 -2
BITMAP
0000
0000
1ffc
3000
6000
6000
6000
6000
3000
1ffc
0000
0000
7ffc
0000
0000
0000
ENDCHAR
STARTCHAR U2287
ENCODING 8839
SWIDTH 960 0
DWIDTH 16 0
BBX 16 16 0 -2
BITMAP
0000
0000
7ff0
0018
000c
000c
000c
000c
0018
7ff0
0000
0000
7ffc
0000
0000
0000
ENDCHAR
STARTCHAR U22A5
ENCODING 8869
SWIDTH 960 0
DWIDTH 16 0
BBX 16 16 0 -2
BITMAP
0000
0000
0300
0300
0300
0300
0300
0300
0300
0300
0300
0300
7ffc
0000
0000
0000
ENDCHAR
STARTCHAR U2312
ENCODING 8978
SWIDTH 960 0
DWIDTH 16 0
BBX 16 16 0 -2
BITMAP
0fe0
783c
c006
0000
0000
0000
0000
0000
0000
0000
0000
0000
0000
0000
0000
0000
ENDCHAR
STARTCHAR U2500
ENCODING 9472
SWIDTH 960 0
DWIDTH 16 0
BBX 16 16 0 -2
BITMAP
0000
0000
0000
0000
0000
0000
0000
ffff
0000
0000
0000
0000
0000
0000
0000
0000
ENDCHAR
STARTCHAR U2501
ENCODING 9473
SWIDTH 960 0
DWIDTH 16 0
BBX 16 16 0 -2
BITMAP
0000
0000
0000
0000
0000
0000
0000
ffff
ffff
0000
0000
0000
0000
0000
0000
0000
ENDCHAR
STARTCHAR U2502
ENCODING 9474
SWIDTH 960 0
DWIDTH 16 0
BBX 16 16 0 -2
BITMAP
0300
0300
0300
0300
0300
0300
0300
0300
0300
0300
0300
0300
0300
0300
0300
0300
ENDCHAR
STARTCHAR U2503
ENCODING 9475
SWIDTH 960 0
DWIDTH 16 0
BBX 16 16 0 -2
BITMAP
0380
0380
0380
0380
0380
0380
0380
0380
0380
0380
0380
0380
0380
0380
0380
0380
ENDCHAR
STARTCHAR U250C
ENCODING 9484
SWIDTH 960 0
DWIDTH 16 0
BBX 16 16 0 -2
BITMAP
0000
0000
0000
0000
0000
0000
0000
03ff
0300
0300
0300
0300
0300
0300
0300
0300
ENDCHAR
STARTCHAR U250F
ENCODING 9487
SWIDTH 960 0
DWIDTH 16 0
BBX 16 16 0 -2
BITMAP
0000
0000
0000
0000
0000
0000
0000
03ff
03ff
0380
0380
0380
0380
0380
0380
0380
ENDCHAR
STARTCHAR U2510
ENCODING 9488
SWIDTH 960 0
DWIDTH 16 0
BBX 16 16 0 -2
BITMAP
0000
0000
0000
0000
0000
0000
0000
ff00
0300
0300
0300
0300
0300
0300
0300
0300
ENDCHAR
STARTCHAR U2513
ENCODING 9491
SWIDTH 960 0
DWIDTH 16 0
BBX 16 16 0 -2
BITMAP
0000
0000
0000
0000
0000
0000
0000
ff80
ff80
0380
0380
0380
0380
0380
0380
0380
ENDCHAR
STARTCHAR U2514
ENCODING 9492
SWIDTH 960 0
DWIDTH 16 0
BBX 16 16 0 -2
BITMAP
0300
0300
0300
0300
0300
0300
0300
03ff
0000
0000
0000
0000
0000
0000
0000
0000
ENDCHAR
STARTCHAR U2517
ENCODING 9495
SWIDTH 960 0
DWIDTH 16 0
BBX 16 16 0 -2
BITMAP
0380
0380
0380
0380
0380
0380
0380
03ff
03ff
0000
0000
0000
0000
0000
0000
0000
ENDCHAR
STARTCHAR U2518
ENCODING 9496
SWIDTH 960 0
DWIDTH 16 0
BBX 16 16 0 -2
BITMAP
0300
0300
0300
0300
0300
0300
0300
ff00
0000
0000
0000
0000
0000
0000
0000
0000
ENDCHAR
STARTCHAR U251B
ENCODING 9499
SWIDTH 960 0
DWIDTH 16 0
BBX 16 16 0 -2
BITMAP
0380
0380
0380
0380
0380
0380
0380
ff80
ff80
0000
0000
0000
0000
0000
0000
0000
ENDCHAR
STARTCHAR U251C
ENCODING 9500
SWIDTH 960 0
DWIDTH 16 0
BBX 16 16 0 -2
BITMAP
0300
0300
0300
0300
0300
0300
0300
03ff
0300
0300
0300
0300
0300
0300
0300
0300
ENDCHAR
STARTCHAR U251D
ENCODING 9501
SWIDTH 960 0
DWIDTH 16 0
BBX 16 16 0 -2
BITMAP
0300
0300
0300
0300
0300
0300
0300
03ff
03ff
0300
0300
0300
0300
0300
0300
0300
ENDCHAR
STARTCHAR U2520
ENCODING 9504
SWIDTH 960 0
DWIDTH 16 0
BBX 16 16 0 -2
BITMAP
0380
0380
0380
0380
0380
0380
0380
03ff
0380
0380
0380
0380
0380
0380
0380
0380
ENDCHAR
STARTCHAR U2523
ENCODING 9507
SWIDTH 960 0
DWIDTH 16 0
BBX 16 16 0 -2
BITMAP
0380
0380
0380
0380
0380
0380
0380
03ff
03ff
0380
0380
0380
0380
0380
0380
0380
ENDCHAR
STARTCHAR U2524
ENCODING 9508
SWIDTH 960 0
DWIDTH 16 0
BBX 16 16 0 -2
BITMAP
0300
0300
0300
0300
0300
0300
0300
ff00
0300
0300
0300
0300
0300
0300
0300
0300
ENDCHAR
STARTCHAR U2525
ENCODING 9509
SWIDTH 960 0
DWIDTH 16 0
BBX 16 16 0 -2
BITMAP
0300
0300
0300
0300
0300
0300
0300
ff00
ff00
0300
0300
0300
0300
0300
0300
0300
ENDCHAR
STARTCHAR U2528
ENCODING 9512
SWIDTH 960 0
DWIDTH 16 0
BBX 16 16 0 -2
BITMAP
0380
0380
0380
0380
0380
0380
0380
ff80
0380
0380
0380
0380
0380
0380
0380
0380
ENDCHAR
STARTCHAR U252B
ENCODING 9515
SWIDTH 960 0
DWIDTH 16 0
BBX 16 16 0 -2
BITMAP
0380
0380
0380
0380
0380
0380
0380
ff80
ff80
0380
0380
0380
0380
0380
0380
0380
ENDCHAR
STARTCHAR U252C
ENCODING 9516
SWIDTH 960 0
DWIDTH 16 0
BBX 16 16 0 -2
BITMAP
0000
0000
0000
0000
0000
0000
0000
ffff
0300
0300
0300
0300
0300
0300
0300
0300
ENDCHAR
STARTCHAR U252F
ENCODING 9519
SWIDTH 960 0
DWIDTH 16 0
BBX 16 16 0 -2
BITMAP
0000
0000
0000
0000
0000
0000
0000
ffff
ffff
0300
0300
0300
0300
0300
0300
0300
ENDCHAR
STARTCHAR U2530
ENCODING 9520
SWIDTH 960 0
DWIDTH 16 0
BBX 16 16 0 -2
BITMAP
0000
0000
0000
0000
0000
0000
0000
ffff
0380
0380
0380
0380
0380
0380
0380
0380
ENDCHAR
STARTCHAR U2533
ENCODING 9523
SWIDTH 960 0
DWIDTH 16 0
BBX 16 16 0 -2
BITMAP
0000
0000
0000
0000
0000
0000
0000
ffff
ffff
0380
0380
0380
0380
0380
0380
0380
ENDCHAR
STARTCHAR U2534
ENCODING 9524
SWIDTH 960 0
DWIDTH 16 0
BBX 16 16 0 -2
BITMAP
0300
0300
0300
0300
0300
0300
0300
ffff
0000
0000
0000
0000
0000
0000
0000
0000
ENDCHAR
STARTCHAR U2537
ENCODING 9527
SWIDTH 960 0
DWIDTH 16 0
BBX 16 16 0 -2
BITMAP
0300
0300
0300
0300
0300
0300
0300
ffff
ffff
0000
0000
0000
0000
0000
0000
0000
ENDCHAR
STARTCHAR U2538
ENCODING 9528
SWIDTH 960 0
DWIDTH 16 0
BBX 16 16 0 -2
BITMAP
0380
0380
0380
0380
0380
0380
0380
ffff
0000
0000
0000
0000
0000
0000
0000
0000
ENDCHAR
STARTCHAR U253B
ENCODING 9531
SWIDTH 960 0
DWIDTH 16 0
BBX 16 16 0 -2
BITMAP
0380
0380
0380
0380
0380
0380
0380
ffff
ffff
0000
0000
0000
0000
0000
0000
0000
ENDCHAR
STARTCHAR U253C
ENCODING 9532
SWIDTH 960 0
DWIDTH 16 0
BBX 16 16 0 -2
BITMAP
0300
0300
0300
0300
0300
0300
0300
ffff
0300
0300
0300
0300
0300
0300
0300
0300
ENDCHAR
STARTCHAR U253F
ENCODING 9535
SWIDTH 960 0
DWIDTH 16 0
BBX 16 16 0 -2
BITMAP
0300
0300
0300
0300
0300
0300
0300
ffff
ffff
0300
0300
0300
0300
0300
0300
0300
ENDCHAR
STARTCHAR U2542
ENCODING 9538
SWIDTH 960 0
DWIDTH 16 0
BBX 16 16 0 -2
BITMAP
0380
0380
0380
0380
0380
0380
0380
ffff
0380
0380
0380
0380
0380
0380
0380
0380
ENDCHAR
STARTCHAR U254B
ENCODING 9547
SWIDTH 960 0
DWIDTH 16 0
BBX 16 16 0 -2
BITMAP
0380
0380
0380
0380
0380
0380
0380
ffff
ffff
0380
0380
0380
0380
0380
0380
0380
ENDCHAR
STARTCHAR U25A0
ENCODING 9632
SWIDTH 960 0
DWIDTH 16 0
BBX 16 16 0 -2
BITMAP
0000
fffe
fffe
fffe
fffe
fffe
fffe
fffe
fffe
fffe
fffe
fffe
fffe
fffe
fffe
0000
ENDCHAR
STARTCHAR U25A1
ENCODING 9633
SWIDTH 960 0
DWIDTH 16 0
BBX 16 16 0 -2
BITMAP
0000
fffe
c006
c006
c006
c006
c006
c006
c006
c006
c006
c006
c006
c006
fffe
0000
ENDCHAR
STARTCHAR U25B2
ENCODING 9650
SWIDTH 960 0
DWIDTH 16 0
BBX 16 16 0 -2
BITMAP
0000
0300
0300
0780
0780
0fc0
0fe0
1fe0
1ff0
3ff0
3ff8
7ffc
7ffc
fffe
0000
0000
ENDCHAR
STARTCHAR U25B3
ENCODING 9651
SWIDTH 960 0
DWIDTH 16 0
BBX 16 16 0 -2
BITMAP
0000
0300
0300
0680
0680
0cc0
0cc0
1860
1830
3030
3018
6018
600c
fffe
0000
0000
ENDCHAR
STARTCHAR U25BC
ENCODING 9660
SWIDTH 960 0
DWIDTH 16 0
BBX 16 16 0 -2
BITMAP
0000
0000
fffe
7ffc
7ffc
3ff8
3ff0
1ff0
1fe0
0fe0
0fc0
0780
0780
0300
0300
0000
ENDCHAR
STARTCHAR U25BD
ENCODING 9661
SWIDTH 960 0
DWIDTH 16 0
BBX 16 16 0 -2
BITMAP
0000
0000
fffe
600c
6018
3018
3030
1830
1860
0cc0
0cc0
0680
0680
0300
0300
0000
ENDCHAR
STARTCHAR U25C6
ENCODING 9670
SWIDTH 960 0
DWIDTH 16 0
BBX 16 16 0 -2
BITMAP
0380
07c0
0fe0
1ff0
3ff8
7ffc
fffe
ffff
ffff
fffe
7ffc
3ff8
1ff0
0fe0
07c0
0380
ENDCHAR
STARTCHAR U25C7
ENCODING 9671
SWIDTH 960 0
DWIDTH 16 0
BBX 16 16 0 -2
BITMAP
0380
06c0
0c60
1830
3018
600c
c006
8003
8003
c006
600c
3018
1830
0c60
06c0
0380
ENDCHAR
STARTCHAR U25CB
ENCODING 9675
SWIDTH 960 0
DWIDTH 16 0
BBX 16 16 0 -2
BITMAP
0000
07c0
1c70
3018
600c
600c
c006
c006
c006
c006
600c
600c
3018
1c70
07c0
0000
ENDCHAR
STARTCHAR U25CE
ENCODING 9678
SWIDTH 960 0
DWIDTH 16 0
BBX 16 16 0 -2
BITMAP
0000
07c0
1c70
3018
67cc
6c6c
d836
d836
d836
d836
6c6c
67cc
3018
1c70
07c0
0000
ENDCHAR
STARTCHAR U25CF
ENCODING 9679
SWIDTH 960 0
DWIDTH 16 0
BBX 16 16 0 -2
BITMAP
0000
07c0
1ff0
3ff8
7ffc
7ffc
fffe
fffe
fffe
fffe
7ffc
7ffc
3ff8
1ff0
07c0
0000
ENDCHAR
STARTCHAR U25EF
ENCODING 9711
SWIDTH 960 0
DWIDTH 16 0
BBX 16 16 0 -2
BITMAP
07c0
1c70
3018
600c
c006
c006
8003
8003
8003
8003
c006
c006
600c
3018
1c70
07c0
ENDCHAR
STARTCHAR U2605
ENCODING 9733
SWIDTH 960 0
DWIDTH 16 0
BBX 16 16 0 -2
BITMAP
0000
0300
0300
0780
0780
0fc0
fffc
7ff8
3ff0
1fe0
1fe0
3ef0
3cf0
7878
6018
0000
ENDCHAR
STARTCHAR U2606
ENCODING 9734
SWIDTH 960 0
DWIDTH 16 0
BBX 16 16 0 -2
BITMAP
0000
0300
0300
0680
0680
0cc0
fcfc
6018
3030
1860
1860
3330
36b0
6ce8
7038
0000
ENDCHAR
STARTCHAR U2640
ENCODING 9792
SWIDTH 960 0
DWIDTH 16 0
BBX 16 16 0 -2
BITMAP
0000
07c0
0c60
1830
1830
1830
1830
0c60
07c0
0300
3ff8
0300
0300
0300
0300
0300
ENDCHAR
STARTCHAR U2642
ENCODING 9794
SWIDTH 960 0
DWIDTH 16 0
BBX 16 16 0 -2
BITMAP
0000
01fe
000e
001a
0036
0066
00c6
3e86
6300
c180
c180
c180
c180
6300
3e00
0000
ENDCHAR
STARTCHAR U266A
ENCODING 9834
SWIDTH 960 0
DWIDTH 16 0
BBX 16 16 0 -2
BITMAP
0180
0180
01c0
01e0
01b0
01b8
019c
018c
018c
0198
01b0
0180
1f80
3f80
3f00
1e00
ENDCHAR
STARTCHAR U266D
ENCODING 9837
SWIDTH 960 0
DWIDTH 16 0
BBX 16 16 0 -2
BITMAP
0c00
0c00
0c00
0c00
0c00
0c00
0c00
0de0
0e70
0c70
0c70
0ce0
0dc0
0d00
0e00
0c00
ENDCHAR
STARTCHAR U266F
ENCODING 9839
SWIDTH 960 0
DWIDTH 16 0
BBX 16 16 0 -2
BITMAP
0060
0c60
0c60
0c7c
0ffc
7fe0
7c60
0c60
0c60
0c7c
0ffc
7fe0
7c60
0c60
0c60
0c00
ENDCHAR
STARTCHAR U3000
ENCODING 12288
SWIDTH 960 0
DWIDTH 16 0
BBX 16 16 0 -2
BITMAP
0000
0000
0000
0000
0000
0000
0000
0000
0000
0000
0000
0000
0000
0000
0000
0000
ENDCHAR
STARTCHAR U3001
ENCODING 12289
SWIDTH 960 0
DWIDTH 16 0
BBX 16 16 0 -2
BITMAP
0000
0000
0000
0000
0000
0000
0000
0000
0000
0000
0000
0000
6000
3000
1800
1800
ENDCHAR
STARTCHAR U3002
ENCODING 12290
SWIDTH 960 0
DWIDTH 16 0
BBX 16 16 0 -2
BITMAP
0000
0000
0000
0000
0000
0000
0000
0000
0000
0000
0000
7000
d800
d800
7000
0000
ENDCHAR
STARTCHAR U3003
ENCODING 12291
SWIDTH 960 0
DWIDTH 16 0
BBX 16 16 0 -2
BITMAP
0000
0000
0000
0000
0330
0330
0330
0660
0660
0cc0
1980
0000
0000
0000
0000
0000
ENDCHAR
STARTCHAR U3005
ENCODING 12293
SWIDTH 960 0
DWIDTH 16 0
BBX 16 16 0 -2
BITMAP
0000
0300
0300
0300
03f8
0318
0618
0630
0c30
1ba0
30e0
0030
0018
0018
0000
0000
ENDCHAR
STARTCHAR U3006
ENCODING 12294
SWIDTH 960 0
DWIDTH 16 0
BBX 16 16 0 -2
BITMAP
0000
0006
0006
000c
0018
03b0
06e0
0cc0
0da0
1b00
1a00
1c00
1800
3000
3000
0000
ENDCHAR
STARTCHAR U3007
ENCODING 12295
SWIDTH 960 0
DWIDTH 16 0
BBX 16 16 0 -2
BITMAP
0000
07c0
1c70
3018
600c
600c
c006
c006
c006
c006
600c
600c
3018
1c70
07c0
0000
ENDCHAR
STARTCHAR U3008
ENCODING 12296
SWIDTH 960 0
DWIDTH 16 0
BBX 16 16 0 -2
BITMAP
0018
0018
0030
0030
0060
0060
00c0
0180
0180
00c0
0060
0060
0030
0030
0018
0018
ENDCHAR
STARTCHAR U3009
ENCODING 12297
SWIDTH 960 0
DWIDTH 16 0
BBX 16 16 0 -2
BITMAP
3000
3000
1800
1800
0c00
0c00
0600
0300
0300
0600
0c00
0c00
1800
1800
3000
3000
ENDCHAR
STARTCHAR U300A
ENCODING 12298
SWIDTH 960 0
DWIDTH 16 0
BBX 16 16 0 -2
BITMAP
006c
006c
00d8
00d8
01b0
01b0
0360
06c0
06c0
0360
01b0
01b0
00d8
00d8
006c
006c
ENDCHAR
STARTCHAR U300B
ENCODING 12299
SWIDTH 960 0
DWIDTH 16 0
BBX 16 16 0 -2
BITMAP
6c00
6c00
3600
3600
1b00
1b00
0d80
06c0
06c0
0d80
1b00
1b00
3600
3600
6c00
6c00
ENDCHAR
STARTCHAR U300C
ENCODING 12300
SWIDTH 960 0
DWIDTH 16 0
BBX 16 16 0 -2
BITMAP
01f8
0180
0180
0180
0180
0180
0180
0180
0180
0180
0180
0000
0000
0000
0000
0000
ENDCHAR
STARTCHAR U300D
ENCODING 12301
SWIDTH 960 0
DWIDTH 16 0
BBX 16 16 0 -2
BITMAP
0000
0000
0000
0000
0000
0300
0300
0300
0300
0300
0300
0300
0300
0300
0300
3f00
ENDCHAR
STARTCHAR U300E
ENCODING 12302
SWIDTH 960 0
DWIDTH 16 0
BBX 16 16 0 -2
BITMAP
03f8
0318
0378
0340
0340
0340
0340
0340
0340
0340
03c0
0000
0000
0000
0000
0000
ENDCHAR
STARTCHAR U300F
ENCODING 12303
SWIDTH 960 0
DWIDTH 16 0
BBX 16 16 0 -2
BITMAP
0000
0000
0000
0000
0000
0780
0680
0680
0680
0680
0680
0680
0680
3e80
3180
3f80
ENDCHAR
STARTCHAR U3010
ENCODING 12304
SWIDTH 960 0
DWIDTH 16 0
BBX 16 16 0 -2
BITMAP
01f8
01f0
01e0
01c0
01c0
0180
0180
0180
0180
0180
0180
01c0
01c0
01e0
01f0
01f8
ENDCHAR
STARTCHAR U3011
ENCODING 12305
SWIDTH 960 0
DWIDTH 16 0
BBX 16 16 0 -2
BITMAP
3f00
1f00
0f00
0700
0700
0300
0300
0300
0300
0300
0300
0700
0700
0f00
1f00
3f00
ENDCHAR
STARTCHAR U3012
ENCODING 12306
SWIDTH 960 0
DWIDTH 16 0
BBX 16 16 0 -2
BITMAP
0000
7ffc
7ffc
0000
0000
fffe
fffe
0380
0380
0380
0380
0380
0380
0380
0380
0000
ENDCHAR
STARTCHAR U3013
ENCODING 12307
SWIDTH 960 0
DWIDTH 16 0
BBX 16 16 0 -2
BITMAP
0000
0000
0000
7ffe
7ffe
7ffe
0000
0000
0000
0000
7ffe
7ffe
7ffe
0000
0000
0000
ENDCHAR
STARTCHAR U3014
ENCODING 12308
SWIDTH 960 0
DWIDTH 16 0
BBX 16 16 0 -2
BITMAP
0018
0070
01c0
0180
0180
0180
0180
0180
0180
0180
0180
0180
0180
01c0
0070
0018
ENDCHAR
STARTCHAR U3015
ENCODING 12309
SWIDTH 960 0
DWIDTH 16 0
BBX 16 16 0 -2
BITMAP
3000
1c00
0700
0300
0300
0300
0300
0300
0300
0300
0300
0300
0300
0700
1c00
3000
ENDCHAR
STARTCHAR U301C
ENCODING 12316
SWIDTH 960 0
DWIDTH 16 0
BBX 16 16 0 -2
BITMAP
0000
0000
0000
0000
0000
0000
3c00
6706
c1cc
0078
0000
0000
0000
0000
0000
0000
ENDCHAR
STARTCHAR U3041
ENCODING 12353
SWIDTH 960 0
DWIDTH 16 0
BBX 16 16 0 -2
BITMAP
0000
0000
0000
0600
06c0
1f00
06c0
07e0
0ed0
1a98
3698
3718
3630
1c60
01c0
0000
ENDCHAR
STARTCHAR U3042
ENCODING 12354
SWIDTH 960 0
DWIDTH 16 0
BBX 16 16 0 -2
BITMAP
0600
0600
06e0
3f80
0600
06c0
07f0
0cd8
1ccc
3586
6d86
6706
6d0c
3838
00e0
0000
ENDCHAR
STARTCHAR U3043
ENCODING 12355
SWIDTH 960 0
DWIDTH 16 0
BBX 16 16 0 -2
BITMAP
0000
0000
0000
0000
0000
0000
0c00
0c30
1818
1818
180c
180c
1b0c
0d00
0600
0000
ENDCHAR
STARTCHAR U3044
ENCODING 12356
SWIDTH 960 0
DWIDTH 16 0
BBX 16 16 0 -2
BITMAP
0000
0000
0000
3000
3030
3018
600c
600c
6006
6006
6006
3606
3600
1c00
0000
0000
ENDCHAR
STARTCHAR U3045
ENCODING 12357
SWIDTH 960 0
DWIDTH 16 0
BBX 16 16 0 -2
BITMAP
0000
0000
0000
0300
01c0
0000
0000
03e0
0e30
0030
0030
0060
0060
00c0
0380
0000
ENDCHAR
STARTCHAR U3046
ENCODING 12358
SWIDTH 960 0
DWIDTH 16 0
BBX 16 16 0 -2
BITMAP
0700
01c0
0000
0000
07e0
3c30
0018
0018
0018
0030
0030
0060
00c0
0380
0e00
0000
ENDCHAR
STARTCHAR U3047
ENCODING 12359
SWIDTH 960 0
DWIDTH 16 0
BBX 16 16 0 -2
BITMAP
0000
0000
0000
0000
0600
0380
00e0
0000
1fe0
00c0
0180
0300
0e80
1980
3180
00f8
ENDCHAR
STARTCHAR U3048
ENCODING 12360
SWIDTH 960 0
DWIDTH 16 0
BBX 16 16 0 -2
BITMAP
0600
0300
01c0
0000
1ff0
0060
00c0
0180
0300
0780
0cc0
18c0
30c0
6060
003c
0000
ENDCHAR
STARTCHAR U3049
ENCODING 12361
SWIDTH 960 0
DWIDTH 16 0
BBX 16 16 0 -2
BITMAP
0000
0000
0000
0000
0600
0630
07d8
3e18
0600
07e0
0e30
1a18
3618
3630
1ce0
0000
ENDCHAR
STARTCHAR U304A
ENCODING 12362
SWIDTH 960 0
DWIDTH 16 0
BBX 16 16 0 -2
BITMAP
0600
0600
0638
07cc
7e06
0603
0600
07e0
1e38
360c
660c
660c
6c18
3870
01c0
0000
ENDCHAR
STARTCHAR U304B
ENCODING 12363
SWIDTH 960 0
DWIDTH 16 0
BBX 16 16 0 -2
BITMAP
0000
0c00
0c00
0c30
0c18
7f8c
0ccc
18c6
18c6
18c6
30c0
30c0
6180
6d80
0700
0000
ENDCHAR
STARTCHAR U304C
ENCODING 12364
SWIDTH 960 0
DWIDTH 16 0
BBX 16 16 0 -2
BITMAP
0c00
0c1a
0c1a
0c36
0c18
7f8c
0ccc
18c6
18c6
18c6
30c0
30c0
6180
6d80
0700
0000
ENDCHAR
STARTCHAR U304D
ENCODING 12365
SWIDTH 960 0
DWIDTH 16 0
BBX 16 16 0 -2
BITMAP
0300
0300
0370
3f80
0180
01f8
7f40
0060
0060
0fd0
1870
3000
3000
1c00
07c0
0000
ENDCHAR
STARTCHAR U304E
ENCODING 12366
SWIDTH 960 0
DWIDTH 16 0
BBX 16 16 0 -2
BITMAP
030c
0336
037a
3f98
0180
01f8
7f40
0060
0060
0fd0
1870
3000
3000
1c00
07c0
0000
ENDCHAR
STARTCHAR U304F
ENCODING 12367
SWIDTH 960 0
DWIDTH 16 0
BBX 16 16 0 -2
BITMAP
0060
0060
00c0
0180
0300
0600
0c00
0c00
0600
0300
0180
00c0
00c0
0060
0060
0000
ENDCHAR
STARTCHAR U3050
ENCODING 12368
SWIDTH 960 0
DWIDTH 16 0
BBX 16 16 0 -2
BITMAP
0060
0060
00cc
01b6
031a
0618
0c00
0c00
0600
0300
0180
00c0
00c0
0060
0060
0000
ENDCHAR
STARTCHAR U3051
ENCODING 12369
SWIDTH 960 0
DWIDTH 16 0
BBX 16 16 0 -2
BITMAP
0030
3030
3030
3030
303e
67f0
6030
6030
6030
6030
6830
3030
3030
0060
01c0
0000
ENDCHAR
STARTCHAR U3052
ENCODING 12370
SWIDTH 960 0
DWIDTH 16 0
BBX 16 16 0 -2
BITMAP
0036
303b
3035
3034
303e
67f0
6030
6030
6030
6030
6830
3030
3030
0060
01c0
0000
ENDCHAR
STARTCHAR U3053
ENCODING 12371
SWIDTH 960 0
DWIDTH 16 0
BBX 16 16 0 -2
BITMAP
0000
0000
0f00
01f8
0000
0000
0000
0000
0000
3000
3000
3000
180c
0ff8
0000
0000
ENDCHAR
STARTCHAR U3054
ENCODING 12372
SWIDTH 960 0
DWIDTH 16 0
BBX 16 16 0 -2
BITMAP
0000
001a
0f1a
01fa
0000
0000
0000
0000
0000
3000
3000
3000
180c
0ff8
0000
0000
ENDCHAR
STARTCHAR U3055
ENCODING 12373
SWIDTH 960 0
DWIDTH 16 0
BBX 16 16 0 -2
BITMAP
0180
0180
019c
1ff0
00c0
0060
0060
0030
07e8
0c38
1800
1800
0c00
0700
01f0
0000
ENDCHAR
STARTCHAR U3056
ENCODING 12374
SWIDTH 960 0
DWIDTH 16 0
BBX 16 16 0 -2
BITMAP
030c
0336
031a
3ff8
0180
00c0
00c0
0060
0fd0
1870
3000
3000
1800
0e00
03e0
0000
ENDCHAR
STARTCHAR U3057
ENCODING 12375
SWIDTH 960 0
DWIDTH 16 0
BBX 16 16 0 -2
BITMAP
0000
1800
1800
1800
1800
1800
1800
1800
1800
1800
1800
1818
1830
0ce0
0780
0000
ENDCHAR
STARTCHAR U3058
ENCODING 12376
SWIDTH 960 0
DWIDTH 16 0
BBX 16 16 0 -2
BITMAP
0000
1800
1830
18d8
1868
1860
1800
1800
1800
1800
1800
1818
1830
0ce0
0780
0000
ENDCHAR
STARTCHAR U3059
ENCODING 12377
SWIDTH 960 0
DWIDTH 16 0
BBX 16 16 0 -2
BITMAP
00c0
00c0
00fe
7fc0
00c0
00c0
0740
0dc0
0cc0
0cc0
0dc0
0740
00c0
00c0
0180
0700
ENDCHAR
STARTCHAR U305A
ENCODING 12378
SWIDTH 960 0
DWIDTH 16 0
BBX 16 16 0 -2
BITMAP
00c6
00db
00fd
7fcc
00c0
00c0
0740
0dc0
0cc0
0cc0
0dc0
0740
00c0
00c0
0180
0700
ENDCHAR
STARTCHAR U305B
ENCODING 12379
SWIDTH 960 0
DWIDTH 16 0
BBX 16 16 0 -2
BITMAP
0000
0060
0c60
0c60
0c7e
0fe0
fc60
0c60
0c60
0c60
0cc0
0c00
0600
03f8
0000
0000
ENDCHAR
STARTCHAR U305C
ENCODING 12380
SWIDTH 960 0
DWIDTH 16 0
BBX 16 16 0 -2
BITMAP
0000
0066
0c6b
0c6d
0c7c
0fe0
fc60
0c60
0c60
0c60
0cc0
0c00
0600
03f8
0000
0000
ENDCHAR
STARTCHAR U305D
ENCODING 12381
SWIDTH 960 0
DWIDTH 16 0
BBX 16 16 0 -2
BITMAP
0000
0ff0
00c0
0180
0300
0600
0c7c
7fc0
0180
0300
0600
0600
0600
0300
01e0
0000
ENDCHAR
STARTCHAR U305E
ENCODING 12382
SWIDTH 960 0
DWIDTH 16 0
BBX 16 16 0 -2
BITMAP
000c
0ff6
00da
0198
0300
0600
0c7c
7fc0
0180
0300
0600
0600
0600
0300
01e0
0000
ENDCHAR
STARTCHAR U305F
ENCODING 12383
SWIDTH 960 0
DWIDTH 16 0
BBX 16 16 0 -2
BITMAP
0c00
0c00
0dc0
7f00
0c00
1800
183c
19e0
1800
3000
3000
3000
6180
6180
60fe
0000
ENDCHAR
STARTCHAR U3060
ENCODING 12384
SWIDTH 960 0
DWIDTH 16 0
BBX 16 16 0 -2
BITMAP
0c00
0c0c
0dd6
7f1a
0c18
1800
183c
19e0
1800
3000
3000
3000
6180
6180
60fe
0000
ENDCHAR
STARTCHAR U3061
ENCODING 12385
SWIDTH 960 0
DWIDTH 16 0
BBX 16 16 0 -2
BITMAP
0600
0600
0600
7ff0
0600
0c00
0c00
0df0
1b18
1c0c
180c
000c
0018
0070
07c0
0000
ENDCHAR
STARTCHAR U3062
ENCODING 12386
SWIDTH 960 0
DWIDTH 16 0
BBX 16 16 0 -2
BITMAP
060c
0636
061a
7ff8
0600
0c00
0c00
0df0
1b18
1c0c
180c
000c
0018
0070
07c0
0000
ENDCHAR
STARTCHAR U3063
ENCODING 12387
SWIDTH 960 0
DWIDTH 16 0
BBX 16 16 0 -2
BITMAP
0000
0000
0000
0000
0000
0000
0000
0000
03f0
1e18
0018
0018
0030
00e0
0380
0000
ENDCHAR
STARTCHAR U3064
ENCODING 12388
SWIDTH 960 0
DWIDTH 16 0
BBX 16 16 0 -2
BITMAP
0000
0000
0000
01e0
0f38
f80c
0006
0006
0006
000c
0018
0070
03c0
0000
0000
0000
ENDCHAR
STARTCHAR U3065
ENCODING 12389
SWIDTH 960 0
DWIDTH 16 0
BBX 16 16 0 -2
BITMAP
0006
001b
000d
01ec
0f38
f80c
0006
0006
0006
000c
0018
0070
03c0
0000
0000
0000
ENDCHAR
STARTCHAR U3066
ENCODING 12390
SWIDTH 960 0
DWIDTH 16 0
BBX 16 16 0 -2
BITMAP
0000
001e
07f0
fc60
00c0
0180
0180
0300
0300
0300
0300
0180
00c0
0078
0000
0000
ENDCHAR
STARTCHAR U3067
ENCODING 12391
SWIDTH 960 0
DWIDTH 16 0
BBX 16 16 0 -2
BITMAP
0000
001e
07f0
fc66
00db
018d
018c
0300
0300
0300
0300
0180
00c0
0078
0000
0000
ENDCHAR
STARTCHAR U3068
ENCODING 12392
SWIDTH 960 0
DWIDTH 16 0
BBX 16 16 0 -2
BITMAP
0000
0c00
0c00
0600
0600
031c
0370
01c0
0300
0600
0c00
1800
1800
0c00
07fc
0000
ENDCHAR
STARTCHAR U3069
ENCODING 12393
SWIDTH 960 0
DWIDTH 16 0
BBX 16 16 0 -2
BITMAP
0000
180c
1836
0c1a
0c18
0638
06e0
0380
0600
0c00
1800
3000
3000
1800
0ff8
0000
ENDCHAR
STARTCHAR U306A
ENCODING 12394
SWIDTH 960 0
DWIDTH 16 0
BBX 16 16 0 -2
BITMAP
0c00
0c00
0f80
7c38
0c0c
1866
1860
1860
3060
3060
6060
07e0
0c78
0c6c
07c0
0000
ENDCHAR
STARTCHAR U306B
ENCODING 12395
SWIDTH 960 0
DWIDTH 16 0
BBX 16 16 0 -2
BITMAP
0000
3000
3000
3078
33c0
6000
6000
6000
6000
6000
6600
6600
6380
68fc
3000
0000
ENDCHAR
STARTCHAR U306C
ENCODING 12396
SWIDTH 960 0
DWIDTH 16 0
BBX 16 16 0 -2
BITMAP
0000
0180
3180
3180
37f0
3d98
318c
3186
6b06
6b06
ce06
cc7a
dacc
70cc
007a
0000
ENDCHAR
STARTCHAR U306D
ENCODING 12397
SWIDTH 960 0
DWIDTH 16 0
BBX 16 16 0 -2
BITMAP
1800
1800
1800
1cf0
f998
1b0c
1a0c
1c0c
180c
380c
387c
68cc
d8ce
1878
1800
0000
ENDCHAR
STARTCHAR U306E
ENCODING 12398
SWIDTH 960 0
DWIDTH 16 0
BBX 16 16 0 -2
BITMAP
0000
0000
03e0
0eb0
1998
318c
318c
6306
6306
660c
6c0c
3818
0030
00e0
0000
0000
ENDCHAR
STARTCHAR U306F
ENCODING 12399
SWIDTH 960 0
DWIDTH 16 0
BBX 16 16 0 -2
BITMAP
0030
3030
3030
3030
303e
67f0
6030
6030
6030
6030
6030
63f0
6a3c
3636
33e0
0000
ENDCHAR
STARTCHAR U3070
ENCODING 12400
SWIDTH 960 0
DWIDTH 16 0
BBX 16 16 0 -2
BITMAP
0030
3035
3035
3035
303e
37f0
6030
6030
6030
6030
6030
63f0
6a3c
3636
33e0
0000
ENDCHAR
STARTCHAR U3071
ENCODING 12401
SWIDTH 960 0
DWIDTH 16 0
BBX 16 16 0 -2
BITMAP
0036
303b
303b
3036
303e
37f0
6030
6030
6030
6030
6030
63f0
6a3c
3636
33e0
0000
ENDCHAR
STARTCHAR U3072
ENCODING 12402
SWIDTH 960 0
DWIDTH 16 0
BBX 16 16 0 -2
BITMAP
0000
0300
1f00
f630
0c30
1838
3038
3034
6036
6030
6030
6060
3060
19c0
0f00
0000
ENDCHAR
STARTCHAR U3073
ENCODING 12403
SWIDTH 960 0
DWIDTH 16 0
BBX 16 16 0 -2
BITMAP
0000
0306
1f1b
f635
0c34
1838
3038
3034
6036
6030
6030
6060
3060
19c0
0f00
0000
ENDCHAR
STARTCHAR U3074
ENCODING 12404
SWIDTH 960 0
DWIDTH 16 0
BBX 16 16 0 -2
BITMAP
000e
031b
1f1b
f636
0c30
1838
3038
3034
6036
6030
6030
6060
3060
19c0
0f00
0000
ENDCHAR
STARTCHAR U3075
ENCODING 12405
SWIDTH 960 0
DWIDTH 16 0
BBX 16 16 0 -2
BITMAP
0000
0600
03c0
00c0
0180
0300
0300
0198
30cc
30c6
6063
6063
c060
0cc0
0780
0000
ENDCHAR
STARTCHAR U3076
ENCODING 12406
SWIDTH 960 0
DWIDTH 16 0
BBX 16 16 0 -2
BITMAP
0000
060c
03d6
00da
0198
0300
0300
0198
30cc
30c6
6063
6063
c060
0cc0
0780
0000
ENDCHAR
STARTCHAR U3077
ENCODING 12407
SWIDTH 960 0
DWIDTH 16 0
BBX 16 16 0 -2
BITMAP
001c
0636
03d6
00dc
0180
0300
0300
0198
30cc
30c6
6063
6063
c060
0cc0
0780
0000
ENDCHAR
STARTCHAR U3078
ENCODING 12408
SWIDTH 960 0
DWIDTH 16 0
BBX 16 16 0 -2
BITMAP
0000
0000
0000
0000
0e00
1b00
3180
60c0
c060
0038
000e
0000
0000
0000
0000
0000
ENDCHAR
STARTCHAR U3079
ENCODING 12409
SWIDTH 960 0
DWIDTH 16 0
BBX 16 16 0 -2
BITMAP
0000
0000
0018
006c
0e34
1b30
3180
60c0
c060
0038
000e
0000
0000
0000
0000
0000
ENDCHAR
STARTCHAR U307A
ENCODING 12410
SWIDTH 960 0
DWIDTH 16 0
BBX 16 16 0 -2
BITMAP
0000
0000
0038
006c
006c
0e38
1b00
3180
60c0
c060
0038
000e
0000
0000
0000
0000
ENDCHAR
STARTCHAR U307B
ENCODING 12411
SWIDTH 960 0
DWIDTH 16 0
BBX 16 16 0 -2
BITMAP
0000
37fc
3030
3030
3030
603c
67f0
6030
6030
6030
6030
63f0
6a3c
3636
33e0
0000
ENDCHAR
STARTCHAR U307C
ENCODING 12412
SWIDTH 960 0
DWIDTH 16 0
BBX 16 16 0 -2
BITMAP
0006
37fb
3035
3034
3030
603c
67f0
6030
6030
6030
6030
63f0
6a3c
3636
33e0
0000
ENDCHAR
STARTCHAR U307D
ENCODING 12413
SWIDTH 960 0
DWIDTH 16 0
BBX 16 16 0 -2
BITMAP
000e
37fb
303b
3036
3030
603c
67f0
6030
6030
6030
6030
63f0
6a3c
3636
33e0
0000
ENDCHAR
STARTCHAR U307E
ENCODING 12414
SWIDTH 960 0
DWIDTH 16 0
BBX 16 16 0 -2
BITMAP
00c0
00c0
3ffc
00c0
00c0
00f8
3fc0
00c0
00c0
00c0
0fc0
18f0
30dc
38c0
0f80
0000
ENDCHAR
STARTCHAR U307F
ENCODING 12415
SWIDTH 960 0
DWIDTH 16 0
BBX 16 16 0 -2
BITMAP
0000
0000
3f80
0180
0180
0318
0318
0318
0fe8
3a3c
6636
cc30
d860
7060
00c0
0000
ENDCHAR
STARTCHAR U3080
ENCODING 12416
SWIDTH 960 0
DWIDTH 16 0
BBX 16 16 0 -2
BITMAP
0c00
0c00
0c00
7f98
0c0c
0c0c
3c06
6c06
6c30
6c18
6818
3818
1818
1830
0fe0
0000
ENDCHAR
STARTCHAR U3081
ENCODING 12417
SWIDTH 960 0
DWIDTH 16 0
BBX 16 16 0 -2
BITMAP
0000
00c0
30c0
30c0
33f0
3698
398c
398c
6b06
6d06
c606
c60c
dd0c
7018
0070
0000
ENDCHAR
STARTCHAR U3082
ENCODING 12418
SWIDTH 960 0
DWIDTH 16 0
BBX 16 16 0 -2
BITMAP
0600
0600
0600
3fc0
0600
0600
0ce0
7f80
0c00
0c0c
0c0c
0c0c
0618
0330
01e0
0000
ENDCHAR
STARTCHAR U3083
ENCODING 12419
SWIDTH 960 0
DWIDTH 16 0
BBX 16 16 0 -2
BITMAP
0000
0000
0000
0000
01c0
1860
1800
0df0
0f18
1c18
7630
06e0
0300
0300
0300
0000
ENDCHAR
STARTCHAR U3084
ENCODING 12420
SWIDTH 960 0
DWIDTH 16 0
BBX 16 16 0 -2
BITMAP
00c0
0060
3030
3030
1800
18fc
0d86
1e06
f406
060c
0678
0300
0300
0180
0180
0180
ENDCHAR
STARTCHAR U3085
ENCODING 12421
SWIDTH 960 0
DWIDTH 16 0
BBX 16 16 0 -2
BITMAP
0000
0000
0000
0000
0180
3180
33e0
36b0
3598
3998
3998
36b0
33e0
0180
0300
0600
ENDCHAR
STARTCHAR U3086
ENCODING 12422
SWIDTH 960 0
DWIDTH 16 0
BBX 16 16 0 -2
BITMAP
0000
0180
60c0
61f8
674c
6cc6
68c6
70c6
70c6
66cc
6358
61f0
00c0
0180
0300
0000
ENDCHAR
STARTCHAR U3087
ENCODING 12423
SWIDTH 960 0
DWIDTH 16 0
BBX 16 16 0 -2
BITMAP
0000
0000
0000
0000
0300
0300
0300
03e0
0300
0300
0300
1f00
33c0
3370
1e00
0000
ENDCHAR
STARTCHAR U3088
ENCODING 12424
SWIDTH 960 0
DWIDTH 16 0
BBX 16 16 0 -2
BITMAP
0180
0180
0180
019c
01f0
0180
0180
0180
0180
0180
1f80
71e0
61b8
630c
3e00
0000
ENDCHAR
STARTCHAR U3089
ENCODING 12425
SWIDTH 960 0
DWIDTH 16 0
BBX 16 16 0 -2
BITMAP
0300
0180
00e0
1800
1800
1800
1800
19f0
1b18
1c0c
180c
0018
0030
00e0
0780
0000
ENDCHAR
STARTCHAR U308A
ENCODING 12426
SWIDTH 960 0
DWIDTH 16 0
BBX 16 16 0 -2
BITMAP
0060
0c30
0c30
0c30
1830
1830
1830
1830
1a30
0c30
0060
0060
00c0
0180
0700
0000
ENDCHAR
STARTCHAR U308B
ENCODING 12427
SWIDTH 960 0
DWIDTH 16 0
BBX 16 16 0 -2
BITMAP
0000
0fe0
00c0
0180
0300
0600
0fe0
1c30
3018
600c
000c
070c
0d98
0cf0
07c0
0000
ENDCHAR
STARTCHAR U308C
ENCODING 12428
SWIDTH 960 0
DWIDTH 16 0
BBX 16 16 0 -2
BITMAP
0c00
0c00
0c00
0de0
1d30
f630
0c30
0c30
0c30
1c30
1c30
3433
6c36
cc1c
0c00
0000
ENDCHAR
STARTCHAR U308D
ENCODING 12429
SWIDTH 960 0
DWIDTH 16 0
BBX 16 16 0 -2
BITMAP
0000
0fe0
0060
00c0
0180
0300
07f0
0e18
180c
300c
000c
0018
0030
00e0
0380
0000
ENDCHAR
STARTCHAR U308E
ENCODING 12430
SWIDTH 960 0
DWIDTH 16 0
BBX 16 16 0 -2
BITMAP
0000
0000
0000
0000
0c00
0c00
0c00
0ee0
3d30
0e18
0c18
1c18
3430
0ce0
0c00
0c00
ENDCHAR
STARTCHAR U308F
ENCODING 12431
SWIDTH 960 0
DWIDTH 16 0
BBX 16 16 0 -2
BITMAP
1800
1800
1800
1e00
3c00
e9f0
1b18
1c0c
1806
3806
680c
d80c
1838
18e0
1800
0000
ENDCHAR
STARTCHAR U3090
ENCODING 12432
SWIDTH 960 0
DWIDTH 16 0
BBX 16 16 0 -2
BITMAP
0000
1f80
0180
0180
0180
0180
07f0
1d18
330c
6606
c606
ccf6
d99c
719a
00f0
0000
ENDCHAR
STARTCHAR U3091
ENCODING 12433
SWIDTH 960 0
DWIDTH 16 0
BBX 16 16 0 -2
BITMAP
0000
3fc0
0180
0700
0fc0
1860
3030
0e30
1b60
1b40
0f80
0c00
1ef0
7398
c03c
0000
ENDCHAR
STARTCHAR U3092
ENCODING 12434
SWIDTH 960 0
DWIDTH 16 0
BBX 16 16 0 -2
BITMAP
0300
0300
03e0
3f00
0600
060e
0fb8
18e0
31c0
6340
06c0
0cc0
0c00
0600
03f8
0000
ENDCHAR
STARTCHAR U3093
ENCODING 12435
SWIDTH 960 0
DWIDTH 16 0
BBX 16 16 0 -2
BITMAP
0180
0180
0300
0300
0600
0600
0600
0d80
0ec0
1cc0
18c0
30c3
30c6
606c
6038
0000
ENDCHAR
STARTCHAR U309B
ENCODING 12443
SWIDTH 960 0
DWIDTH 16 0
BBX 16 16 0 -2
BITMAP
3000
d800
6800
6000
0000
0000
0000
0000
0000
0000
0000
0000
0000
0000
0000
0000
ENDCHAR
STARTCHAR U309C
ENCODING 12444
SWIDTH 960 0
DWIDTH 16 0
BBX 16 16 0 -2
BITMAP
0000
e000
b000
b000
e000
0000
0000
0000
0000
0000
0000
0000
0000
0000
0000
0000
ENDCHAR
STARTCHAR U309D
ENCODING 12445
SWIDTH 960 0
DWIDTH 16 0
BBX 16 16 0 -2
BITMAP
0000
0000
0000
0000
1c00
0700
0180
00c0
0060
00f0
0180
0300
0000
0000
0000
0000
ENDCHAR
STARTCHAR U309E
ENCODING 12446
SWIDTH 960 0
DWIDTH 16 0
BBX 16 16 0 -2
BITMAP
0000
0000
0030
00d8
1c68
0760
0180
00c0
0060
00f0
0180
0300
0000
0000
0000
0000
ENDCHAR
STARTCHAR U30A1
ENCODING 12449
SWIDTH 960 0
DWIDTH 16 0
BBX 16 16 0 -2
BITMAP
0000
0000
0000
0000
0000
0000
0000
3ff0
0330
0360
0340
0300
0300
0600
0c00
0000
ENDCHAR
STARTCHAR U30A2
ENCODING 12450
SWIDTH 960 0
DWIDTH 16 0
BBX 16 16 0 -2
BITMAP
0000
0000
0000
fffc
000c
030c
0318
0330
0360
0300
0300
0600
0600
0c00
3800
0000
ENDCHAR
STARTCHAR U30A3
ENCODING 12451
SWIDTH 960 0
DWIDTH 16 0
BBX 16 16 0 -2
BITMAP
0000
0000
0000
0000
0000
0030
0060
00c0
0180
0780
1d80
0180
0180
0180
0180
0000
ENDCHAR
STARTCHAR U30A4
ENCODING 12452
SWIDTH 960 0
DWIDTH 16 0
BBX 16 16 0 -2
BITMAP
0000
0030
0030
0060
00c0
0180
0780
1d80
7180
0180
0180
0180
0180
0180
0180
0000
ENDCHAR
STARTCHAR U30A5
ENCODING 12453
SWIDTH 960 0
DWIDTH 16 0
BBX 16 16 0 -2
BITMAP
0000
0000
0000
0000
0180
0180
0180
1ff8
1818
1818
1830
0030
0060
01c0
0700
0000
ENDCHAR
STARTCHAR U30A6
ENCODING 12454
SWIDTH 960 0
DWIDTH 16 0
BBX 16 16 0 -2
BITMAP
0000
0180
0180
0180
3ffc
300c
300c
300c
300c
0018
0018
0030
0060
01c0
0700
0000
ENDCHAR
STARTCHAR U30A7
ENCODING 12455
SWIDTH 960 0
DWIDTH 16 0
BBX 16 16 0 -2
BITMAP
0000
0000
0000
0000
0000
0000
0000
0000
1fe0
0300
0300
0300
0300
0300
3ff0
0000
ENDCHAR
STARTCHAR U30A8
ENCODING 12456
SWIDTH 960 0
DWIDTH 16 0
BBX 16 16 0 -2
BITMAP
0000
0000
0000
0000
3ff8
0180
0180
0180
0180
0180
0180
0180
fffe
0000
0000
0000
ENDCHAR
STARTCHAR U30A9
ENCODING 12457
SWIDTH 960 0
DWIDTH 16 0
BBX 16 16 0 -2
BITMAP
0000
0000
0000
0000
0000
00c0
00c0
00c0
1ff8
01c0
0340
06c0
0cc0
18c0
01c0
0000
ENDCHAR
STARTCHAR U30AA
ENCODING 12458
SWIDTH 960 0
DWIDTH 16 0
BBX 16 16 0 -2
BITMAP
0000
0060
0060
0060
3ffe
0060
00e0
01a0
01a0
0360
0660
0c60
3860
0060
01e0
0000
ENDCHAR
STARTCHAR U30AB
ENCODING 12459
SWIDTH 960 0
DWIDTH 16 0
BBX 16 16 0 -2
BITMAP
0000
0300
0300
0300
7ff8
0318
0318
0318
0318
0618
0618
0c18
1818
3030
60e0
0000
ENDCHAR
STARTCHAR U30AC
ENCODING 12460
SWIDTH 960 0
DWIDTH 16 0
BBX 16 16 0 -2
BITMAP
0000
0306
031b
030d
7ffc
0318
0318
0318
0318
0618
0618
0c18
1818
3030
60e0
0000
ENDCHAR
STARTCHAR U30AD
ENCODING 12461
SWIDTH 960 0
DWIDTH 16 0
BBX 16 16 0 -2
BITMAP
0000
0300
0300
0338
03e0
3e80
0180
019e
01f0
0740
7cc0
00c0
00c0
0060
0060
0060
ENDCHAR
STARTCHAR U30AE
ENCODING 12462
SWIDTH 960 0
DWIDTH 16 0
BBX 16 16 0 -2
BITMAP
0000
030c
0336
033a
03e8
3e80
0180
019e
01f0
0740
7cc0
00c0
00c0
0060
0060
0060
ENDCHAR
STARTCHAR U30AF
ENCODING 12463
SWIDTH 960 0
DWIDTH 16 0
BBX 16 16 0 -2
BITMAP
0000
0180
0180
03fc
030c
0618
0c18
1830
3030
0060
00c0
0180
0300
0e00
3800
0000
ENDCHAR
STARTCHAR U30B0
ENCODING 12464
SWIDTH 960 0
DWIDTH 16 0
BBX 16 16 0 -2
BITMAP
0006
031b
030d
07f4
0630
0c30
1860
3060
60c0
00c0
0180
0300
0600
1c00
7000
0000
ENDCHAR
STARTCHAR U30B1
ENCODING 12465
SWIDTH 960 0
DWIDTH 16 0
BBX 16 16 0 -2
BITMAP
0000
0c00
0c00
0c00
0ffe
0c60
1860
1860
3060
6060
00c0
00c0
0180
0300
0e00
0000
ENDCHAR
STARTCHAR U30B2
ENCODING 12466
SWIDTH 960 0
DWIDTH 16 0
BBX 16 16 0 -2
BITMAP
0000
0c06
0c1b
0c0d
0ffc
0c60
1860
1860
3060
6060
00c0
00c0
0180
0300
0e00
0000
ENDCHAR
STARTCHAR U30B3
ENCODING 12467
SWIDTH 960 0
DWIDTH 16 0
BBX 16 16 0 -2
BITMAP
0000
0000
0000
7ff8
0018
0018
0018
0018
0018
0018
0018
0018
7ff8
0018
0000
0000
ENDCHAR
STARTCHAR U30B4
ENCODING 12468
SWIDTH 960 0
DWIDTH 16 0
BBX 16 16 0 -2
BITMAP
0006
001b
000d
7ffc
0018
0018
0018
0018
0018
0018
0018
0018
7ff8
0018
0000
0000
ENDCHAR
STARTCHAR U30B5
ENCODING 12469
SWIDTH 960 0
DWIDTH 16 0
BBX 16 16 0 -2
BITMAP
0000
0c30
0c30
0c30
0c30
fffe
0c30
0c30
0c30
0c30
0c60
0060
00c0
0180
0700
0000
ENDCHAR
STARTCHAR U30B6
ENCODING 12470
SWIDTH 960 0
DWIDTH 16 0
BBX 16 16 0 -2
BITMAP
0006
0c3b
0c35
0c34
0c30
fffe
0c30
0c30
0c30
0c30
0c60
0060
00c0
0180
0700
0000
ENDCHAR
STARTCHAR U30B7
ENCODING 12471
SWIDTH 960 0
DWIDTH 16 0
BBX 16 16 0 -2
BITMAP
0000
0000
1c00
0600
0000
0006
3806
0c0c
000c
0018
0030
0060
01c0
0700
3c00
0000
ENDCHAR
STARTCHAR U30B8
ENCODING 12472
SWIDTH 960 0
DWIDTH 16 0
BBX 16 16 0 -2
BITMAP
0000
000c
1c36
061a
0018
0006
3806
0c0c
000c
0018
0030
0060
01c0
0700
3c00
0000
ENDCHAR
STARTCHAR U30B9
ENCODING 12473
SWIDTH 960 0
DWIDTH 16 0
BBX 16 16 0 -2
BITMAP
0000
0000
0000
3fe0
0060
0060
00c0
00c0
0180
01c0
0360
0630
0c18
380c
e00c
0000
ENDCHAR
STARTCHAR U30BA
ENCODING 12474
SWIDTH 960 0
DWIDTH 16 0
BBX 16 16 0 -2
BITMAP
0000
000c
0036
3fea
0068
0060
00c0
00c0
0180
01c0
0360
0630
0c18
380c
e00c
0000
ENDCHAR
STARTCHAR U30BB
ENCODING 12475
SWIDTH 960 0
DWIDTH 16 0
BBX 16 16 0 -2
BITMAP
0000
0600
0600
0600
063e
07e6
7e0c
0618
0630
0660
0600
0600
0300
01fc
0000
0000
ENDCHAR
STARTCHAR U30BC
ENCODING 12476
SWIDTH 960 0
DWIDTH 16 0
BBX 16 16 0 -2
BITMAP
0006
061b
060d
060c
063e
07e6
7e0c
0618
0630
0660
0600
0600
0300
01fc
0000
0000
ENDCHAR
STARTCHAR U30BD
ENCODING 12477
SWIDTH 960 0
DWIDTH 16 0
BBX 16 16 0 -2
BITMAP
0000
0000
000c
300c
180c
0c0c
0c18
0c18
0030
0030
0060
00c0
0180
0700
1c00
0000
ENDCHAR
STARTCHAR U30BE
ENCODING 12478
SWIDTH 960 0
DWIDTH 16 0
BBX 16 16 0 -2
BITMAP
0000
000c
0036
601a
3018
1818
1830
1830
0060
0060
00c0
0180
0300
0e00
3800
0000
ENDCHAR
STARTCHAR U30BF
ENCODING 12479
SWIDTH 960 0
DWIDTH 16 0
BBX 16 16 0 -2
BITMAP
0000
0300
0300
03fc
060c
0c18
1818
7730
01d0
0060
00c0
0180
0300
0e00
7800
0000
ENDCHAR
STARTCHAR U30C0
ENCODING 12480
SWIDTH 960 0
DWIDTH 16 0
BBX 16 16 0 -2
BITMAP
0006
031b
030d
03fc
060c
0c18
1818
7730
01d0
0060
00c0
0180
0300
0e00
7800
0000
ENDCHAR
STARTCHAR U30C1
ENCODING 12481
SWIDTH 960 0
DWIDTH 16 0
BBX 16 16 0 -2
BITMAP
0000
0030
01e0
3f80
0180
0180
0180
fffc
0180
0180
0180
0300
0300
0600
1c00
0000
ENDCHAR
STARTCHAR U30C2
ENCODING 12482
SWIDTH 960 0
DWIDTH 16 0
BBX 16 16 0 -2
BITMAP
000c
0036
01ea
3f98
0180
0180
0180
fffc
0180
0180
0180
0300
0300
0600
1c00
0000
ENDCHAR
STARTCHAR U30C3
ENCODING 12483
SWIDTH 960 0
DWIDTH 16 0
BBX 16 16 0 -2
BITMAP
0000
0000
0000
0000
0000
0000
0600
3330
1b30
1830
0060
0060
00c0
0180
0700
0000
ENDCHAR
STARTCHAR U30C4
ENCODING 12484
SWIDTH 960 0
DWIDTH 16 0
BBX 16 16 0 -2
BITMAP
0000
0000
0600
630c
330c
330c
3018
0018
0030
0030
0060
00c0
0180
0700
1c00
0000
ENDCHAR
STARTCHAR U30C5
ENCODING 12485
SWIDTH 960 0
DWIDTH 16 0
BBX 16 16 0 -2
BITMAP
0006
001b
060d
630c
3318
3318
3018
0030
0030
0060
0060
00c0
0180
0700
1c00
0000
ENDCHAR
STARTCHAR U30C6
ENCODING 12486
SWIDTH 960 0
DWIDTH 16 0
BBX 16 16 0 -2
BITMAP
0000
0000
0000
1ff8
0000
0000
0000
7ffe
00c0
00c0
00c0
0180
0180
0300
0e00
0000
ENDCHAR
STARTCHAR U30C7
ENCODING 12487
SWIDTH 960 0
DWIDTH 16 0
BBX 16 16 0 -2
BITMAP
0000
000c
0036
1fea
0018
0000
0000
7ffe
00c0
00c0
00c0
0180
0180
0300
0e00
0000
ENDCHAR
STARTCHAR U30C8
ENCODING 12488
SWIDTH 960 0
DWIDTH 16 0
BBX 16 16 0 -2
BITMAP
0000
0600
0600
0600
0600
0600
0600
0780
06e0
0630
0618
0600
0600
0600
0600
0600
ENDCHAR
STARTCHAR U30C9
ENCODING 12489
SWIDTH 960 0
DWIDTH 16 0
BBX 16 16 0 -2
BITMAP
0000
060c
0636
061a
0618
0600
0600
0780
06e0
0630
0618
0600
0600
0600
0600
0600
ENDCHAR
STARTCHAR U30CA
ENCODING 12490
SWIDTH 960 0
DWIDTH 16 0
BBX 16 16 0 -2
BITMAP
0000
00c0
00c0
00c0
00c0
7ffe
00c0
00c0
00c0
00c0
00c0
0180
0180
0700
1c00
0000
ENDCHAR
STARTCHAR U30CB
ENCODING 12491
SWIDTH 960 0
DWIDTH 16 0
BBX 16 16 0 -2
BITMAP
0000
0000
0000
0000
3ff8
0000
0000
0000
0000
0000
0000
fffe
0000
0000
0000
0000
ENDCHAR
STARTCHAR U30CC
ENCODING 12492
SWIDTH 960 0
DWIDTH 16 0
BBX 16 16 0 -2
BITMAP
0000
0000
0000
1ff8
0018
0030
0030
0e60
03a0
00c0
01a0
0330
0618
1c0c
7000
0000
ENDCHAR
STARTCHAR U30CD
ENCODING 12493
SWIDTH 960 0
DWIDTH 16 0
BBX 16 16 0 -2
BITMAP
0180
0180
0180
3ff8
0018
0030
0060
00c0
03b0
0e9c
7986
0180
0180
0180
0180
0000
ENDCHAR
STARTCHAR U30CE
ENCODING 12494
SWIDTH 960 0
DWIDTH 16 0
BBX 16 16 0 -2
BITMAP
0000
0018
0018
0018
0018
0030
0030
0060
0060
00c0
0180
0300
0600
1c00
7000
0000
ENDCHAR
STARTCHAR U30CF
ENCODING 12495
SWIDTH 960 0
DWIDTH 16 0
BBX 16 16 0 -2
BITMAP
0000
0000
0000
0cc0
0c60
0c30
0c30
1818
1818
180c
300c
3006
6006
c006
0000
0000
ENDCHAR
STARTCHAR U30D0
ENCODING 12496
SWIDTH 960 0
DWIDTH 16 0
BBX 16 16 0 -2
BITMAP
0000
000c
0036
0cda
0c68
0c30
0c30
1818
1818
180c
300c
3006
6006
c006
0000
0000
ENDCHAR
STARTCHAR U30D1
ENCODING 12497
SWIDTH 960 0
DWIDTH 16 0
BBX 16 16 0 -2
BITMAP
001c
0036
0036
0cdc
0c60
0c30
0c30
1818
1818
180c
300c
3006
6006
c006
0000
0000
ENDCHAR
STARTCHAR U30D2
ENCODING 12498
SWIDTH 960 0
DWIDTH 16 0
BBX 16 16 0 -2
BITMAP
0000
3000
3000
3000
3000
3070
33c0
3e00
3000
3000
3000
3000
1800
0ff8
0000
0000
ENDCHAR
STARTCHAR U30D3
ENCODING 12499
SWIDTH 960 0
DWIDTH 16 0
BBX 16 16 0 -2
BITMAP
0000
300c
3036
301a
3018
3070
33c0
3e00
3000
3000
3000
3000
1800
0ff8
0000
0000
ENDCHAR
STARTCHAR U30D4
ENCODING 12500
SWIDTH 960 0
DWIDTH 16 0
BBX 16 16 0 -2
BITMAP
0000
601c
6036
6036
601c
60e0
6780
7c00
6000
6000
6000
6000
3000
1ff0
0000
0000
ENDCHAR
STARTCHAR U30D5
ENCODING 12501
SWIDTH 960 0
DWIDTH 16 0
BBX 16 16 0 -2
BITMAP
0000
0000
0000
7ffc
000c
000c
0018
0018
0030
0030
0060
00c0
0180
0700
1c00
0000
ENDCHAR
STARTCHAR U30D6
ENCODING 12502
SWIDTH 960 0
DWIDTH 16 0
BBX 16 16 0 -2
BITMAP
000c
0036
001a
7ff8
0018
0018
0030
0030
0060
0060
00c0
0180
0300
0e00
3800
0000
ENDCHAR
STARTCHAR U30D7
ENCODING 12503
SWIDTH 960 0
DWIDTH 16 0
BBX 16 16 0 -2
BITMAP
0000
000e
001b
7ffb
001e
0018
0030
0030
0060
0060
00c0
0180
0300
0e00
3800
0000
ENDCHAR
STARTCHAR U30D8
ENCODING 12504
SWIDTH 960 0
DWIDTH 16 0
BBX 16 16 0 -2
BITMAP
0000
0000
0000
0000
0700
0d80
18c0
3060
6030
c018
000c
0006
0000
0000
0000
0000
ENDCHAR
STARTCHAR U30D9
ENCODING 12505
SWIDTH 960 0
DWIDTH 16 0
BBX 16 16 0 -2
BITMAP
0000
0000
000c
0036
071a
0d98
18c0
3060
6030
c018
000c
0006
0000
0000
0000
0000
ENDCHAR
STARTCHAR U30DA
ENCODING 12506
SWIDTH 960 0
DWIDTH 16 0
BBX 16 16 0 -2
BITMAP
0000
0038
006c
006c
0738
0d80
18c0
3060
6030
c018
000c
0006
0000
0000
0000
0000
ENDCHAR
STARTCHAR U30DB
ENCODING 12507
SWIDTH 960 0
DWIDTH 16 0
BBX 16 16 0 -2
BITMAP
0000
0180
0180
0180
7ffe
0180
0180
0db0
0d98
0d8c
198c
1986
3186
6180
0380
0000
ENDCHAR
STARTCHAR U30DC
ENCODING 12508
SWIDTH 960 0
DWIDTH 16 0
BBX 16 16 0 -2
BITMAP
0000
0186
019b
018d
7ffc
0180
0180
0db0
0d98
0d8c
198c
1986
3186
6180
0380
0000
ENDCHAR
STARTCHAR U30DD
ENCODING 12509
SWIDTH 960 0
DWIDTH 16 0
BBX 16 16 0 -2
BITMAP
0000
018e
019b
019b
7ffe
0180
0180
0db0
0d98
0d8c
198c
1986
3186
6180
0380
0000
ENDCHAR
STARTCHAR U30DE
ENCODING 12510
SWIDTH 960 0
DWIDTH 16 0
BBX 16 16 0 -2
BITMAP
0000
0000
0000
7ffe
000c
000c
0018
0030
1c60
0740
0180
00c0
0060
0060
0000
0000
ENDCHAR
STARTCHAR U30DF
ENCODING 12511
SWIDTH 960 0
DWIDTH 16 0
BBX 16 16 0 -2
BITMAP
0000
0e00
0380
00e0
0030
0000
0e00
0380
00c0
0060
3000
1c00
0700
01c0
0060
0030
ENDCHAR
STARTCHAR U30E0
ENCODING 12512
SWIDTH 960 0
DWIDTH 16 0
BBX 16 16 0 -2
BITMAP
0000
0300
0300
0300
0300
0300
0600
0660
0630
0c30
0c18
1bf8
7e0c
000c
000c
0000
ENDCHAR
STARTCHAR U30E1
ENCODING 12513
SWIDTH 960 0
DWIDTH 16 0
BBX 16 16 0 -2
BITMAP
0000
0018
0018
0018
0018
0e30
03b0
00d0
0060
0070
00d8
018c
0300
0e00
3800
0000
ENDCHAR
STARTCHAR U30E2
ENCODING 12514
SWIDTH 960 0
DWIDTH 16 0
BBX 16 16 0 -2
BITMAP
0000
0000
3ff0
0600
0600
0600
0600
fffc
0600
0600
0600
0600
0300
01f8
0000
0000
ENDCHAR
STARTCHAR U30E3
ENCODING 12515
SWIDTH 960 0
DWIDTH 16 0
BBX 16 16 0 -2
BITMAP
0000
0000
0000
0000
0000
0600
0600
0378
03d8
0f30
3b60
0180
0180
00c0
00c0
00c0
ENDCHAR
STARTCHAR U30E4
ENCODING 12516
SWIDTH 960 0
DWIDTH 16 0
BBX 16 16 0 -2
BITMAP
0000
0c00
0c00
061e
06f6
0f8c
7a18
0330
0360
0180
0180
0180
00c0
00c0
00c0
0000
ENDCHAR
STARTCHAR U30E5
ENCODING 12517
SWIDTH 960 0
DWIDTH 16 0
BBX 16 16 0 -2
BITMAP
0000
0000
0000
0000
0000
0000
0000
0000
1fc0
00c0
00c0
00c0
00c0
7ff8
0000
0000
ENDCHAR
STARTCHAR U30E6
ENCODING 12518
SWIDTH 960 0
DWIDTH 16 0
BBX 16 16 0 -2
BITMAP
0000
0000
0000
0000
3fe0
0060
0060
0060
0060
0060
0060
0060
fffe
0000
0000
0000
ENDCHAR
STARTCHAR U30E7
ENCODING 12519
SWIDTH 960 0
DWIDTH 16 0
BBX 16 16 0 -2
BITMAP
0000
0000
0000
0000
0000
0000
0ff0
0030
0030
0030
0ff0
0030
0030
0030
0ff0
0000
ENDCHAR
STARTCHAR U30E8
ENCODING 12520
SWIDTH 960 0
DWIDTH 16 0
BBX 16 16 0 -2
BITMAP
0000
0000
3ff8
0018
0018
0018
0018
3ff8
0018
0018
0018
0018
0018
3ff8
0018
0000
ENDCHAR
STARTCHAR U30E9
ENCODING 12521
SWIDTH 960 0
DWIDTH 16 0
BBX 16 16 0 -2
BITMAP
0000
0000
3ff8
0000
0000
0000
7ffc
000c
000c
0018
0018
0030
00e0
0380
1e00
0000
ENDCHAR
STARTCHAR U30EA
ENCODING 12522
SWIDTH 960 0
DWIDTH 16 0
BBX 16 16 0 -2
BITMAP
0000
1830
1830
1830
1830
1830
1830
1830
1830
0030
0060
0060
00c0
0180
0700
0000
ENDCHAR
STARTCHAR U30EB
ENCODING 12523
SWIDTH 960 0
DWIDTH 16 0
BBX 16 16 0 -2
BITMAP
0000
00c0
00c0
0cc0
0cc0
0cc0
0cc3
0cc3
0cc6
0cc6
0ccc
18d8
18d0
30e0
6000
0000
ENDCHAR
STARTCHAR U30EC
ENCODING 12524
SWIDTH 960 0
DWIDTH 16 0
BBX 16 16 0 -2
BITMAP
0000
0c00
0c00
0c00
0c00
0c00
0c00
0c00
0c0c
0c0c
0c18
0c30
0c60
0dc0
0f00
0000
ENDCHAR
STARTCHAR U30ED
ENCODING 12525
SWIDTH 960 0
DWIDTH 16 0
BBX 16 16 0 -2
BITMAP
0000
0000
0000
3ffc
300c
300c
300c
300c
300c
300c
300c
300c
3ffc
300c
0000
0000
ENDCHAR
STARTCHAR U30EE
ENCODING 12526
SWIDTH 960 0
DWIDTH 16 0
BBX 16 16 0 -2
BITMAP
0000
0000
0000
0000
0000
0000
1ff8
1818
1818
1818
0030
0030
0060
00c0
0380
0000
ENDCHAR
STARTCHAR U30EF
ENCODING 12527
SWIDTH 960 0
DWIDTH 16 0
BBX 16 16 0 -2
BITMAP
0000
0000
0000
7ff8
6018
6018
6018
6018
0018
0030
0030
0060
00c0
0380
0e00
0000
ENDCHAR
STARTCHAR U30F0
ENCODING 12528
SWIDTH 960 0
DWIDTH 16 0
BBX 16 16 0 -2
BITMAP
0000
00c0
00c0
00c0
7ffc
18c0
18c0
18c0
18c0
18c0
fffe
00c0
00c0
00c0
00c0
0000
ENDCHAR
STARTCHAR U30F1
ENCODING 12529
SWIDTH 960 0
DWIDTH 16 0
BBX 16 16 0 -2
BITMAP
0000
0000
0000
3ff8
0030
0060
0340
0300
0300
0300
0300
0300
fffc
0000
0000
0000
ENDCHAR
STARTCHAR U30F2
ENCODING 12530
SWIDTH 960 0
DWIDTH 16 0
BBX 16 16 0 -2
BITMAP
0000
0000
1ffc
000c
000c
000c
0ffc
0018
0018
0030
0060
00c0
0380
1e00
0000
0000
ENDCHAR
STARTCHAR U30F3
ENCODING 12531
SWIDTH 960 0
DWIDTH 16 0
BBX 16 16 0 -2
BITMAP
0000
0000
0000
3800
0c00
0606
0006
000c
000c
0018
0030
0060
01c0
0700
3c00
0000
ENDCHAR
STARTCHAR U30F4
ENCODING 12532
SWIDTH 960 0
DWIDTH 16 0
BBX 16 16 0 -2
BITMAP
0180
0186
019b
018d
3ffc
300c
300c
300c
300c
0018
0018
0030
0060
01c0
0700
0000
ENDCHAR
STARTCHAR U30F5
ENCODING 12533
SWIDTH 960 0
DWIDTH 16 0
BBX 16 16 0 -2
BITMAP
0000
0000
0000
0000
0300
0300
0300
3ff0
0330
0330
0330
0630
0630
0c30
18e0
0000
ENDCHAR
STARTCHAR U30F6
ENCODING 12534
SWIDTH 960 0
DWIDTH 16 0
BBX 16 16 0 -2
BITMAP
0000
0000
0000
0000
0600
0600
0600
0ffc
0c60
1860
30c0
00c0
0180
0300
0e00
0000
ENDCHAR
STARTCHAR U30FB
ENCODING 12539
SWIDTH 960 0
DWIDTH 16 0
BBX 16 16 0 -2
BITMAP
0000
0000
0000
0000
0000
0000
0000
0380
0380
0000
0000
0000
0000
0000
0000
0000
ENDCHAR
STARTCHAR U30FC
ENCODING 12540
SWIDTH 960 0
DWIDTH 16 0
BBX 16 16 0 -2
BITMAP
0000
0000
0000
0000
0000
0000
c000
7ffc
0000
0000
0000
0000
0000
0000
0000
0000
ENDCHAR
STARTCHAR U30FD
ENCODING 12541
SWIDTH 960 0
DWIDTH 16 0
BBX 16 16 0 -2
BITMAP
0000
0000
0000
0000
0000
1c00
0700
0180
00c0
0060
0030
0000
0000
0000
0000
0000
ENDCHAR
STARTCHAR U30FE
ENCODING 12542
SWIDTH 960 0
DWIDTH 16 0
BBX 16 16 0 -2
BITMAP
0000
0000
0060
01b0
00d0
1cc0
0700
0180
00c0
0060
0030
0000
0000
0000
0000
0000
ENDCHAR
STARTCHAR U4E00
ENCODING 19968
SWIDTH 960 0
DWIDTH 16 0
BBX 16 16 0 -2
BITMAP
0000
0000
0000
0000
0000
0000
0006
ffff
0000
0000
0000
0000
0000
0000
0000
0000
ENDCHAR
STARTCHAR U4E01
ENCODING 19969
SWIDTH 960 0
DWIDTH 16 0
BBX 16 16 0 -2
BITMAP
0000
0000
ffff
0180
0180
0180
0180
0180
0180
0180
0180
0180
0180
0180
0180
0380
ENDCHAR
STARTCHAR U4E03
ENCODING 19971
SWIDTH 960 0
DWIDTH 16 0
BBX 16 16 0 -2
BITMAP
0c00
0c00
0c00
0c00
0c0e
0cf8
0f80
fc00
0c00
0c00
0c00
0c0c
0c0c
060c
03fc
0000
ENDCHAR
STARTCHAR U4E07
ENCODING 19975
SWIDTH 960 0
DWIDTH 16 0
BBX 16 16 0 -2
BITMAP
0000
fffe
0300
0300
0300
03f8
0318
0318
0618
0618
0618
0c18
0c18
1818
3030
60e0
ENDCHAR
STARTCHAR U4E08
ENCODING 19976
SWIDTH 960 0
DWIDTH 16 0
BBX 16 16 0 -2
BITMAP
00c0
00c0
00c0
7fff
00c0
0cc0
0cc0
06c0
0680
0380
0180
0340
0660
0c30
381c
e007
ENDCHAR
STARTCHAR U4E09
ENCODING 19977
SWIDTH 960 0
DWIDTH 16 0
BBX 16 16 0 -2
BITMAP
0000
3ffc
0000
0000
0000
0000
0000
1ff8
0000
0000
0000
0000
0000
ffff
0000
0000
ENDCHAR
STARTCHAR U4E0A
ENCODING 19978
SWIDTH 960 0
DWIDTH 16 0
BBX 16 16 0 -2
BITMAP
0180
0180
0180
0180
0180
0180
01fc
0180
0180
0180
0180
0180
0180
0180
ffff
0000
ENDCHAR
STARTCHAR U4E0B
ENCODING 19979
SWIDTH 960 0
DWIDTH 16 0
BBX 16 16 0 -2
BITMAP
0000
ffff
0180
0180
0180
01c0
01a0
01b0
0198
0198
0180
0180
0180
0180
0180
0180
ENDCHAR
STARTCHAR U4E0D
ENCODING 19981
SWIDTH 960 0
DWIDTH 16 0
BBX 16 16 0 -2
BITMAP
0000
ffff
00c0
00c0
0180
01c0
03b0
0698
0d8c
3986
e183
0180
0180
0180
0180
0180
ENDCHAR
STARTCHAR U4E0E
ENCODING 19982
SWIDTH 960 0
DWIDTH 16 0
BBX 16 16 0 -2
BITMAP
0600
0600
07fc
0600
0600
07f0
0030
0030
ffff
0030
0030
0030
0030
0030
00e0
0380
ENDCHAR
STARTCHAR U4E10
ENCODING 19984
SWIDTH 960 0
DWIDTH 16 0
BBX 16 16 0 -2
BITMAP
0000
ffff
0180
1980
19fe
1980
1980
1ffc
000c
000c
000c
000c
000c
0018
0018
0070
ENDCHAR
STARTCHAR U4E11
ENCODING 19985
SWIDTH 960 0
DWIDTH 16 0
BBX 16 16 0 -2
BITMAP
0000
3ff0
0630
0630
0630
0630
0630
fffe
0c30
0c30
0c30
0c30
0c30
0c30
ffff
0000
ENDCHAR
STARTCHAR U4E14
ENCODING 19988
SWIDTH 960 0
DWIDTH 16 0
BBX 16 16 0 -2
BITMAP
0000
1ff0
1830
1830
1830
1ff0
1830
1830
1830
1ff0
1830
1830
1830
1830
fffe
0000
ENDCHAR
STARTCHAR U4E15
ENCODING 19989
SWIDTH 960 0
DWIDTH 16 0
BBX 16 16 0 -2
BITMAP
0000
7ffe
00c0
00c0
0180
0380
06b0
0d9c
3986
e183
0180
0180
0180
0000
7ffe
0000
ENDCHAR
STARTCHAR U4E16
ENCODING 19990
SWIDTH 960 0
DWIDTH 16 0
BBX 16 16 0 -2
BITMAP
0000
1998
1998
1998
1998
ffff
1998
1998
1998
1998
19f8
1800
1800
1800
1ffe
0000
ENDCHAR
STARTCHAR U4E17
ENCODING 19991
SWIDTH 960 0
DWIDTH 16 0
BBX 16 16 0 -2
BITMAP
1998
1998
1998
1998
1998
1998
ffff
1998
1998
1998
1998
1998
1998
1998
1ff8
0000
ENDCHAR
STARTCHAR U4E18
ENCODING 19992
SWIDTH 960 0
DWIDTH 16 0
BBX 16 16 0 -2
BITMAP
0030
01e0
1f00
1800
1800
1800
1ffc
1860
1860
1860
1860
1860
1860
1860
fffe
0000
ENDCHAR
STARTCHAR U4E19
ENCODING 19993
SWIDTH 960 0
DWIDTH 16 0
BBX 16 16 0 -2
BITMAP
0000
ffff
0180
0180
3ffc
318c
318c
334c
366c
3c34
300c
300c
300c
300c
300c
301c
ENDCHAR
STARTCHAR U4E1E
ENCODING 19998
SWIDTH 960 0
DWIDTH 16 0
BBX 16 16 0 -2
BITMAP
0000
3ff8
0030
00e0
0186
7ea6
06ac
0db8
0d98
198c
3186
6183
c380
0000
fffe
0000
ENDCHAR
STARTCHAR U4E21
ENCODING 20001
SWIDTH 960 0
DWIDTH 16 0
BBX 16 16 0 -2
BITMAP
0000
ffff
0180
0180
0180
7ffe
6186
6db6
6db6
6db6
6db6
6ff6
6c36
6006
6006
600e
ENDCHAR
STARTCHAR U4E26
ENCODING 20006
SWIDTH 960 0
DWIDTH 16 0
BBX 16 16 0 -2
BITMAP
1818
0c18
0630
0660
7ffe
0660
0660
6666
3666
366c
1a6c
1a68
0660
0660
ffff
0000
ENDCHAR
STARTCHAR U4E2A
ENCODING 20010
SWIDTH 960 0
DWIDTH 16 0
BBX 16 16 0 -2
BITMAP
0180
0180
0340
0340
0660
0c30
1998
318c
6186
c183
0180
0180
0180
0180
0180
0180
ENDCHAR
STARTCHAR U4E2D
ENCODING 20013
SWIDTH 960 0
DWIDTH 16 0
BBX 16 16 0 -2
BITMAP
0180
0180
0180
7ffe
6186
6186
6186
6186
6186
7ffe
0180
0180
0180
0180
0180
0180
ENDCHAR
STARTCHAR U4E31
ENCODING 20017
SWIDTH 960 0
DWIDTH 16 0
BBX 16 16 0 -2
BITMAP
0660
0660
6666
6666
6666
6666
6666
6666
6666
6666
7e7e
0660
0c60
0c60
1860
3060
ENDCHAR
STARTCHAR U4E32
ENCODING 20018
SWIDTH 960 0
DWIDTH 16 0
BBX 16 16 0 -2
BITMAP
0180
0180
3ffc
318c
318c
3ffc
0180
0180
7ffe
6186
6186
7ffe
0180
0180
0180
0180
ENDCHAR
STARTCHAR U4E36
ENCODING 20022
SWIDTH 960 0
DWIDTH 16 0
BBX 16 16 0 -2
BITMAP
0000
0000
0000
1c00
0700
0180
00c0
0060
0060
0030
0030
0000
0000
0000
0000
0000
ENDCHAR
STARTCHAR U4E38
ENCODING 20024
SWIDTH 960 0
DWIDTH 16 0
BBX 16 16 0 -2
BITMAP
0600
0600
0600
0600
fff0
0630
0630
1a30
0e30
0630
0d30
0db0
19b6
3036
6036
c01e
ENDCHAR
STARTCHAR U4E39
ENCODING 20025
SWIDTH 960 0
DWIDTH 16 0
BBX 16 16 0 -2
BITMAP
0000
1ff8
1818
1a18
1b18
1998
1998
1818
ffff
1818
1818
1818
3018
3018
6018
c038
ENDCHAR
STARTCHAR U4E3B
ENCODING 20027
SWIDTH 960 0
DWIDTH 16 0
BBX 16 16 0 -2
BITMAP
0300
0180
0180
7ffe
0180
0180
0180
0180
3ffc
0180
0180
0180
0180
0180
ffff
0000
ENDCHAR
STARTCHAR U4E3C
ENCODING 20028
SWIDTH 960 0
DWIDTH 16 0
BBX 16 16 0 -2
BITMAP
0c60
0c60
0c60
0c60
7ffc
0c60
0d60
0da0
0da0
fffe
0c60
0c60
0c60
1860
1860
3060
ENDCHAR
STARTCHAR U4E3F
ENCODING 20031
SWIDTH 960 0
DWIDTH 16 0
BBX 16 16 0 -2
BITMAP
00c0
00c0
00c0
00c0
00c0
00c0
00c0
00c0
00c0
00c0
0180
0180
0300
0600
1c00
7000
ENDCHAR
STARTCHAR U4E42
ENCODING 20034
SWIDTH 960 0
DWIDTH 16 0
BBX 16 16 0 -2
BITMAP
0000
0c30
0c30
0c30
0c30
0c30
0660
0660
0340
0340
0180
0340
0660
0c30
381c
e007
ENDCHAR
STARTCHAR U4E43
ENCODING 20035
SWIDTH 960 0
DWIDTH 16 0
BBX 16 16 0 -2
BITMAP
0000
7ff0
0330
0330
0330
0330
033c
060c
060c
0c0c
0c0c
180c
300c
6018
c070
0000
ENDCHAR
STARTCHAR U4E45
ENCODING 20037
SWIDTH 960 0
DWIDTH 16 0
BBX 16 16 0 -2
BITMAP
0300
0300
03f0
0630
0630
0c60
1860
30c0
00c0
01c0
01a0
0360
0630
0c18
380c
e007
ENDCHAR
STARTCHAR U4E4B
ENCODING 20043
SWIDTH 960 0
DWIDTH 16 0
BBX 16 16 0 -2
BITMAP
0180
0180
0180
0180
3ffc
0018
0030
0030
0060
00c0
1980
1b00
1e00
3600
6380
c0ff
ENDCHAR
STARTCHAR U4E4D
ENCODING 20045
SWIDTH 960 0
DWIDTH 16 0
BBX 16 16 0 -2
BITMAP
0c00
0c00
0c00
0ffe
1980
1980
3180
61fc
c180
0180
0180
01fc
0180
0180
0180
0180
ENDCHAR
STARTCHAR U4E4E
ENCODING 20046
SWIDTH 960 0
DWIDTH 16 0
BBX 16 16 0 -2
BITMAP
000c
0078
7fc0
018c
198c
0d98
0db0
0180
ffff
0180
0180
0180
0180
0180
0180
0380
ENDCHAR
STARTCHAR U4E4F
ENCODING 20047
SWIDTH 960 0
DWIDTH 16 0
BBX 16 16 0 -2
BITMAP
000c
0078
ffc0
0300
0300
0300
7ff8
0018
0030
0060
18c0
1b80
3e00
3600
6380
c0ff
ENDCHAR
STARTCHAR U4E55
ENCODING 20053
SWIDTH 960 0
DWIDTH 16 0
BBX 16 16 0 -2
BITMAP
000c
0078
1fc0
18c0
1fff
18c0
18c0
1fff
18c0
18c0
37fe
34c6
6cc6
ccc6
0cdc
00c0
ENDCHAR
STARTCHAR U4E56
ENCODING 20054
SWIDTH 960 0
DWIDTH 16 0
BBX 16 16 0 -2
BITMAP
0018
00f0
3f80
0180
0180
ffff
0180
0db0
0db7
fdbc
0db0
0db3
3db3
ed9f
0d80
0180
ENDCHAR
STARTCHAR U4E57
ENCODING 20055
SWIDTH 960 0
DWIDTH 16 0
BBX 16 16 0 -2
BITMAP
0030
1fe0
0180
7ffe
1998
1998
ffff
1998
1998
7ffe
03c0
06a0
0db0
399c
e187
0180
ENDCHAR
STARTCHAR U4E58
ENCODING 20056
SWIDTH 960 0
DWIDTH 16 0
BBX 16 16 0 -2
BITMAP
0018
00f0
3f80
0180
ffff
0180
0db6
fdbc
0db3
3db3
eddf
06a0
0db0
399c
e187
0180
ENDCHAR
STARTCHAR U4E59
ENCODING 20057
SWIDTH 960 0
DWIDTH 16 0
BBX 16 16 0 -2
BITMAP
0000
3ff8
0030
00e0
0180
0300
0600
0c00
1800
3000
3000
600c
600c
600c
3ffc
0000
ENDCHAR
STARTCHAR U4E5D
ENCODING 20061
SWIDTH 960 0
DWIDTH 16 0
BBX 16 16 0 -2
BITMAP
0000
0600
0600
0600
ffe0
0660
0660
0660
0660
0c60
0c60
0c60
1866
3066
603e
c000
ENDCHAR
STARTCHAR U4E5E
ENCODING 20062
SWIDTH 960 0
DWIDTH 16 0
BBX 16 16 0 -2
BITMAP
0c00
0c00
0c00
1ffe
1800
3000
6ff0
c0c0
0380
0600
0c00
1800
3000
300c
300c
1ffc
ENDCHAR
STARTCHAR U4E5F
ENCODING 20063
SWIDTH 960 0
DWIDTH 16 0
BBX 16 16 0 -2
BITMAP
0180
1980
1980
19b8
19e8
1f98
f998
1998
1998
1998
19b0
1986
1806
0c06
07fe
0000
ENDCHAR
STARTCHAR U4E62
ENCODING 20066
SWIDTH 960 0
DWIDTH 16 0
BBX 16 16 0 -2
BITMAP
18c0
18c0
18c0
6b40
6b40
6b40
6b40
6b40
6b40
6b40
6b40
6b43
7f43
00c3
007f
0000
ENDCHAR
STARTCHAR U4E71
ENCODING 20081
SWIDTH 960 0
DWIDTH 16 0
BBX 16 16 0 -2
BITMAP
0360
0e60
7860
1860
1860
1860
ffa0
1860
1860
1860
7f60
6360
6363
6363
7f63
003f
ENDCHAR
STARTCHAR U4E73
ENCODING 20083
SWIDTH 960 0
DWIDTH 16 0
BBX 16 16 0 -2
BITMAP
01a0
0f60
f9a0
6da0
3560
3660
7fa0
0360
0660
0c60
0fe0
fc60
0c60
0c63
0c33
1c1f
ENDCHAR
STARTCHAR U4E7E
ENCODING 20094
SWIDTH 960 0
DWIDTH 16 0
BBX 16 16 0 -2
BITMAP
18c0
18c0
ff40
18ff
7ec0
6680
66fc
7f0c
6618
6630
7e60
1860
ffc6
18c6
18c6
187e
ENDCHAR
STARTCHAR U4E80
ENCODING 20096
SWIDTH 960 0
DWIDTH 16 0
BBX 16 16 0 -2
BITMAP
0600
0ff0
1860
3ff8
e998
1ff8
1998
1ff8
0180
3ffc
318c
3ffc
318c
3ffd
0183
00ff
ENDCHAR
STARTCHAR U4E82
ENCODING 20098
SWIDTH 960 0
DWIDTH 16 0
BBX 16 16 0 -2
BITMAP
0330
0e30
fdb0
36d0
66d0
ffd0
3330
1a30
7fd0
6d50
7ed0
60d3
6f53
6d53
66df
6dc0
ENDCHAR
STARTCHAR U4E85
ENCODING 20101
SWIDTH 960 0
DWIDTH 16 0
BBX 16 16 0 -2
BITMAP
0300
0300
0300
0300
0300
0300
0300
0300
0300
0300
0300
0300
0300
0300
0300
0700
ENDCHAR
STARTCHAR U4E86
ENCODING 20102
SWIDTH 960 0
DWIDTH 16 0
BBX 16 16 0 -2
BITMAP
0000
7ffc
0018
0030
0060
01c0
0180
0180
0180
0180
0180
0180
0180
0180
0180
0380
ENDCHAR
STARTCHAR U4E88
ENCODING 20104
SWIDTH 960 0
DWIDTH 16 0
BBX 16 16 0 -2
BITMAP
0000
3ff8
0030
0e60
0340
0180
fffe
0186
018c
0198
0180
0180
0180
0180
0180
0380
ENDCHAR
STARTCHAR U4E89
ENCODING 20105
SWIDTH 960 0
DWIDTH 16 0
BBX 16 16 0 -2
BITMAP
0300
03e0
0660
0cc0
3980
3ff8
0198
0198
ffff
0198
0198
3ff8
0180
0180
0180
0380
ENDCHAR
STARTCHAR U4E8A
ENCODING 20106
SWIDTH 960 0
DWIDTH 16 0
BBX 16 16 0 -2
BITMAP
0180
0180
7ffe
1998
0db0
0d80
3ffc
018c
018c
ffff
018c
018c
3ffc
0180
0180
0380
ENDCHAR
STARTCHAR U4E8B
ENCODING 20107
SWIDTH 960 0
DWIDTH 16 0
BBX 16 16 0 -2
BITMAP
0180
0180
ffff
0180
1ff8
1998
1ff8
0180
3ffc
018c
ffff
018c
3ffc
0180
0180
0380
ENDCHAR
STARTCHAR U4E8C
ENCODING 20108
SWIDTH 960 0
DWIDTH 16 0
BBX 16 16 0 -2
BITMAP
0000
0000
3ffc
0000
0000
0000
0000
0000
0000
0000
0000
0000
0000
ffff
0000
0000
ENDCHAR
STARTCHAR U4E8E
ENCODING 20110
SWIDTH 960 0
DWIDTH 16 0
BBX 16 16 0 -2
BITMAP
0000
3ffc
0180
0180
0180
0180
0180
ffff
0180
0180
0180
0180
0180
0180
0180
0380
ENDCHAR
STARTCHAR U4E91
ENCODING 20113
SWIDTH 960 0
DWIDTH 16 0
BBX 16 16 0 -2
BITMAP
0000
0000
3ff8
0000
0000
0000
fffe
0300
0300
0660
0630
0c18
19f8
ff0c
000c
000c
ENDCHAR
STARTCHAR U4E92
ENCODING 20114
SWIDTH 960 0
DWIDTH 16 0
BBX 16 16 0 -2
BITMAP
0000
7ffe
0600
0600
0600
07f0
0c30
0c30
0c30
1830
1fe0
0060
0060
0060
ffff
0000
ENDCHAR
STARTCHAR U4E94
ENCODING 20116
SWIDTH 960 0
DWIDTH 16 0
BBX 16 16 0 -2
BITMAP
0000
7ffe
0180
0180
0180
0180
3ff8
0318
0318
0318
0318
0618
0618
0618
ffff
0000
ENDCHAR
STARTCHAR U4E95
ENCODING 20117
SWIDTH 960 0
DWIDTH 16 0
BBX 16 16 0 -2
BITMAP
0c60
0c60
0c60
0c60
7ffc
0c60
0c60
0c60
0c60
fffe
0c60
0c60
0c60
1860
1860
3060
ENDCHAR
STARTCHAR U4E98
ENCODING 20120
SWIDTH 960 0
DWIDTH 16 0
BBX 16 16 0 -2
BITMAP
0000
7ffc
0000
0000
1ff0
1830
1830
1ff0
1830
1830
1830
1ff0
0000
0000
fffe
0000
ENDCHAR
STARTCHAR U4E99
ENCODING 20121
SWIDTH 960 0
DWIDTH 16 0
BBX 16 16 0 -2
BITMAP
0000
7ffe
0600
0600
07f0
0630
0db0
0cd0
0c30
1b60
19a0
1860
0060
0060
ffff
0000
ENDCHAR
STARTCHAR U4E9B
ENCODING 20123
SWIDTH 960 0
DWIDTH 16 0
BBX 16 16 0 -2
BITMAP
0cc0
0cc0
34cc
3778
34c0
34c0
34c6
3746
387e
e000
1ff8
0000
0000
0000
ffff
0000
ENDCHAR
STARTCHAR U4E9C
ENCODING 20124
SWIDTH 960 0
DWIDTH 16 0
BBX 16 16 0 -2
BITMAP
0000
7fff
0660
0660
0660
3ffc
366c
366c
366c
366c
3ffc
0660
0660
0660
ffff
0000
ENDCHAR
STARTCHAR U4E9E
ENCODING 20126
SWIDTH 960 0
DWIDTH 16 0
BBX 16 16 0 -2
BITMAP
0000
ffff
0660
0660
0660
7e7e
6006
6006
6006
6006
7e7e
0660
0660
0660
ffff
0000
ENDCHAR
STARTCHAR U4E9F
ENCODING 20127
SWIDTH 960 0
DWIDTH 16 0
BBX 16 16 0 -2
BITMAP
0000
7ffe
0300
0300
07c0
00fe
7ec6
66d4
66dc
7edc
66d6
01a3
0700
0000
ffff
0000
ENDCHAR
STARTCHAR U4EA0
ENCODING 20128
SWIDTH 960 0
DWIDTH 16 0
BBX 16 16 0 -2
BITMAP
0000
0000
0000
0180
0180
0180
0180
ffff
0000
0000
0000
0000
0000
0000
0000
0000
ENDCHAR
STARTCHAR U4EA1
ENCODING 20129
SWIDTH 960 0
DWIDTH 16 0
BBX 16 16 0 -2
BITMAP
0180
0180
0180
ffff
1800
1800
1800
1800
1800
1800
1800
1800
1800
0c00
07fc
0000
ENDCHAR
STARTCHAR U4EA2
ENCODING 20130
SWIDTH 960 0
DWIDTH 16 0
BBX 16 16 0 -2
BITMAP
0180
0180
0180
fffe
0000
0000
07e0
0660
0660
0660
0660
0660
0c66
0c66
1866
703e
ENDCHAR
STARTCHAR U4EA4
ENCODING 20132
SWIDTH 960 0
DWIDTH 16 0
BBX 16 16 0 -2
BITMAP
0180
0180
0180
ffff
0c60
0c30
1868
1a68
366c
634c
0340
0180
0340
0660
1c38
f00f
ENDCHAR
STARTCHAR U4EA5
ENCODING 20133
SWIDTH 960 0
DWIDTH 16 0
BBX 16 16 0 -2
BITMAP
0180
0180
0180
ffff
0300
0330
3a60
0cc0
0698
0330
0e60
38e0
01b0
0718
1c0c
f00c
ENDCHAR
STARTCHAR U4EA6
ENCODING 20134
SWIDTH 960 0
DWIDTH 16 0
BBX 16 16 0 -2
BITMAP
0180
0180
0180
ffff
0660
0660
1a68
1a6c
1a6c
3666
6666
c666
0c60
0c60
1860
30e0
ENDCHAR
STARTCHAR U4EA8
ENCODING 20136
SWIDTH 960 0
DWIDTH 16 0
BBX 16 16 0 -2
BITMAP
0180
0180
ffff
0000
1ff8
1818
1ff8
0000
7ffc
0018
0070
01c0
0180
0180
0180
0380
ENDCHAR
STARTCHAR U4EAB
ENCODING 20139
SWIDTH 960 0
DWIDTH 16 0
BBX 16 16 0 -2
BITMAP
0180
0180
ffff
0000
1ff8
1818
1ff8
0000
3ff8
0060
00c0
fffe
0180
0180
0180
0380
ENDCHAR
STARTCHAR U4EAC
ENCODING 20140
SWIDTH 960 0
DWIDTH 16 0
BBX 16 16 0 -2
BITMAP
0180
0180
0180
ffff
0000
1ff8
1818
1818
1818
1ff8
0180
0db0
1998
318c
e186
0380
ENDCHAR
STARTCHAR U4EAD
ENCODING 20141
SWIDTH 960 0
DWIDTH 16 0
BBX 16 16 0 -2
BITMAP
0180
0180
ffff
0000
1ff0
1830
1ff0
0000
fffe
c006
dff6
0180
0180
0180
0180
0380
ENDCHAR
STARTCHAR U4EAE
ENCODING 20142
SWIDTH 960 0
DWIDTH 16 0
BBX 16 16 0 -2
BITMAP
0180
0180
ffff
0000
1ff8
1818
1ff8
0000
fffe
c006
c6c6
06c0
06c0
0cc3
3863
e03f
ENDCHAR
STARTCHAR U4EB0
ENCODING 20144
SWIDTH 960 0
DWIDTH 16 0
BBX 16 16 0 -2
BITMAP
0180
0180
ffff
0000
1ff0
1830
1830
1ff0
1830
1ff0
0180
0da0
19b8
318c
e186
0380
ENDCHAR
STARTCHAR U4EB3
ENCODING 20147
SWIDTH 960 0
DWIDTH 16 0
BBX 16 16 0 -2
BITMAP
0300
fffe
0000
1ff0
1830
1ff0
0000
fffe
c036
c3e6
3f00
0300
fffe
0300
0186
00fe
ENDCHAR
STARTCHAR U4EB6
ENCODING 20150
SWIDTH 960 0
DWIDTH 16 0
BBX 16 16 0 -2
BITMAP
0180
ffff
0000
3ffc
37ec
366c
37ec
300c
3ffc
0c30
0ff0
0c30
0ff0
0000
ffff
0000
ENDCHAR
STARTCHAR U4EBA
ENCODING 20154
SWIDTH 960 0
DWIDTH 16 0
BBX 16 16 0 -2
BITMAP
0180
0180
0180
0180
0180
0180
0180
0340
0340
0660
0660
0c30
1818
300c
6006
c003
ENDCHAR
STARTCHAR U4EC0
ENCODING 20160
SWIDTH 960 0
DWIDTH 16 0
BBX 16 16 0 -2
BITMAP
0c30
0c30
0c30
1830
1830
3830
3bff
6830
d830
1830
1830
1830
1830
1830
1830
1830
ENDCHAR
STARTCHAR U4EC1
ENCODING 20161
SWIDTH 960 0
DWIDTH 16 0
BBX 16 16 0 -2
BITMAP
0c00
0c00
0c00
1bfc
1800
3000
7000
d000
3000
3000
3000
3000
3000
37ff
3000
3000
ENDCHAR
STARTCHAR U4EC2
ENCODING 20162
SWIDTH 960 0
DWIDTH 16 0
BBX 16 16 0 -2
BITMAP
0cc0
0cc0
0cc0
18c0
1bfe
30c6
30c6
70c6
d0c6
30c6
30c6
3186
3186
3306
360c
3438
ENDCHAR
STARTCHAR U4EC4
ENCODING 20164
SWIDTH 960 0
DWIDTH 16 0
BBX 16 16 0 -2
BITMAP
0000
3fff
3000
30c0
30c0
30c0
30c0
30c0
30c0
30c0
31a0
31a0
6330
6618
dc0c
7007
ENDCHAR
STARTCHAR U4EC6
ENCODING 20166
SWIDTH 960 0
DWIDTH 16 0
BBX 16 16 0 -2
BITMAP
0660
0660
0c60
0c60
1860
1860
3870
6868
d86c
1866
1866
1860
1860
1860
1860
1860
ENDCHAR
STARTCHAR U4EC7
ENCODING 20167
SWIDTH 960 0
DWIDTH 16 0
BBX 16 16 0 -2
BITMAP
0d80
0d80
0d80
1980
19f0
1fb0
31b0
71b0
d1b0
31b0
31b0
3336
3336
3636
341e
3800
ENDCHAR
STARTCHAR U4ECA
ENCODING 20170
SWIDTH 960 0
DWIDTH 16 0
BBX 16 16 0 -2
BITMAP
0180
0180
0340
0660
0c30
1818
37ec
e007
0000
1ff0
0030
0060
0060
00c0
0180
0300
ENDCHAR
STARTCHAR U4ECB
ENCODING 20171
SWIDTH 960 0
DWIDTH 16 0
BBX 16 16 0 -2
BITMAP
0180
0180
0340
0660
0c30
381c
ec37
0c30
0c30
0c30
0c30
0c30
1830
1830
3030
6030
ENDCHAR
STARTCHAR U4ECD
ENCODING 20173
SWIDTH 960 0
DWIDTH 16 0
BBX 16 16 0 -2
BITMAP
0c00
0ff8
0d98
1998
1998
3198
319e
7186
d186
3186
3186
3306
3306
3606
340c
3838
ENDCHAR
STARTCHAR U4ECE
ENCODING 20174
SWIDTH 960 0
DWIDTH 16 0
BBX 16 16 0 -2
BITMAP
0c30
0c30
0c30
0c30
0c30
0c30
0c30
0c30
0e30
1a38
1b68
1b68
31cc
30cc
6186
c303
ENDCHAR
STARTCHAR U4ECF
ENCODING 20175
SWIDTH 960 0
DWIDTH 16 0
BBX 16 16 0 -2
BITMAP
0c60
0c60
0c60
1860
1860
3060
30c0
70c0
d0d0
30d8
318c
318c
3186
337e
37c3
3003
ENDCHAR
STARTCHAR U4ED4
ENCODING 20180
SWIDTH 960 0
DWIDTH 16 0
BBX 16 16 0 -2
BITMAP
0c00
0dfc
0c0c
1818
1830
3060
7060
d7ff
3060
3060
3060
3060
3060
3060
3060
30e0
ENDCHAR
STARTCHAR U4ED5
ENCODING 20181
SWIDTH 960 0
DWIDTH 16 0
BBX 16 16 0 -2
BITMAP
0c60
0c60
0c60
1860
1860
3060
37ff
7060
d060
3060
3060
3060
3060
3060
37fe
3000
ENDCHAR
STARTCHAR U4ED6
ENCODING 20182
SWIDTH 960 0
DWIDTH 16 0
BBX 16 16 0 -2
BITMAP
0c30
0c30
0db0
19b6
19be
39f6
3bb6
69b6
d9b6
19b6
19bc
19b0
1983
1983
18c3
187f
ENDCHAR
STARTCHAR U4ED7
ENCODING 20183
SWIDTH 960 0
DWIDTH 16 0
BBX 16 16 0 -2
BITMAP
0c60
0c60
0c60
1860
1bff
3060
3360
7360
d1a0
31a0
30c0
30c0
31a0
3330
361c
3c07
ENDCHAR
STARTCHAR U4ED8
ENCODING 20184
SWIDTH 960 0
DWIDTH 16 0
BBX 16 16 0 -2
BITMAP
0618
0618
0618
0c18
0dff
1818
1a18
3b18
6998
d998
1998
1818
1818
1818
1818
1838
ENDCHAR
STARTCHAR U4ED9
ENCODING 20185
SWIDTH 960 0
DWIDTH 16 0
BBX 16 16 0 -2
BITMAP
0c60
0c60
0c60
1860
1a66
3666
3666
7666
d666
3666
3666
3666
3666
3666
37fe
3000
ENDCHAR
STARTCHAR U4EDD
ENCODING 20189
SWIDTH 960 0
DWIDTH 16 0
BBX 16 16 0 -2
BITMAP
0180
0180
0340
0660
0c30
381c
e007
0000
1ffc
0180
0180
0180
0180
0180
7ffe
0000
ENDCHAR
STARTCHAR U4EDE
ENCODING 20190
SWIDTH 960 0
DWIDTH 16 0
BBX 16 16 0 -2
BITMAP
0c00
0ffe
0cc6
18c6
18c6
3346
3346
7346
d6c6
34c6
30c6
3186
3186
3306
360c
3438
ENDCHAR
STARTCHAR U4EDF
ENCODING 20191
SWIDTH 960 0
DWIDTH 16 0
BBX 16 16 0 -2
BITMAP
0c0c
0c38
0de0
1860
1860
3060
3060
77ff
d060
3060
3060
3060
3060
3060
3060
3060
ENDCHAR
STARTCHAR U4EE3
ENCODING 20195
SWIDTH 960 0
DWIDTH 16 0
BBX 16 16 0 -2
BITMAP
0c68
0c6c
0c66
1860
1860
387f
3be0
6860
d830
1830
1830
1818
181b
180d
1807
1803
ENDCHAR
STARTCHAR U4EE4
ENCODING 20196
SWIDTH 960 0
DWIDTH 16 0
BBX 16 16 0 -2
BITMAP
0180
0180
0340
0660
0c30
381c
eff7
0000
0000
7ffc
018c
018c
018c
01b8
0180
0180
ENDCHAR
STARTCHAR U4EE5
ENCODING 20197
SWIDTH 960 0
DWIDTH 16 0
BBX 16 16 0 -2
BITMAP
0000
3018
3018
3018
3618
3318
3198
3198
3018
3018
3038
3334
3666
38c6
e183
0703
ENDCHAR
STARTCHAR U4EED
ENCODING 20205
SWIDTH 960 0
DWIDTH 16 0
BBX 16 16 0 -2
BITMAP
0c00
0ffc
0ccc
18cc
18cc
30cc
36cc
734c
d1cc
30f4
30df
318c
318c
330c
3618
3470
ENDCHAR
STARTCHAR U4EEE
ENCODING 20206
SWIDTH 960 0
DWIDTH 16 0
BBX 16 16 0 -2
BITMAP
0c00
0dff
0d00
1b00
1b00
33fc
338c
734c
d358
3368
3670
3630
3468
34cc
3b86
3603
ENDCHAR
STARTCHAR U4EF0
ENCODING 20208
SWIDTH 960 0
DWIDTH 16 0
BBX 16 16 0 -2
BITMAP
0cc0
0d80
0f7e
1a66
1a66
3666
3666
7666
d666
3666
36e6
37a6
366c
3060
3060
3060
ENDCHAR
STARTCHAR U4EF2
ENCODING 20210
SWIDTH 960 0
DWIDTH 16 0
BBX 16 16 0 -2
BITMAP
0c60
0c60
0c60
1860
1bfe
3a66
3a66
6a66
da66
1bfe
1860
1860
1860
1860
1860
1860
ENDCHAR
STARTCHAR U4EF6
ENCODING 20214
SWIDTH 960 0
DWIDTH 16 0
BBX 16 16 0 -2
BITMAP
0c60
0d60
0d60
1b60
1bfe
3660
3660
7460
d060
37ff
3060
3060
3060
3060
3060
3060
ENDCHAR
STARTCHAR U4EF7
ENCODING 20215
SWIDTH 960 0
DWIDTH 16 0
BBX 16 16 0 -2
BITMAP
0c60
0c60
0cd0
18d0
1998
339c
369a
759b
d198
3198
3198
3198
3318
3318
3618
3418
ENDCHAR
STARTCHAR U4EFB
ENCODING 20219
SWIDTH 960 0
DWIDTH 16 0
BBX 16 16 0 -2
BITMAP
0c0c
0c38
0ce0
1ba0
1860
3860
3860
6fff
d860
1860
1860
1860
1860
1bfe
1800
1800
ENDCHAR
STARTCHAR U4F01
ENCODING 20225
SWIDTH 960 0
DWIDTH 16 0
BBX 16 16 0 -2
BITMAP
0180
0180
0340
0660
0c30
399c
e187
0180
19fc
1980
1980
1980
1980
1980
ffff
0000
ENDCHAR
STARTCHAR U4F09
ENCODING 20233
SWIDTH 960 0
DWIDTH 16 0
BBX 16 16 0 -2
BITMAP
0c60
0c60
0c60
1bff
1800
3000
31f0
71b0
d1b0
31b0
31b0
3330
3330
3636
3436
381e
ENDCHAR
STARTCHAR U4F0A
ENCODING 20234
SWIDTH 960 0
DWIDTH 16 0
BBX 16 16 0 -2
BITMAP
0c00
0dfc
0c6c
186c
186c
3fff
386c
686c
d86c
1bfc
1860
1860
18c0
18c0
1980
1b00
ENDCHAR
STARTCHAR U4F0D
ENCODING 20237
SWIDTH 960 0
DWIDTH 16 0
BBX 16 16 0 -2
BITMAP
0c00
0ffe
0cc0
18c0
18c0
30c0
37f8
70d8
d0d8
30d8
3198
3198
3198
3198
37ff
3000
ENDCHAR
STARTCHAR U4F0E
ENCODING 20238
SWIDTH 960 0
DWIDTH 16 0
BBX 16 16 0 -2
BITMAP
0c60
0c60
0c60
1fff
1860
3860
3860
6bfc
d98c
18d8
18d8
1870
1870
18d8
198c
1b07
ENDCHAR
STARTCHAR U4F0F
ENCODING 20239
SWIDTH 960 0
DWIDTH 16 0
BBX 16 16 0 -2
BITMAP
0cc0
0cd8
0ccc
18cc
18c0
37ff
30c0
70c0
d0c0
30e0
31a0
31b0
3318
360c
3406
3803
ENDCHAR
STARTCHAR U4F10
ENCODING 20240
SWIDTH 960 0
DWIDTH 16 0
BBX 16 16 0 -2
BITMAP
0d98
0d8c
0d8c
1980
1fff
318c
318c
70d8
d0d8
30d0
3060
30d0
33b6
361a
300e
3006
ENDCHAR
STARTCHAR U4F11
ENCODING 20241
SWIDTH 960 0
DWIDTH 16 0
BBX 16 16 0 -2
BITMAP
18c0
18c0
18c0
18c0
37fe
31e0
31e0
7350
d350
36d8
36cc
34c6
38c3
30c0
30c0
30c0
ENDCHAR
STARTCHAR U4F1A
ENCODING 20250
SWIDTH 960 0
DWIDTH 16 0
BBX 16 16 0 -2
BITMAP
0180
0180
0340
0660
0c30
381c
eff7
0000
0000
7ffe
0300
0360
0630
0ce8
7f8c
000c
ENDCHAR
STARTCHAR U4F1C
ENCODING 20252
SWIDTH 960 0
DWIDTH 16 0
BBX 16 16 0 -2
BITMAP
0cc0
0cc0
0ff8
18d8
1998
319b
331b
760f
d460
3060
37ff
3060
3060
3060
3060
3060
ENDCHAR
STARTCHAR U4F1D
ENCODING 20253
SWIDTH 960 0
DWIDTH 16 0
BBX 16 16 0 -2
BITMAP
0c00
0c00
0dfc
1800
1800
3000
37ff
70c0
d0c0
30d0
3198
318c
330c
337e
37c6
3006
ENDCHAR
STARTCHAR U4F2F
ENCODING 20271
SWIDTH 960 0
DWIDTH 16 0
BBX 16 16 0 -2
BITMAP
0c60
0c60
0cc0
1bfc
1b0c
330c
330c
730c
d3fc
330c
330c
330c
330c
330c
33fc
3000
ENDCHAR
STARTCHAR U4F30
ENCODING 20272
SWIDTH 960 0
DWIDTH 16 0
BBX 16 16 0 -2
BITMAP
0c60
0c60
0c60
1860
1fff
3060
3060
7060
d060
33fc
330c
330c
330c
330c
33fc
3000
ENDCHAR
STARTCHAR U4F34
ENCODING 20276
SWIDTH 960 0
DWIDTH 16 0
BBX 16 16 0 -2
BITMAP
0c60
0c6c
0d6c
19ac
19a8
3860
3bfe
6860
d860
1860
1fff
1860
1860
1860
1860
1860
ENDCHAR
STARTCHAR U4F36
ENCODING 20278
SWIDTH 960 0
DWIDTH 16 0
BBX 16 16 0 -2
BITMAP
0c60
0c60
0cd0
1998
1b0c
36fa
3403
7000
d7fc
30cc
30cc
30cc
30cc
30d8
30c0
30c0
ENDCHAR
STARTCHAR U4F38
ENCODING 20280
SWIDTH 960 0
DWIDTH 16 0
BBX 16 16 0 -2
BITMAP
0c60
0c60
0c60
1bfe
1a66
3666
3666
77fe
d666
3666
37fe
3060
3060
3060
3060
3060
ENDCHAR
STARTCHAR U4F3A
ENCODING 20282
SWIDTH 960 0
DWIDTH 16 0
BBX 16 16 0 -2
BITMAP
0c00
0ffe
0c06
1806
1bfa
3006
3006
73f6
d336
3336
3336
33f6
3006
3006
3006
300e
ENDCHAR
STARTCHAR U4F3C
ENCODING 20284
SWIDTH 960 0
DWIDTH 16 0
BBX 16 16 0 -2
BITMAP
0c0c
0d0c
0d0c
1b8c
1b4c
336c
336c
730c
d30c
330c
330c
335c
339a
3736
3c63
30c3
ENDCHAR
STARTCHAR U4F3D
ENCODING 20285
SWIDTH 960 0
DWIDTH 16 0
BBX 16 16 0 -2
BITMAP
1a00
1a00
1a3e
3636
3fd6
36d6
76d6
76d6
d6d6
36d6
36d6
36d6
34d6
34de
3b80
3000
ENDCHAR
STARTCHAR U4F43
ENCODING 20291
SWIDTH 960 0
DWIDTH 16 0
BBX 16 16 0 -2
BITMAP
0c00
0dfe
0d66
1b66
1b66
3366
3366
73fe
d366
3366
3366
3366
3366
3366
33fe
3000
ENDCHAR
STARTCHAR U4F46
ENCODING 20294
SWIDTH 960 0
DWIDTH 16 0
BBX 16 16 0 -2
BITMAP
0c00
0dfc
0d0c
1b0c
1b0c
3b0c
3bfc
6b0c
db0c
1b0c
1b0c
1bfc
1800
1800
1fff
1800
ENDCHAR
STARTCHAR U4F47
ENCODING 20295
SWIDTH 960 0
DWIDTH 16 0
BBX 16 16 0 -2
BITMAP
0c60
0c60
0ffe
1a06
1a06
3000
37ff
7060
d060
3060
3060
3060
3060
3060
3060
30e0
ENDCHAR
STARTCHAR U4F4D
ENCODING 20301
SWIDTH 960 0
DWIDTH 16 0
BBX 16 16 0 -2
BITMAP
0c60
0c60
0c60
1860
1bfe
380c
380c
6b0c
d998
1998
1998
19b0
19b0
1860
1fff
1800
ENDCHAR
STARTCHAR U4F4E
ENCODING 20302
SWIDTH 960 0
DWIDTH 16 0
BBX 16 16 0 -2
BITMAP
0c0c
0c38
0df0
1b30
1b30
3330
33ff
7330
d330
3318
3318
33d8
360c
300d
37f7
3003
ENDCHAR
STARTCHAR U4F4F
ENCODING 20303
SWIDTH 960 0
DWIDTH 16 0
BBX 16 16 0 -2
BITMAP
0cc0
0c60
0c60
1bfe
1860
3060
3060
7060
d7fe
3060
3060
3060
3060
3060
37ff
3000
ENDCHAR
STARTCHAR U4F50
ENCODING 20304
SWIDTH 960 0
DWIDTH 16 0
BBX 16 16 0 -2
BITMAP
0cc0
0cc0
0cc0
1bff
18c0
30c0
3180
7180
d3fe
3360
3660
3460
3060
3060
37ff
3000
ENDCHAR
STARTCHAR U4F51
ENCODING 20305
SWIDTH 960 0
DWIDTH 16 0
BBX 16 16 0 -2
BITMAP
0cc0
0cc0
0cc0
1fff
18c0
30c0
3180
7180
d3fc
338c
368c
358c
318c
318c
31fc
3000
ENDCHAR
STARTCHAR U4F53
ENCODING 20307
SWIDTH 960 0
DWIDTH 16 0
BBX 16 16 0 -2
BITMAP
1860
1860
1860
1860
37ff
30f0
30f0
71a8
d1a8
336c
3666
35fd
3060
3060
3060
3060
ENDCHAR
STARTCHAR U4F55
ENCODING 20309
SWIDTH 960 0
DWIDTH 16 0
BBX 16 16 0 -2
BITMAP
0c00
0c00
0fff
180c
180c
37ec
366c
766c
d66c
366c
37ec
300c
300c
300c
300c
301c
ENDCHAR
STARTCHAR U4F57
ENCODING 20311
SWIDTH 960 0
DWIDTH 16 0
BBX 16 16 0 -2
BITMAP
0c60
0c60
0c60
1bfe
1a06
3686
3180
718c
d1b8
31e0
3180
3180
3180
3186
30c6
307e
ENDCHAR
STARTCHAR U4F59
ENCODING 20313
SWIDTH 960 0
DWIDTH 16 0
BBX 16 16 0 -2
BITMAP
0180
0180
0340
0660
0c30
381c
effb
0180
0180
7ffe
0180
0db0
0d98
198c
318c
0380
ENDCHAR
STARTCHAR U4F5A
ENCODING 20314
SWIDTH 960 0
DWIDTH 16 0
BBX 16 16 0 -2
BITMAP
0c60
0d60
0d60
1b60
1bfe
3660
3660
7460
d7ff
3070
30d0
30d8
3198
330c
3606
3403
ENDCHAR
STARTCHAR U4F5B
ENCODING 20315
SWIDTH 960 0
DWIDTH 16 0
BBX 16 16 0 -2
BITMAP
0db0
0db0
0ffe
19b6
19b6
37fe
36b0
76b0
d7ff
31b3
31b3
31b3
3336
333c
3630
3430
ENDCHAR
STARTCHAR U4F5C
ENCODING 20316
SWIDTH 960 0
DWIDTH 16 0
BBX 16 16 0 -2
BITMAP
0d80
0d80
0d80
19ff
1b60
3b60
3a60
6c7e
d860
1860
1860
187e
1860
1860
1860
1860
ENDCHAR
STARTCHAR U4F5D
ENCODING 20317
SWIDTH 960 0
DWIDTH 16 0
BBX 16 16 0 -2
BITMAP
0d80
0d80
0d80
19fe
1b06
3306
37f6
7536
d336
3336
3336
33f6
3006
3006
300c
3038
ENDCHAR
STARTCHAR U4F5E
ENCODING 20318
SWIDTH 960 0
DWIDTH 16 0
BBX 16 16 0 -2
BITMAP
0c00
0dfc
0c00
1800
1800
37ff
30c0
70c0
d7ff
3198
3198
3330
37f0
3068
31cc
3706
ENDCHAR
STARTCHAR U4F69
ENCODING 20329
SWIDTH 960 0
DWIDTH 16 0
BBX 16 16 0 -2
BITMAP
1800
1bfc
1a0c
1a0c
37fc
36cc
76cc
77f4
d754
3754
3754
3754
3575
354d
38c7
30c3
ENDCHAR
STARTCHAR U4F6F
ENCODING 20335
SWIDTH 960 0
DWIDTH 16 0
BBX 16 16 0 -2
BITMAP
0d8c
0ccc
0cd8
1bfe
1860
3060
3060
73fc
d060
3060
3060
37ff
3060
3060
3060
3060
ENDCHAR
STARTCHAR U4F70
ENCODING 20336
SWIDTH 960 0
DWIDTH 16 0
BBX 16 16 0 -2
BITMAP
0c00
0fff
0c60
1860
18c0
33fc
330c
730c
d30c
33fc
330c
330c
330c
330c
33fc
3000
ENDCHAR
STARTCHAR U4F73
ENCODING 20339
SWIDTH 960 0
DWIDTH 16 0
BBX 16 16 0 -2
BITMAP
0c60
0c60
0dfc
1860
1860
3860
6bfe
6860
d860
1860
1bfc
1860
1860
1860
1bfe
1800
ENDCHAR
STARTCHAR U4F75
ENCODING 20341
SWIDTH 960 0
DWIDTH 16 0
BBX 16 16 0 -2
BITMAP
0d0c
0d8c
0d98
1bfe
1998
3198
3198
7198
d7ff
3198
3198
3198
3198
3318
3318
3618
ENDCHAR
STARTCHAR U4F76
ENCODING 20342
SWIDTH 960 0
DWIDTH 16 0
BBX 16 16 0 -2
BITMAP
0c60
0c60
0c60
1fff
1860
3060
3060
77fe
d000
3000
33fc
330c
330c
330c
33fc
3000
ENDCHAR
STARTCHAR U4F7B
ENCODING 20347
SWIDTH 960 0
DWIDTH 16 0
BBX 16 16 0 -2
BITMAP
0db0
0db0
0db6
19b6
1db4
36b0
36b0
71b8
d1b4
33b6
36b3
3db0
3330
3333
3633
341f
ENDCHAR
STARTCHAR U4F7C
ENCODING 20348
SWIDTH 960 0
DWIDTH 16 0
BBX 16 16 0 -2
BITMAP
0c60
0c60
0c60
1bff
1998
318c
331a
769a
d598
30d0
30d0
3060
30d0
3198
330c
3607
ENDCHAR
STARTCHAR U4F7F
ENCODING 20351
SWIDTH 960 0
DWIDTH 16 0
BBX 16 16 0 -2
BITMAP
0c60
0c60
0fff
1860
1860
37fe
3666
7666
d666
37fe
31a0
30c0
30e0
31b0
371c
3c07
ENDCHAR
STARTCHAR U4F83
ENCODING 20355
SWIDTH 960 0
DWIDTH 16 0
BBX 16 16 0 -2
BITMAP
0c00
0dfc
0d0c
1b0c
1b0c
33fc
3000
736c
d36c
336c
336c
336c
336c
366d
366d
3407
ENDCHAR
STARTCHAR U4F86
ENCODING 20358
SWIDTH 960 0
DWIDTH 16 0
BBX 16 16 0 -2
BITMAP
0180
0180
ffff
1998
1998
1d9c
35b4
36b6
61a0
03c0
06a0
0db0
399c
e187
0180
0180
ENDCHAR
STARTCHAR U4F88
ENCODING 20360
SWIDTH 960 0
DWIDTH 16 0
BBX 16 16 0 -2
BITMAP
0cc0
0cc0
0cf8
1998
1bb0
36d0
3060
70d0
d3be
3666
30ec
33b4
3018
3030
30e0
3780
ENDCHAR
STARTCHAR U4F8B
ENCODING 20363
SWIDTH 960 0
DWIDTH 16 0
BBX 16 16 0 -2
BITMAP
1806
1ff6
1b36
3336
3336
33d6
76d6
76d6
d756
35d6
39b6
3186
3306
3306
3606
340e
ENDCHAR
STARTCHAR U4F8D
ENCODING 20365
SWIDTH 960 0
DWIDTH 16 0
BBX 16 16 0 -2
BITMAP
0c60
0c60
0dfe
1860
1860
3060
37ff
7018
d018
37fe
3318
3198
3198
3198
3018
3038
ENDCHAR
STARTCHAR U4F8F
ENCODING 20367
SWIDTH 960 0
DWIDTH 16 0
BBX 16 16 0 -2
BITMAP
0c60
0da0
0da0
19fe
1b60
3660
3060
77ff
d0f0
30f0
31a8
3368
366c
3466
3063
3060
ENDCHAR
STARTCHAR U4F91
ENCODING 20369
SWIDTH 960 0
DWIDTH 16 0
BBX 16 16 0 -2
BITMAP
0cc0
0cc0
0fff
18c0
1980
31fc
338c
738c
d6fc
358c
318c
31fc
318c
318c
318c
319c
ENDCHAR
STARTCHAR U4F96
ENCODING 20374
SWIDTH 960 0
DWIDTH 16 0
BBX 16 16 0 -2
BITMAP
0180
0180
0340
0670
1c1c
77fb
0000
0000
1ffc
1b6c
1b6c
1ffc
1b6c
1b6c
1b6c
1b6c
ENDCHAR
STARTCHAR U4F98
ENCODING 20376
SWIDTH 960 0
DWIDTH 16 0
BBX 16 16 0 -2
BITMAP
0c60
0c60
0ffe
1a06
1a1a
3070
37c0
70c0
d0c0
30ff
37c0
30c0
30c0
30c6
3066
303e
ENDCHAR
STARTCHAR U4F9B
ENCODING 20379
SWIDTH 960 0
DWIDTH 16 0
BBX 16 16 0 -2
BITMAP
0d98
0d98
0d98
1998
1bfe
3998
3998
6998
d998
1fff
1800
1998
198c
1b0c
1a06
1c06
ENDCHAR
STARTCHAR U4F9D
ENCODING 20381
SWIDTH 960 0
DWIDTH 16 0
BBX 16 16 0 -2
BITMAP
0c60
0c60
0c60
1fff
19c0
31a6
31a6
736c
d76c
3538
3b30
3318
3318
336c
3386
3603
ENDCHAR
STARTCHAR U4FA0
ENCODING 20384
SWIDTH 960 0
DWIDTH 16 0
BBX 16 16 0 -2
BITMAP
0cc0
0cc0
0ffe
18c0
1ad8
3358
3358
7350
d0c0
3fff
30e0
31a0
31b0
3318
360c
3c06
ENDCHAR
STARTCHAR U4FA1
ENCODING 20385
SWIDTH 960 0
DWIDTH 16 0
BBX 16 16 0 -2
BITMAP
0c00
0c00
0fff
18d0
18d0
30d0
37fe
76d6
d6d6
36d6
36d6
36d6
36d6
36d6
37fe
3000
ENDCHAR
STARTCHAR U4FAB
ENCODING 20395
SWIDTH 960 0
DWIDTH 16 0
BBX 16 16 0 -2
BITMAP
0c60
0c60
0dff
0d00
1b00
31fe
30c0
70c0
d7ff
3198
3198
3330
37f0
3068
31cc
3706
ENDCHAR
STARTCHAR U4FAD
ENCODING 20397
SWIDTH 960 0
DWIDTH 16 0
BBX 16 16 0 -2
BITMAP
0c00
0dfc
0d0c
1b0c
1b0c
33fc
3330
7330
d618
36cc
3466
3833
3380
30e0
3030
3018
ENDCHAR
STARTCHAR U4FAE
ENCODING 20398
SWIDTH 960 0
DWIDTH 16 0
BBX 16 16 0 -2
BITMAP
0d80
0d80
0dff
1b00
1b00
36fc
35ac
71ac
d7ff
336c
336c
336c
37ff
360c
3018
3070
ENDCHAR
STARTCHAR U4FAF
ENCODING 20399
SWIDTH 960 0
DWIDTH 16 0
BBX 16 16 0 -2
BITMAP
0c00
0df8
0c18
1818
1fff
3180
3180
71fc
d360
3660
37ff
3060
30d0
3198
330c
3607
ENDCHAR
STARTCHAR U4FB5
ENCODING 20405
SWIDTH 960 0
DWIDTH 16 0
BBX 16 16 0 -2
BITMAP
0c00
0dfc
0c0c
19fc
180c
33fc
3000
77ff
d403
37fb
3198
30d0
3060
30d0
339c
3607
ENDCHAR
STARTCHAR U4FB6
ENCODING 20406
SWIDTH 960 0
DWIDTH 16 0
BBX 16 16 0 -2
BITMAP
0c00
0dfc
0d0c
1b0c
1b0c
33fc
3060
7060
d0c0
37fe
3606
3606
3606
3606
37fe
3000
ENDCHAR
STARTCHAR U4FBF
ENCODING 20415
SWIDTH 960 0
DWIDTH 16 0
BBX 16 16 0 -2
BITMAP
0c00
0fff
0c60
1bfe
1b66
3b66
3bfe
6b66
db66
1bfe
19a0
18c0
18e0
19b0
1b1c
1c07
ENDCHAR
STARTCHAR U4FC2
ENCODING 20418
SWIDTH 960 0
DWIDTH 16 0
BBX 16 16 0 -2
BITMAP
0c0e
0c78
0fc0
18d8
1998
3730
31a0
70d8
d18c
37fe
3066
3368
336c
3666
3466
3060
ENDCHAR
STARTCHAR U4FC3
ENCODING 20419
SWIDTH 960 0
DWIDTH 16 0
BBX 16 16 0 -2
BITMAP
0c00
0dfe
0d06
1b06
1b06
3306
33fe
7060
d060
3360
337e
3360
36a0
36e0
3470
381f
ENDCHAR
STARTCHAR U4FC4
ENCODING 20420
SWIDTH 960 0
DWIDTH 16 0
BBX 16 16 0 -2
BITMAP
0cd0
0db4
0f36
1b36
1b30
3fff
3330
7336
d356
33b4
3718
333a
336a
334e
338e
3706
ENDCHAR
STARTCHAR U4FCA
ENCODING 20426
SWIDTH 960 0
DWIDTH 16 0
BBX 16 16 0 -2
BITMAP
0cc0
0cd0
0d9c
1bfa
19b0
31b3
331f
7680
d5f8
3198
3398
36d0
3460
30d0
339c
3607
ENDCHAR
STARTCHAR U4FCE
ENCODING 20430
SWIDTH 960 0
DWIDTH 16 0
BBX 16 16 0 -2
BITMAP
1800
18fc
18cc
34cc
36cc
637c
c0cc
18cc
18cc
18fc
34cc
36cc
634c
c0cc
07ff
0000
ENDCHAR
STARTCHAR U4FD0
ENCODING 20432
SWIDTH 960 0
DWIDTH 16 0
BBX 16 16 0 -2
BITMAP
18c6
1bb6
1f36
3336
3336
3fd6
7336
7336
d7b6
3756
3556
3536
3b06
3306
3306
330e
ENDCHAR
STARTCHAR U4FD1
ENCODING 20433
SWIDTH 960 0
DWIDTH 16 0
BBX 16 16 0 -2
BITMAP
0c00
0ffc
0c18
19d0
1860
37fe
3666
7666
d7fe
3666
3666
37fe
3666
3666
3666
366e
ENDCHAR
STARTCHAR U4FD4
ENCODING 20436
SWIDTH 960 0
DWIDTH 16 0
BBX 16 16 0 -2
BITMAP
0c00
0dfc
0d0c
1b0c
1bfc
330c
33fc
730c
d30c
33fc
30d0
30d0
31b0
3333
3633
3c1f
ENDCHAR
STARTCHAR U4FD7
ENCODING 20439
SWIDTH 960 0
DWIDTH 16 0
BBX 16 16 0 -2
BITMAP
0d98
0d8c
0d8c
1b66
1a66
30d0
30d0
7198
d30c
37fe
350d
330c
330c
330c
33fc
3000
ENDCHAR
STARTCHAR U4FD8
ENCODING 20440
SWIDTH 960 0
DWIDTH 16 0
BBX 16 16 0 -2
BITMAP
0c0c
0c78
0fcc
1b66
1b66
3603
35fd
7018
d030
3060
37ff
3060
3060
3060
3060
30e0
ENDCHAR
STARTCHAR U4FDA
ENCODING 20442
SWIDTH 960 0
DWIDTH 16 0
BBX 16 16 0 -2
BITMAP
0c00
0dfc
0d6c
1b6c
1bfc
336c
336c
73fc
d060
3060
37fe
3060
3060
3060
37ff
3000
ENDCHAR
STARTCHAR U4FDB
ENCODING 20443
SWIDTH 960 0
DWIDTH 16 0
BBX 16 16 0 -2
BITMAP
0cc0
0cf8
0d98
1b30
1b60
37fe
3566
7366
d346
33fe
30d0
30d0
31b0
3333
3633
3c1f
ENDCHAR
STARTCHAR U4FDD
ENCODING 20445
SWIDTH 960 0
DWIDTH 16 0
BBX 16 16 0 -2
BITMAP
0c00
0dfc
0d0c
1b0c
1b0c
33fc
3060
7060
d7ff
30f0
31a8
336c
3666
3463
3060
3060
ENDCHAR
STARTCHAR U4FDF
ENCODING 20447
SWIDTH 960 0
DWIDTH 16 0
BBX 16 16 0 -2
BITMAP
0cc0
0cd0
0cdc
19ba
1be3
3180
3180
73fe
d360
3660
37ff
30d0
30d8
318c
3706
3c03
ENDCHAR
STARTCHAR U4FE1
ENCODING 20449
SWIDTH 960 0
DWIDTH 16 0
BBX 16 16 0 -2
BITMAP
1800
1bf8
1800
1fff
3000
37fc
7000
7000
d7fc
3000
37fc
360c
360c
360c
37fc
3000
ENDCHAR
STARTCHAR U4FE3
ENCODING 20451
SWIDTH 960 0
DWIDTH 16 0
BBX 16 16 0 -2
BITMAP
0c00
0dfc
0d0c
1b0c
1b0c
33fc
3000
77fe
d060
3060
37ff
30d0
30d8
318c
3306
3603
ENDCHAR
STARTCHAR U4FE4
ENCODING 20452
SWIDTH 960 0
DWIDTH 16 0
BBX 16 16 0 -2
BITMAP
0d18
0d98
0db0
1ffe
1866
3066
37fe
7660
d660
37fe
30e6
31a6
3366
3666
346c
3060
ENDCHAR
STARTCHAR U4FE5
ENCODING 20453
SWIDTH 960 0
DWIDTH 16 0
BBX 16 16 0 -2
BITMAP
0c60
0c60
0fff
1860
1bfc
336c
336c
73fc
d36c
336c
33fc
3060
37ff
3060
3060
3060
ENDCHAR
STARTCHAR U4FEE
ENCODING 20462
SWIDTH 960 0
DWIDTH 16 0
BBX 16 16 0 -2
BITMAP
0cc0
0cc0
0cff
1998
1b98
36d0
3470
75dc
d737
34ec
35b8
34e6
358c
3438
30e0
3780
ENDCHAR
STARTCHAR U4FEF
ENCODING 20463
SWIDTH 960 0
DWIDTH 16 0
BBX 16 16 0 -2
BITMAP
0c60
0c60
0fff
1a00
1acc
36cc
36ff
768c
d6ac
37b4
36b4
368c
358c
358c
398c
319c
ENDCHAR
STARTCHAR U4FF3
ENCODING 20467
SWIDTH 960 0
DWIDTH 16 0
BBX 16 16 0 -2
BITMAP
0db0
0db0
0db0
1fbe
19b0
31b0
31b0
77be
d1b0
31b0
37b0
3dbf
3330
3330
3630
3430
ENDCHAR
STARTCHAR U4FF5
ENCODING 20469
SWIDTH 960 0
DWIDTH 16 0
BBX 16 16 0 -2
BITMAP
0c60
0c60
0ffe
1860
1bfe
3060
3060
77ff
d1a0
336c
3734
3538
3318
330c
33c6
3603
ENDCHAR
STARTCHAR U4FF6
ENCODING 20470
SWIDTH 960 0
DWIDTH 16 0
BBX 16 16 0 -2
BITMAP
1b00
1b7e
1b06
3be6
3336
7336
7ff4
d334
3334
3598
3558
355c
3b34
3366
3746
3183
ENDCHAR
STARTCHAR U4FF8
ENCODING 20472
SWIDTH 960 0
DWIDTH 16 0
BBX 16 16 0 -2
BITMAP
0c60
0c60
0ffe
1860
1bfe
30d0
37ff
7198
d36c
3667
33fc
3060
37ff
3060
3060
3060
ENDCHAR
STARTCHAR U4FFA
ENCODING 20474
SWIDTH 960 0
DWIDTH 16 0
BBX 16 16 0 -2
BITMAP
0cc0
0cc0
0fff
19a0
19d0
3358
37fc
76da
dadb
37f8
36d8
36d8
37f8
30c6
30c6
307e
ENDCHAR
STARTCHAR U4FFE
ENCODING 20478
SWIDTH 960 0
DWIDTH 16 0
BBX 16 16 0 -2
BITMAP
0c60
0cc0
0ffc
1a6c
1a6c
37fc
366c
766c
d7fc
31b0
3330
37ff
3030
3030
3030
3030
ENDCHAR
STARTCHAR U5005
ENCODING 20485
SWIDTH 960 0
DWIDTH 16 0
BBX 16 16 0 -2
BITMAP
0c60
0c60
0fff
1b18
1b18
339c
36d6
7460
d060
37ff
3060
3060
3060
3060
3060
3060
ENDCHAR
STARTCHAR U5006
ENCODING 20486
SWIDTH 960 0
DWIDTH 16 0
BBX 16 16 0 -2
BITMAP
1800
1fff
1860
1860
37fe
3666
7666
77fe
d6ee
36aa
36aa
3776
3666
3666
3666
366e
ENDCHAR
STARTCHAR U5009
ENCODING 20489
SWIDTH 960 0
DWIDTH 16 0
BBX 16 16 0 -2
BITMAP
0180
0180
0340
0660
0ff0
381c
eff7
0c30
0ff0
0c30
0ff0
1800
1ff8
3418
6ff8
0000
ENDCHAR
STARTCHAR U500B
ENCODING 20491
SWIDTH 960 0
DWIDTH 16 0
BBX 16 16 0 -2
BITMAP
0c00
0ffe
0e66
1a66
1a66
37fe
3666
7666
d6fa
369a
369a
36fa
3606
3606
37fe
3000
ENDCHAR
STARTCHAR U500D
ENCODING 20493
SWIDTH 960 0
DWIDTH 16 0
BBX 16 16 0 -2
BITMAP
0c60
0c60
0ffe
1b0c
198c
3198
3198
77ff
d000
3000
33fc
330c
330c
330c
33fc
3000
ENDCHAR
STARTCHAR U500F
ENCODING 20495
SWIDTH 960 0
DWIDTH 16 0
BBX 16 16 0 -2
BITMAP
0c60
0c7c
0ccc
1998
1b50
3470
35dc
7707
d468
346c
346c
37ff
3470
30d8
338c
3607
ENDCHAR
STARTCHAR U5011
ENCODING 20497
SWIDTH 960 0
DWIDTH 16 0
BBX 16 16 0 -2
BITMAP
1800
1bde
1ad6
1bde
36d6
36d6
77de
7606
d606
3606
3606
3606
3606
3606
3606
360e
ENDCHAR
STARTCHAR U5012
ENCODING 20498
SWIDTH 960 0
DWIDTH 16 0
BBX 16 16 0 -2
BITMAP
1806
1ffa
1b1a
335a
336a
36ea
77ba
7dba
d19a
37ea
319a
319a
31b6
33c6
3606
300e
ENDCHAR
STARTCHAR U5014
ENCODING 20500
SWIDTH 960 0
DWIDTH 16 0
BBX 16 16 0 -2
BITMAP
0c00
0ffe
0e06
1a06
1bfe
3630
36b6
76b6
d6b6
36fe
3630
36b6
35b6
35b6
39fe
3000
ENDCHAR
STARTCHAR U5016
ENCODING 20502
SWIDTH 960 0
DWIDTH 16 0
BBX 16 16 0 -2
BITMAP
0c60
0c60
0dfe
1860
1860
37ff
3318
7198
d1b0
37fe
3060
3060
37fe
3060
3060
3060
ENDCHAR
STARTCHAR U5019
ENCODING 20505
SWIDTH 960 0
DWIDTH 16 0
BBX 16 16 0 -2
BITMAP
1800
1bf8
1818
3418
37ff
3580
7580
75fe
d560
3660
37ff
3470
34d0
3598
330c
3607
ENDCHAR
STARTCHAR U501A
ENCODING 20506
SWIDTH 960 0
DWIDTH 16 0
BBX 16 16 0 -2
BITMAP
0c60
0c60
0ffe
18d0
1998
370c
3000
77ff
d00c
37ec
366c
366c
37ec
300c
300c
301c
ENDCHAR
STARTCHAR U501F
ENCODING 20511
SWIDTH 960 0
DWIDTH 16 0
BBX 16 16 0 -2
BITMAP
0d98
0d98
0d98
1bfe
1998
3198
37ff
7000
d3fc
330c
330c
33fc
330c
330c
33fc
3000
ENDCHAR
STARTCHAR U5021
ENCODING 20513
SWIDTH 960 0
DWIDTH 16 0
BBX 16 16 0 -2
BITMAP
0c00
0dfc
0d0c
1b0c
1bfc
330c
330c
73fc
d000
37fe
3606
37fe
3606
3606
37fe
3000
ENDCHAR
STARTCHAR U5023
ENCODING 20515
SWIDTH 960 0
DWIDTH 16 0
BBX 16 16 0 -2
BITMAP
0d30
0d30
0d30
1fff
1a36
3636
37e6
76f4
d6d4
36d4
36d8
34d8
34d4
38ec
30c6
3383
ENDCHAR
STARTCHAR U5024
ENCODING 20516
SWIDTH 960 0
DWIDTH 16 0
BBX 16 16 0 -2
BITMAP
0c30
0c30
0fff
1830
1afc
368c
368c
76fc
d68c
36fc
368c
368c
36fc
3600
37ff
3000
ENDCHAR
STARTCHAR U5025
ENCODING 20517
SWIDTH 960 0
DWIDTH 16 0
BBX 16 16 0 -2
BITMAP
0c60
0c60
0fff
1ad3
1ad3
36d0
31b6
731e
d600
33fc
3060
3060
3060
3060
37ff
3000
ENDCHAR
STARTCHAR U5026
ENCODING 20518
SWIDTH 960 0
DWIDTH 16 0
BBX 16 16 0 -2
BITMAP
0d6c
0dac
0da8
1ffe
18d0
30d0
37ff
7198
d30c
36f6
3433
3030
33f0
330c
330c
31fc
ENDCHAR
STARTCHAR U5028
ENCODING 20520
SWIDTH 960 0
DWIDTH 16 0
BBX 16 16 0 -2
BITMAP
0c00
0dfe
0d06
1b06
1bfe
3330
3330
73ff
d330
3330
36fe
3686
3586
3986
31fe
3000
ENDCHAR
STARTCHAR U5029
ENCODING 20521
SWIDTH 960 0
DWIDTH 16 0
BBX 16 16 0 -2
BITMAP
0c60
0c60
0ffe
1860
1bfc
3060
37ff
7000
d3fc
336c
336c
33fc
330c
330c
330c
331c
ENDCHAR
STARTCHAR U502A
ENCODING 20522
SWIDTH 960 0
DWIDTH 16 0
BBX 16 16 0 -2
BITMAP
0c60
0cc0
0fbc
1a0c
1a0c
37bc
360c
760c
d7fc
30d0
30d0
31b0
31b3
3333
3633
341f
ENDCHAR
STARTCHAR U502B
ENCODING 20523
SWIDTH 960 0
DWIDTH 16 0
BBX 16 16 0 -2
BITMAP
0c60
0ce0
0cd0
1998
1b0c
36fb
3000
7000
d7fe
36d6
36d6
37fe
36d6
36d6
36d6
36d6
ENDCHAR
STARTCHAR U502C
ENCODING 20524
SWIDTH 960 0
DWIDTH 16 0
BBX 16 16 0 -2
BITMAP
0c60
0c60
0c7f
1860
1bfc
330c
330c
73fc
d30c
330c
33fc
3060
37ff
3060
3060
3060
ENDCHAR
STARTCHAR U502D
ENCODING 20525
SWIDTH 960 0
DWIDTH 16 0
BBX 16 16 0 -2
BITMAP
0c18
0c70
0de0
1860
1fff
30f0
33ac
7667
d0e0
37ff
30d8
3198
33d0
30f0
3398
360c
ENDCHAR
STARTCHAR U5036
ENCODING 20534
SWIDTH 960 0
DWIDTH 16 0
BBX 16 16 0 -2
BITMAP
0c00
0dfc
0d0c
1b0c
1bfc
330c
330c
73fc
d30c
330c
33fc
3000
37ff
31b8
330c
3606
ENDCHAR
STARTCHAR U5039
ENCODING 20537
SWIDTH 960 0
DWIDTH 16 0
BBX 16 16 0 -2
BITMAP
0c60
0c60
0cd0
1998
1b0c
3bfe
3c63
6bfc
db6c
1b6c
1bfc
1870
18d0
1998
1b0c
1e07
ENDCHAR
STARTCHAR U5043
ENCODING 20547
SWIDTH 960 0
DWIDTH 16 0
BBX 16 16 0 -2
BITMAP
1800
1bff
1a00
36fe
36c6
76fe
76c6
d6fe
3630
37ff
366c
36f8
3634
36e6
37ff
3600
ENDCHAR
STARTCHAR U5047
ENCODING 20551
SWIDTH 960 0
DWIDTH 16 0
BBX 16 16 0 -2
BITMAP
0c00
0fde
0ec6
1ac6
1ac6
37de
3600
76fe
d7ac
366c
3634
37b8
3618
3634
3666
36c3
ENDCHAR
STARTCHAR U5048
ENCODING 20552
SWIDTH 960 0
DWIDTH 16 0
BBX 16 16 0 -2
BITMAP
0c00
0dfc
0d0c
1bfc
1b0c
330c
33fc
7180
d3fe
3666
3d76
3356
3386
33fa
3006
303c
ENDCHAR
STARTCHAR U5049
ENCODING 20553
SWIDTH 960 0
DWIDTH 16 0
BBX 16 16 0 -2
BITMAP
0c60
0dfc
0ccc
18cc
1fff
3000
33fc
730c
d3fc
3030
33fe
3330
3330
37ff
3030
3030
ENDCHAR
STARTCHAR U504F
ENCODING 20559
SWIDTH 960 0
DWIDTH 16 0
BBX 16 16 0 -2
BITMAP
0c00
0ffe
0c00
1bfc
1a0c
360c
37fc
7600
d7fe
36d6
36d6
37fe
3ad6
36d6
36d6
360e
ENDCHAR
STARTCHAR U5050
ENCODING 20560
SWIDTH 960 0
DWIDTH 16 0
BBX 16 16 0 -2
BITMAP
0c60
0fff
0cd8
1870
19dc
37ff
3618
7630
d6e6
378c
3618
3673
35c6
341c
3870
33c0
ENDCHAR
STARTCHAR U5055
ENCODING 20565
SWIDTH 960 0
DWIDTH 16 0
BBX 16 16 0 -2
BITMAP
0d30
0d76
0ddc
1b30
1b30
3373
33df
7660
d0c0
33fc
330c
33fc
330c
330c
33fc
3000
ENDCHAR
STARTCHAR U5056
ENCODING 20566
SWIDTH 960 0
DWIDTH 16 0
BBX 16 16 0 -2
BITMAP
0cc0
0ccc
0ffc
18d8
18d8
30d0
37ff
70d8
d18c
31fc
338c
36fc
358c
318c
31fc
3000
ENDCHAR
STARTCHAR U505A
ENCODING 20570
SWIDTH 960 0
DWIDTH 16 0
BBX 16 16 0 -2
BITMAP
1b30
1b30
1b30
1fdf
336c
336c
734c
7334
d7d4
34d4
34d8
34d8
37d4
306c
30c6
3383
ENDCHAR
STARTCHAR U505C
ENCODING 20572
SWIDTH 960 0
DWIDTH 16 0
BBX 16 16 0 -2
BITMAP
0c60
0c60
0fff
1800
1bfc
330c
33fc
7000
37ff
3403
35fd
3060
3060
3060
3060
30e0
ENDCHAR
STARTCHAR U5065
ENCODING 20581
SWIDTH 960 0
DWIDTH 16 0
BBX 16 16 0 -2
BITMAP
1818
1fbe
199a
1b1a
337f
361a
779a
71be
d698
36be
3698
337f
3318
3698
34e0
383f
ENDCHAR
STARTCHAR U506C
ENCODING 20588
SWIDTH 960 0
DWIDTH 16 0
BBX 16 16 0 -2
BITMAP
0d80
0d80
0dfe
1b6a
1b6a
36ea
34da
71b6
d366
301c
36a0
36b6
36b3
358d
38cd
307c
ENDCHAR
STARTCHAR U5072
ENCODING 20594
SWIDTH 960 0
DWIDTH 16 0
BBX 16 16 0 -2
BITMAP
0c00
0dfe
0d66
1b66
1bfe
3366
3366
7366
d3fe
3060
31b0
36b6
3683
368d
358c
30fc
ENDCHAR
STARTCHAR U5074
ENCODING 20596
SWIDTH 960 0
DWIDTH 16 0
BBX 16 16 0 -2
BITMAP
1806
1fd6
1cd6
34d6
37d6
74d6
74d6
d4d6
37d6
34d6
34d6
37d6
3686
36c6
34c6
380e
ENDCHAR
STARTCHAR U5075
ENCODING 20597
SWIDTH 960 0
DWIDTH 16 0
BBX 16 16 0 -2
BITMAP
0c60
0c60
0c7f
1860
1bfc
3b0c
3b0c
6bfc
db0c
1bfc
1b0c
1b0c
1bfc
19b8
1b0c
1e06
ENDCHAR
STARTCHAR U5076
ENCODING 20598
SWIDTH 960 0
DWIDTH 16 0
BBX 16 16 0 -2
BITMAP
0c00
0ffc
0e6c
1a6c
1bfc
366c
366c
77fc
d060
37fe
3476
346a
3476
35ce
3406
340e
ENDCHAR
STARTCHAR U5078
ENCODING 20600
SWIDTH 960 0
DWIDTH 16 0
BBX 16 16 0 -2
BITMAP
0de0
0c60
0cd0
1998
1b0c
3dfb
3000
77d6
d6d6
3756
36ec
376c
36ec
36d6
36d6
36d6
ENDCHAR
STARTCHAR U507D
ENCODING 20605
SWIDTH 960 0
DWIDTH 16 0
BBX 16 16 0 -2
BITMAP
1a60
1b60
1b60
1bf8
30d8
30d8
31fc
718c
d30c
33fe
3636
355a
3aaa
36a6
3406
301c
ENDCHAR
STARTCHAR U5080
ENCODING 20608
SWIDTH 960 0
DWIDTH 16 0
BBX 16 16 0 -2
BITMAP
0c60
0cc0
0ffc
1acc
1acc
37fc
36cc
76cc
d7fc
31ac
31ac
336a
337e
3663
3433
381f
ENDCHAR
STARTCHAR U5085
ENCODING 20613
SWIDTH 960 0
DWIDTH 16 0
BBX 16 16 0 -2
BITMAP
0c6c
0c66
0fff
1860
1bfc
366c
37fc
766c
d7fc
366c
3018
37ff
3318
3198
3198
3038
ENDCHAR
STARTCHAR U508D
ENCODING 20621
SWIDTH 960 0
DWIDTH 16 0
BBX 16 16 0 -2
BITMAP
0c60
0c60
0ffe
1998
18d0
37fe
3606
7666
d060
37fe
30c0
30fc
30cc
318c
330c
3638
ENDCHAR
STARTCHAR U5091
ENCODING 20625
SWIDTH 960 0
DWIDTH 16 0
BBX 16 16 0 -2
BITMAP
0d0c
0dcc
0d7f
1b54
1ad4
35b4
31bf
730c
d66c
3060
37ff
30e8
31ac
3366
3663
3060
ENDCHAR
STARTCHAR U5098
ENCODING 20632
SWIDTH 960 0
DWIDTH 16 0
BBX 16 16 0 -2
BITMAP
0180
0180
0340
0e70
399c
e99b
1998
35b4
6aaa
1998
35b4
66a6
ffff
0180
0180
0180
ENDCHAR
STARTCHAR U5099
ENCODING 20633
SWIDTH 960 0
DWIDTH 16 0
BBX 16 16 0 -2
BITMAP
0d98
0d98
0ffe
1998
1998
37ff
3600
76fe
d6b6
36fe
36b6
36b6
35fe
35b6
39b6
318e
ENDCHAR
STARTCHAR U509A
ENCODING 20634
SWIDTH 960 0
DWIDTH 16 0
BBX 16 16 0 -2
BITMAP
1b30
1b30
1b30
3fdf
3034
36ac
76ac
74d4
dab4
36b4
3318
3398
36dc
3634
3466
39c3
ENDCHAR
STARTCHAR U50AC
ENCODING 20652
SWIDTH 960 0
DWIDTH 16 0
BBX 16 16 0 -2
BITMAP
0c60
0d66
0d66
1bfe
1998
31b0
33fe
7330
d730
35fe
3330
33fe
3330
3330
33ff
3000
ENDCHAR
STARTCHAR U50AD
ENCODING 20653
SWIDTH 960 0
DWIDTH 16 0
BBX 16 16 0 -2
BITMAP
0c60
0fff
0e30
1afe
1a36
37ff
3636
76fe
d630
36fe
36b6
35fe
35b6
39fe
31b6
31b6
ENDCHAR
STARTCHAR U50B2
ENCODING 20658
SWIDTH 960 0
DWIDTH 16 0
BBX 16 16 0 -2
BITMAP
1b30
1b30
1fd0
1b3f
3334
37ec
734c
7334
dff4
3334
33d8
3358
36d4
36d4
34e6
3383
ENDCHAR
STARTCHAR U50B3
ENCODING 20659
SWIDTH 960 0
DWIDTH 16 0
BBX 16 16 0 -2
BITMAP
0c60
0c60
0fff
1860
1bfc
366c
37fc
766c
d7fc
306e
37fb
3018
37fe
3318
3198
3038
ENDCHAR
STARTCHAR U50B4
ENCODING 20660
SWIDTH 960 0
DWIDTH 16 0
BBX 16 16 0 -2
BITMAP
0c00
0ffe
0e00
1af8
1ad8
36d8
36f8
7600
d6ee
36aa
36aa
36aa
36ee
3600
37ff
3000
ENDCHAR
STARTCHAR U50B5
ENCODING 20661
SWIDTH 960 0
DWIDTH 16 0
BBX 16 16 0 -2
BITMAP
0c60
0ffe
0c60
1bfc
1860
3fff
3000
73fc
d30c
33fc
330c
33fc
330c
33fc
319c
3707
ENDCHAR
STARTCHAR U50B7
ENCODING 20663
SWIDTH 960 0
DWIDTH 16 0
BBX 16 16 0 -2
BITMAP
0d80
0dfe
0d00
1bf8
1a98
35f8
3198
71f8
d000
37ff
3180
33fe
36da
33b6
3666
31dc
ENDCHAR
STARTCHAR U50BE
ENCODING 20670
SWIDTH 960 0
DWIDTH 16 0
BBX 16 16 0 -2
BITMAP
1800
1bff
1830
3460
34fe
3546
76c6
d4fe
34c6
34fe
3546
3546
377e
3034
3066
31c3
ENDCHAR
STARTCHAR U50C2
ENCODING 20674
SWIDTH 960 0
DWIDTH 16 0
BBX 16 16 0 -2
BITMAP
0c60
0dfe
0d66
1fff
1b66
33fe
3060
73fe
d366
33fe
3060
37ff
30cc
31f8
3074
33c6
ENDCHAR
STARTCHAR U50C5
ENCODING 20677
SWIDTH 960 0
DWIDTH 16 0
BBX 16 16 0 -2
BITMAP
0d98
0d98
0fff
1998
1bfe
3666
3666
77fe
d060
33fc
3060
33fc
3060
3060
37ff
3000
ENDCHAR
STARTCHAR U50C9
ENCODING 20681
SWIDTH 960 0
DWIDTH 16 0
BBX 16 16 0 -2
BITMAP
0180
0180
0340
0660
0c30
3bec
e007
3f7c
334c
334c
3f7c
0c30
0e38
1b6c
3346
e180
ENDCHAR
STARTCHAR U50CA
ENCODING 20682
SWIDTH 960 0
DWIDTH 16 0
BBX 16 16 0 -2
BITMAP
1800
1fff
19b0
1bfc
36b4
36b4
77fc
7180
d7ff
3318
37f4
3537
3bf0
330c
330c
31fc
ENDCHAR
STARTCHAR U50CD
ENCODING 20685
SWIDTH 960 0
DWIDTH 16 0
BBX 16 16 0 -2
BITMAP
19d8
1f18
1b18
1fe8
333e
37ea
756a
77ea
d56a
37ea
331a
37da
3376
33d6
3e66
30dc
ENDCHAR
STARTCHAR U50CF
ENCODING 20687
SWIDTH 960 0
DWIDTH 16 0
BBX 16 16 0 -2
BITMAP
0cc0
0cf8
0d98
1b30
1dfe
3366
3366
73fe
d1cc
376c
31d8
3778
30d4
33b6
3633
30e0
ENDCHAR
STARTCHAR U50D1
ENCODING 20689
SWIDTH 960 0
DWIDTH 16 0
BBX 16 16 0 -2
BITMAP
0c1c
0df0
0cc0
1fff
1998
33fc
369b
71f8
d000
37fe
3606
36fa
369a
36fa
3606
360e
ENDCHAR
STARTCHAR U50D5
ENCODING 20693
SWIDTH 960 0
DWIDTH 16 0
BBX 16 16 0 -2
BITMAP
0cd0
0ed6
0d54
18d0
1fff
3318
31b0
77fe
d060
37fc
3060
37ff
30d0
3198
370c
3c07
ENDCHAR
STARTCHAR U50D6
ENCODING 20694
SWIDTH 960 0
DWIDTH 16 0
BBX 16 16 0 -2
BITMAP
0c60
0fff
0c60
1bfc
1800
37fc
360c
77fc
d318
31b0
3fff
3000
37fc
360c
37fc
3000
ENDCHAR
STARTCHAR U50DA
ENCODING 20698
SWIDTH 960 0
DWIDTH 16 0
BBX 16 16 0 -2
BITMAP
0c60
0c60
0fff
18d0
1a9a
330c
37fe
750d
d3fc
330c
33fc
3068
336c
3666
3466
30e0
ENDCHAR
STARTCHAR U50DE
ENCODING 20702
SWIDTH 960 0
DWIDTH 16 0
BBX 16 16 0 -2
BITMAP
1838
1be0
1b58
1acc
37f4
3630
7630
77fc
d60c
360c
37ff
346d
35b5
3ad3
3346
331c
ENDCHAR
STARTCHAR U50E3
ENCODING 20707
SWIDTH 960 0
DWIDTH 16 0
BBX 16 16 0 -2
BITMAP
1b18
1b18
1fde
1b18
37ff
3318
769c
76d6
d463
3bfc
330c
33fc
330c
330c
33fc
3000
ENDCHAR
STARTCHAR U50E5
ENCODING 20709
SWIDTH 960 0
DWIDTH 16 0
BBX 16 16 0 -2
BITMAP
0c60
0dfc
0c60
1bfe
1800
330c
37df
730c
d3cc
363f
3000
37ff
30d0
31b3
3733
3c1f
ENDCHAR
STARTCHAR U50E7
ENCODING 20711
SWIDTH 960 0
DWIDTH 16 0
BBX 16 16 0 -2
BITMAP
0d0c
0d98
0ffe
1a66
1bfe
3666
3666
77fe
d000
33fc
330c
33fc
330c
330c
33fc
3000
ENDCHAR
STARTCHAR U50ED
ENCODING 20717
SWIDTH 960 0
DWIDTH 16 0
BBX 16 16 0 -2
BITMAP
198c
1fde
1ab4
1ab4
37ff
33ac
76dd
76b7
d460
33fc
330c
33fc
330c
330c
33fc
3000
ENDCHAR
STARTCHAR U50EE
ENCODING 20718
SWIDTH 960 0
DWIDTH 16 0
BBX 16 16 0 -2
BITMAP
0c60
0c60
0ffe
1998
1fff
3000
33fc
736c
d3fc
336c
33fc
3060
37fe
3060
37ff
3000
ENDCHAR
STARTCHAR U50F5
ENCODING 20725
SWIDTH 960 0
DWIDTH 16 0
BBX 16 16 0 -2
BITMAP
0c00
0fff
0c00
1bfc
1b6c
33fc
336c
77ff
d000
33fc
336c
33fc
336c
33fc
37ff
3000
ENDCHAR
STARTCHAR U50F9
ENCODING 20729
SWIDTH 960 0
DWIDTH 16 0
BBX 16 16 0 -2
BITMAP
0c00
0fff
0db0
1bfe
1ab6
37fe
3000
73fc
d30c
33fc
330c
33fc
330c
33fc
319c
3706
ENDCHAR
STARTCHAR U50FB
ENCODING 20731
SWIDTH 960 0
DWIDTH 16 0
BBX 16 16 0 -2
BITMAP
1818
1bd8
1aff
36c6
36e6
37d4
7634
76ff
d618
37d8
36ff
3ad8
36d8
37d8
36d8
3618
ENDCHAR
STARTCHAR U5100
ENCODING 20736
SWIDTH 960 0
DWIDTH 16 0
BBX 16 16 0 -2
BITMAP
1b18
19b0
3bfe
3060
33f8
7060
77ff
d0d8
37b4
3330
37ff
3336
33dc
371a
3336
3766
ENDCHAR
STARTCHAR U5101
ENCODING 20737
SWIDTH 960 0
DWIDTH 16 0
BBX 16 16 0 -2
BITMAP
0d98
0db0
0dff
1b30
1bfe
3530
33fe
7330
d3ff
3000
37de
36d6
36d6
36f6
3606
360e
ENDCHAR
STARTCHAR U5102
ENCODING 20738
SWIDTH 960 0
DWIDTH 16 0
BBX 16 16 0 -2
BITMAP
0cd0
0dfc
0d54
1bfc
1b54
33fc
3000
77ff
d600
36fc
3600
37ff
36ac
35b8
39ec
3707
ENDCHAR
STARTCHAR U5104
ENCODING 20740
SWIDTH 960 0
DWIDTH 16 0
BBX 16 16 0 -2
BITMAP
0c60
0c60
0ffe
1b0c
1998
37ff
3000
73fc
d30c
33fc
330c
33fc
36a6
36b3
358d
30fc
ENDCHAR
STARTCHAR U5109
ENCODING 20745
SWIDTH 960 0
DWIDTH 16 0
BBX 16 16 0 -2
BITMAP
0c60
0c60
0cd0
1998
1b0c
36fb
3000
77de
d6d6
36d6
37de
3318
3318
339c
36d6
3463
ENDCHAR
STARTCHAR U5112
ENCODING 20754
SWIDTH 960 0
DWIDTH 16 0
BBX 16 16 0 -2
BITMAP
0c00
0ffe
0c60
1fff
1c63
35ad
3463
73ac
d000
37fe
3060
37fe
36d6
36d6
36d6
360e
ENDCHAR
STARTCHAR U5114
ENCODING 20756
SWIDTH 960 0
DWIDTH 16 0
BBX 16 16 0 -2
BITMAP
0c60
0ffe
0c60
1bfc
1800
37ff
3066
77f8
d000
37ff
300c
37ff
35ac
35b4
378c
301c
ENDCHAR
STARTCHAR U5115
ENCODING 20757
SWIDTH 960 0
DWIDTH 16 0
BBX 16 16 0 -2
BITMAP
0c60
0c60
0fff
18d3
1fae
36aa
36aa
75ad
d000
330c
33fc
330c
33fc
330c
360c
340c
ENDCHAR
STARTCHAR U5116
ENCODING 20758
SWIDTH 960 0
DWIDTH 16 0
BBX 16 16 0 -2
BITMAP
1818
1fd8
1d18
353f
37d0
74e0
77df
d500
37c0
3000
37fe
36d6
36d6
36d6
3fff
3000
ENDCHAR
STARTCHAR U5118
ENCODING 20760
SWIDTH 960 0
DWIDTH 16 0
BBX 16 16 0 -2
BITMAP
0c60
0dfc
0c6c
1bff
186c
33fc
3060
77ff
d6ac
36d6
3406
37fc
36b4
36b4
3fff
3000
ENDCHAR
STARTCHAR U511A
ENCODING 20762
SWIDTH 960 0
DWIDTH 16 0
BBX 16 16 0 -2
BITMAP
0d98
0d98
0fff
1998
1bfe
36d6
37fe
7000
d7ff
3463
34fd
31cc
3768
3030
30e0
3780
ENDCHAR
STARTCHAR U511F
ENCODING 20767
SWIDTH 960 0
DWIDTH 16 0
BBX 16 16 0 -2
BITMAP
0d6c
0da8
0ffe
1a06
1afa
3198
31f8
73fc
d30c
33fc
330c
33fc
330c
33fc
31dc
3706
ENDCHAR
STARTCHAR U5121
ENCODING 20769
SWIDTH 960 0
DWIDTH 16 0
BBX 16 16 0 -2
BITMAP
0c00
0dfc
0d6c
1bfc
1b6c
336c
33fc
7000
d7df
3555
3555
37df
3555
3555
37df
3000
ENDCHAR
STARTCHAR U512A
ENCODING 20778
SWIDTH 960 0
DWIDTH 16 0
BBX 16 16 0 -2
BITMAP
0c00
0fff
0c60
1bfc
1b0c
33fc
330c
77ff
d5ad
36b6
36fd
359b
3750
3070
31dc
3707
ENDCHAR
STARTCHAR U5132
ENCODING 20786
SWIDTH 960 0
DWIDTH 16 0
BBX 16 16 0 -2
BITMAP
1818
1b98
187e
3fda
301c
379c
70ff
7030
d7be
30e6
37a6
35be
35a6
35a6
37be
3000
ENDCHAR
STARTCHAR U5137
ENCODING 20791
SWIDTH 960 0
DWIDTH 16 0
BBX 16 16 0 -2
BITMAP
1bdf
1800
1fdf
1cd3
3555
3060
77ff
76d0
d7fe
36d6
37fe
3730
35fe
3530
3bd3
371f
ENDCHAR
STARTCHAR U513A
ENCODING 20794
SWIDTH 960 0
DWIDTH 16 0
BBX 16 16 0 -2
BITMAP
1a9a
1fea
1ab4
1bbf
3374
37d4
7554
77df
d334
37d4
333f
37d4
36b4
36d4
34df
3800
ENDCHAR
STARTCHAR U513B
ENCODING 20795
SWIDTH 960 0
DWIDTH 16 0
BBX 16 16 0 -2
BITMAP
0d6c
0da8
0ffe
1a9a
1afa
3000
33fc
736c
d3b4
33fc
3060
37fe
3060
37ff
36b6
34db
ENDCHAR
STARTCHAR U513C
ENCODING 20796
SWIDTH 960 0
DWIDTH 16 0
BBX 16 16 0 -2
BITMAP
1800
1bde
1ad6
1bde
3000
37ff
7418
77e8
d59f
37f6
355a
35da
35cc
356c
3bd6
30e3
ENDCHAR
STARTCHAR U513F
ENCODING 20799
SWIDTH 960 0
DWIDTH 16 0
BBX 16 16 0 -2
BITMAP
0660
0660
0660
0660
0660
0660
0660
0660
0660
0660
0660
0c63
0c63
1833
301f
e000
ENDCHAR
STARTCHAR U5140
ENCODING 20800
SWIDTH 960 0
DWIDTH 16 0
BBX 16 16 0 -2
BITMAP
0000
ffff
0660
0660
0660
0660
0660
0660
0660
0660
0660
0c60
0c63
1833
301f
e000
ENDCHAR
STARTCHAR U5141
ENCODING 20801
SWIDTH 960 0
DWIDTH 16 0
BBX 16 16 0 -2
BITMAP
0300
0300
0340
0660
0638
0df4
ff46
06c0
06c0
06c0
0cc0
0cc0
18c0
18c6
3066
603e
ENDCHAR
STARTCHAR U5143
ENCODING 20803
SWIDTH 960 0
DWIDTH 16 0
BBX 16 16 0 -2
BITMAP
0000
1ff8
0000
0000
0000
0000
ffff
0660
0660
0660
0660
0c60
0c60
1863
3033
601f
ENDCHAR
STARTCHAR U5144
ENCODING 20804
SWIDTH 960 0
DWIDTH 16 0
BBX 16 16 0 -2
BITMAP
0000
1ff8
1818
1818
1818
1818
1818
1ff8
06c0
06c0
06c0
0cc0
0cc6
18c6
3066
603e
ENDCHAR
STARTCHAR U5145
ENCODING 20805
SWIDTH 960 0
DWIDTH 16 0
BBX 16 16 0 -2
BITMAP
0180
0180
ffff
0300
0360
0638
0cf4
3fa6
0360
0360
0360
0660
0666
0c66
1866
703e
ENDCHAR
STARTCHAR U5146
ENCODING 20806
SWIDTH 960 0
DWIDTH 16 0
BBX 16 16 0 -2
BITMAP
06c0
06c0
06cc
66cc
36d8
1ad0
06c0
06c0
0ef0
3adc
e6c6
0cc0
0cc0
18c3
3063
e03f
ENDCHAR
STARTCHAR U5147
ENCODING 20807
SWIDTH 960 0
DWIDTH 16 0
BBX 16 16 0 -2
BITMAP
0060
3068
36d8
3358
3198
3358
3668
3c68
3018
3ff8
06c0
06c0
0cc0
18c6
3066
e03e
ENDCHAR
STARTCHAR U5148
ENCODING 20808
SWIDTH 960 0
DWIDTH 16 0
BBX 16 16 0 -2
BITMAP
0180
0d80
0d80
0ffc
1980
1980
3180
ffff
0360
0360
0360
0660
0660
0c63
1833
701f
ENDCHAR
STARTCHAR U5149
ENCODING 20809
SWIDTH 960 0
DWIDTH 16 0
BBX 16 16 0 -2
BITMAP
0180
0180
1998
0d98
0db0
0da0
0180
ffff
0360
0360
0360
0660
0660
0c63
1833
701f
ENDCHAR
STARTCHAR U514B
ENCODING 20811
SWIDTH 960 0
DWIDTH 16 0
BBX 16 16 0 -2
BITMAP
0300
0300
fffe
0300
0300
3ff0
3030
3030
3030
3ff0
06c0
06c0
06c0
0cc6
3866
e03e
ENDCHAR
STARTCHAR U514C
ENCODING 20812
SWIDTH 960 0
DWIDTH 16 0
BBX 16 16 0 -2
BITMAP
03e0
0c60
0c60
1830
1ff0
3838
6834
d837
1830
1ff0
06c0
06c0
06c0
0cc3
3863
e03f
ENDCHAR
STARTCHAR U514D
ENCODING 20813
SWIDTH 960 0
DWIDTH 16 0
BBX 16 16 0 -2
BITMAP
0300
03e0
0660
0cc0
1980
7ffc
198c
198c
198c
1ffc
0360
0360
0660
0c63
3833
e01f
ENDCHAR
STARTCHAR U514E
ENCODING 20814
SWIDTH 960 0
DWIDTH 16 0
BBX 16 16 0 -2
BITMAP
0018
0070
7fc0
0300
0300
3ff8
3318
3318
3318
3ff8
06d0
06d8
06d8
0cc6
38c6
e07e
ENDCHAR
STARTCHAR U5150
ENCODING 20816
SWIDTH 960 0
DWIDTH 16 0
BBX 16 16 0 -2
BITMAP
3000
33fc
330c
330c
330c
33fc
330c
330c
330c
33fc
36c0
06c0
06c0
0cc3
38c3
e07f
ENDCHAR
STARTCHAR U5152
ENCODING 20818
SWIDTH 960 0
DWIDTH 16 0
BBX 16 16 0 -2
BITMAP
0300
0600
3dfc
300c
300c
3efc
300c
300c
300c
3ffc
06c0
06c0
06c3
0cc3
3863
e03f
ENDCHAR
STARTCHAR U5154
ENCODING 20820
SWIDTH 960 0
DWIDTH 16 0
BBX 16 16 0 -2
BITMAP
0300
03e0
0660
0cc0
3980
fff8
3198
3198
3318
3ff8
0350
06d8
06d8
0cc3
3863
e03f
ENDCHAR
STARTCHAR U515A
ENCODING 20826
SWIDTH 960 0
DWIDTH 16 0
BBX 16 16 0 -2
BITMAP
0180
1998
0d98
0db0
fffe
c006
dff6
d836
1830
1ff0
06c0
06c0
06c6
0cc6
3866
e03e
ENDCHAR
STARTCHAR U515C
ENCODING 20828
SWIDTH 960 0
DWIDTH 16 0
BBX 16 16 0 -2
BITMAP
0d80
1b00
77dc
66cc
66cc
67cc
66cc
66cc
7bdc
0000
06c0
06c0
06c6
0cc6
38c6
e07e
ENDCHAR
STARTCHAR U5162
ENCODING 20834
SWIDTH 960 0
DWIDTH 16 0
BBX 16 16 0 -2
BITMAP
1830
1830
ffff
1830
1830
7efc
66cc
66cc
66cc
7efc
3468
3468
3558
6edb
6d9b
c30f
ENDCHAR
STARTCHAR U5165
ENCODING 20837
SWIDTH 960 0
DWIDTH 16 0
BBX 16 16 0 -2
BITMAP
0780
0180
0180
0180
0180
0180
0180
0340
0340
0660
0660
0c30
1818
300c
6006
c003
ENDCHAR
STARTCHAR U5168
ENCODING 20840
SWIDTH 960 0
DWIDTH 16 0
BBX 16 16 0 -2
BITMAP
0180
0180
0340
0660
0c30
381c
effb
0180
0180
0180
3ff8
0180
0180
0180
ffff
0000
ENDCHAR
STARTCHAR U5169
ENCODING 20841
SWIDTH 960 0
DWIDTH 16 0
BBX 16 16 0 -2
BITMAP
0000
ffff
0180
0180
7ffe
6186
6186
6db6
6db6
6db6
6aaa
6aaa
73ce
6186
6186
618e
ENDCHAR
STARTCHAR U516A
ENCODING 20842
SWIDTH 960 0
DWIDTH 16 0
BBX 16 16 0 -2
BITMAP
0180
0340
0660
0c30
381c
eff7
0000
7e66
6666
6acc
6e98
6730
6a98
6ecc
6666
6e66
ENDCHAR
STARTCHAR U516B
ENCODING 20843
SWIDTH 960 0
DWIDTH 16 0
BBX 16 16 0 -2
BITMAP
0000
07e0
0060
0060
0c60
0c60
0c60
0c60
0c30
0c30
0c30
1818
1818
300c
6006
c003
ENDCHAR
STARTCHAR U516C
ENCODING 20844
SWIDTH 960 0
DWIDTH 16 0
BBX 16 16 0 -2
BITMAP
03e0
0c60
0c60
0c30
1830
1818
330c
6306
c303
0340
0660
0630
0c18
0df8
7e0c
000c
ENDCHAR
STARTCHAR U516D
ENCODING 20845
SWIDTH 960 0
DWIDTH 16 0
BBX 16 16 0 -2
BITMAP
0180
0180
0180
0180
ffff
0000
0000
0000
0c60
0c30
0c18
1818
180c
300c
600c
0000
ENDCHAR
STARTCHAR U516E
ENCODING 20846
SWIDTH 960 0
DWIDTH 16 0
BBX 16 16 0 -2
BITMAP
01e0
0660
0630
0c30
1ff8
330c
6306
c603
0ff8
0c18
0018
0018
0018
0030
0030
00e0
ENDCHAR
STARTCHAR U5171
ENCODING 20849
SWIDTH 960 0
DWIDTH 16 0
BBX 16 16 0 -2
BITMAP
0c60
0c60
0c60
0c60
7ffc
0c60
0c60
0c60
0c60
ffff
0000
0c60
0c30
1818
300c
600c
ENDCHAR
STARTCHAR U5175
ENCODING 20853
SWIDTH 960 0
DWIDTH 16 0
BBX 16 16 0 -2
BITMAP
0030
01e0
0f00
0c00
0ffe
0c30
0c30
0c30
0c30
0c30
ffff
0000
0660
0c38
180c
7006
ENDCHAR
STARTCHAR U5176
ENCODING 20854
SWIDTH 960 0
DWIDTH 16 0
BBX 16 16 0 -2
BITMAP
0c30
0c30
7ffe
0c30
0c30
0ff0
0c30
0c30
0ff0
0c30
0c30
ffff
0000
0670
1c1c
7006
ENDCHAR
STARTCHAR U5177
ENCODING 20855
SWIDTH 960 0
DWIDTH 16 0
BBX 16 16 0 -2
BITMAP
0000
1ff0
1830
1830
1ff0
1830
1830
1ff0
1830
1830
1ff0
0000
ffff
0ce0
3838
e00c
ENDCHAR
STARTCHAR U5178
ENCODING 20856
SWIDTH 960 0
DWIDTH 16 0
BBX 16 16 0 -2
BITMAP
0660
0660
0660
3ffc
366c
366c
366c
3ffc
366c
366c
366c
ffff
0000
0e70
381c
e006
ENDCHAR
STARTCHAR U517C
ENCODING 20860
SWIDTH 960 0
DWIDTH 16 0
BBX 16 16 0 -2
BITMAP
1830
0c60
fffe
06c0
3ff8
06d8
06d8
fffe
06d8
3ff8
06c0
0ee0
1ad0
36d8
e6ce
06c0
ENDCHAR
STARTCHAR U5180
ENCODING 20864
SWIDTH 960 0
DWIDTH 16 0
BBX 16 16 0 -2
BITMAP
0666
fe6c
067b
1e63
f63f
1ff8
1998
1ff8
1998
1ff8
0660
3ffc
0660
ffff
0e78
f80e
ENDCHAR
STARTCHAR U5182
ENCODING 20866
SWIDTH 960 0
DWIDTH 16 0
BBX 16 16 0 -2
BITMAP
0000
7ffe
6006
6006
6006
6006
6006
6006
6006
6006
6006
6006
6006
6006
6006
600e
ENDCHAR
STARTCHAR U5185
ENCODING 20869
SWIDTH 960 0
DWIDTH 16 0
BBX 16 16 0 -2
BITMAP
0180
0180
0180
7ffe
6186
6186
6346
6346
6666
6c36
681a
6006
6006
6006
6006
600e
ENDCHAR
STARTCHAR U5186
ENCODING 20870
SWIDTH 960 0
DWIDTH 16 0
BBX 16 16 0 -2
BITMAP
0000
7ffc
630c
630c
630c
630c
630c
7ffc
600c
600c
600c
600c
600c
600c
600c
601c
ENDCHAR
STARTCHAR U5189
ENCODING 20873
SWIDTH 960 0
DWIDTH 16 0
BBX 16 16 0 -2
BITMAP
0180
0180
0180
3ffc
318c
318c
3ffc
318c
318c
318c
ffff
300c
300c
300c
300c
301c
ENDCHAR
STARTCHAR U518A
ENCODING 20874
SWIDTH 960 0
DWIDTH 16 0
BBX 16 16 0 -2
BITMAP
0000
3ffc
366c
366c
366c
366c
366c
ffff
366c
366c
366c
366c
366c
366c
366c
366c
ENDCHAR
STARTCHAR U518C
ENCODING 20876
SWIDTH 960 0
DWIDTH 16 0
BBX 16 16 0 -2
BITMAP
0000
3e7c
366c
366c
366c
366c
366c
ffff
366c
366c
366c
366c
36cc
36cc
6e8c
c31c
ENDCHAR
STARTCHAR U518D
ENCODING 20877
SWIDTH 960 0
DWIDTH 16 0
BBX 16 16 0 -2
BITMAP
0000
7ffe
0180
0180
1ff8
1998
1998
1ff8
1998
1998
1998
ffff
1818
1818
1818
1838
ENDCHAR
STARTCHAR U518F
ENCODING 20879
SWIDTH 960 0
DWIDTH 16 0
BBX 16 16 0 -2
BITMAP
0000
7ffe
6666
6666
6666
666e
6c3e
6806
77e6
6666
6666
6666
67e6
6006
6006
600e
ENDCHAR
STARTCHAR U5190
ENCODING 20880
SWIDTH 960 0
DWIDTH 16 0
BBX 16 16 0 -2
BITMAP
0000
7ffe
6006
6ffa
6006
6ffa
0000
0000
1ff8
1818
1ff8
1818
1ff8
1818
1818
1838
ENDCHAR
STARTCHAR U5191
ENCODING 20881
SWIDTH 960 0
DWIDTH 16 0
BBX 16 16 0 -2
BITMAP
0180
0180
7ffe
6186
7ffe
6186
7ffe
0000
3ffc
300c
37f4
300c
37f4
300c
300c
301c
ENDCHAR
STARTCHAR U5192
ENCODING 20882
SWIDTH 960 0
DWIDTH 16 0
BBX 16 16 0 -2
BITMAP
0000
7ffc
600c
7ffc
600c
7ffc
0000
1ff0
1830
1ff0
1830
1ff0
1830
1830
1ff0
0000
ENDCHAR
STARTCHAR U5193
ENCODING 20883
SWIDTH 960 0
DWIDTH 16 0
BBX 16 16 0 -2
BITMAP
0660
0660
7ffe
0660
3ffc
0660
ffff
0180
1ff8
1998
1ff8
1998
ffff
1818
1818
1838
ENDCHAR
STARTCHAR U5195
ENCODING 20885
SWIDTH 960 0
DWIDTH 16 0
BBX 16 16 0 -2
BITMAP
0000
7ffc
600c
6ff4
600c
6ff4
660c
0fc0
3980
fff0
3330
3330
3ff6
06c6
1cc6
f07e
ENDCHAR
STARTCHAR U5196
ENCODING 20886
SWIDTH 960 0
DWIDTH 16 0
BBX 16 16 0 -2
BITMAP
0000
0000
0000
0000
0000
0000
fffe
c006
c006
c006
0000
0000
0000
0000
0000
0000
ENDCHAR
STARTCHAR U5197
ENCODING 20887
SWIDTH 960 0
DWIDTH 16 0
BBX 16 16 0 -2
BITMAP
0000
fffe
c006
c006
c7e6
0660
0660
0660
0660
0660
0c60
0c60
1860
1866
3066
603e
ENDCHAR
STARTCHAR U5199
ENCODING 20889
SWIDTH 960 0
DWIDTH 16 0
BBX 16 16 0 -2
BITMAP
0000
fffe
c006
cc06
cff6
0c00
0c00
0fe0
0060
0060
fffe
0060
0060
0060
00c0
0780
ENDCHAR
STARTCHAR U51A0
ENCODING 20896
SWIDTH 960 0
DWIDTH 16 0
BBX 16 16 0 -2
BITMAP
0000
fffe
c006
c006
7f18
0018
01fe
ff18
3698
36d8
36d8
3618
3618
663a
6306
c1fe
ENDCHAR
STARTCHAR U51A2
ENCODING 20898
SWIDTH 960 0
DWIDTH 16 0
BBX 16 16 0 -2
BITMAP
0000
fffe
c006
c006
3ff8
0600
1d18
f358
36d0
1da0
fba0
0eb0
1d9c
f187
0180
0700
ENDCHAR
STARTCHAR U51A4
ENCODING 20900
SWIDTH 960 0
DWIDTH 16 0
BBX 16 16 0 -2
BITMAP
0000
fffe
c306
c7e6
0cc0
3980
fff8
3318
3318
3ff8
06c0
06d0
0cd8
18c6
3066
e03e
ENDCHAR
STARTCHAR U51A5
ENCODING 20901
SWIDTH 960 0
DWIDTH 16 0
BBX 16 16 0 -2
BITMAP
0000
fffe
c006
dff6
1830
1830
1ff0
1830
1830
1ff0
0300
fffe
0000
0ce0
3838
e00c
ENDCHAR
STARTCHAR U51A6
ENCODING 20902
SWIDTH 960 0
DWIDTH 16 0
BBX 16 16 0 -2
BITMAP
0000
fffe
c066
c066
7e7c
0060
01f8
ff18
34d8
34d0
3470
34d8
358e
6c06
6606
c3fe
ENDCHAR
STARTCHAR U51A8
ENCODING 20904
SWIDTH 960 0
DWIDTH 16 0
BBX 16 16 0 -2
BITMAP
0000
fffe
c006
dffa
0000
1ff0
1830
1ff0
0000
3ff8
3318
3ff8
3318
3318
3ff8
0000
ENDCHAR
STARTCHAR U51A9
ENCODING 20905
SWIDTH 960 0
DWIDTH 16 0
BBX 16 16 0 -2
BITMAP
0000
fffe
c306
c606
1df0
1830
1f70
1830
1ff0
0c00
1ffc
306c
edb4
36d4
36cc
6038
ENDCHAR
STARTCHAR U51AA
ENCODING 20906
SWIDTH 960 0
DWIDTH 16 0
BBX 16 16 0 -2
BITMAP
0000
fffe
cc66
7ffc
1830
1ff0
1830
1ff0
0600
fffe
1b30
3ff8
6b34
db36
1b60
0300
ENDCHAR
STARTCHAR U51AB
ENCODING 20907
SWIDTH 960 0
DWIDTH 16 0
BBX 16 16 0 -2
BITMAP
0000
0600
0300
0180
0180
0000
0000
0060
0060
00c0
0180
0180
0300
0600
0c00
0000
ENDCHAR
STARTCHAR U51AC
ENCODING 20908
SWIDTH 960 0
DWIDTH 16 0
BBX 16 16 0 -2
BITMAP
0300
0300
03f8
0618
0e30
3ba0
00c0
01a0
0730
1d9c
f0c7
0060
0e00
0380
00e0
0030
ENDCHAR
STARTCHAR U51B0
ENCODING 20912
SWIDTH 960 0
DWIDTH 16 0
BBX 16 16 0 -2
BITMAP
00c0
60c0
30c6
30c6
00ec
1f6c
0368
0350
1b50
36d8
36d8
6ccc
6cc6
d8c3
d0c0
01c0
ENDCHAR
STARTCHAR U51B1
ENCODING 20913
SWIDTH 960 0
DWIDTH 16 0
BBX 16 16 0 -2
BITMAP
0000
6ffe
3180
3180
0180
01f8
0198
1b18
1b18
3318
37f0
6630
6030
c030
dfff
0000
ENDCHAR
STARTCHAR U51B2
ENCODING 20914
SWIDTH 960 0
DWIDTH 16 0
BBX 16 16 0 -2
BITMAP
0060
6060
3060
3060
07fe
0666
0666
1a66
1a66
37fe
3060
6060
6060
c060
c060
0060
ENDCHAR
STARTCHAR U51B3
ENCODING 20915
SWIDTH 960 0
DWIDTH 16 0
BBX 16 16 0 -2
BITMAP
00c0
60c0
30c0
37fc
00cc
00cc
00cc
18cc
1fff
30e0
30d0
61b0
6198
c30c
c606
1c03
ENDCHAR
STARTCHAR U51B4
ENCODING 20916
SWIDTH 960 0
DWIDTH 16 0
BBX 16 16 0 -2
BITMAP
0000
67fe
3198
1998
1998
0198
0198
1bff
1868
3068
30d8
6198
6318
c618
dc18
0038
ENDCHAR
STARTCHAR U51B5
ENCODING 20917
SWIDTH 960 0
DWIDTH 16 0
BBX 16 16 0 -2
BITMAP
0000
67fc
360c
360c
060c
060c
060c
1bfc
19b0
31b0
31b0
61b0
6333
c333
c633
0c1f
ENDCHAR
STARTCHAR U51B6
ENCODING 20918
SWIDTH 960 0
DWIDTH 16 0
BBX 16 16 0 -2
BITMAP
00c0
60c0
30c0
19b0
1998
030c
037c
0fc6
1806
1bfc
330c
330c
630c
630c
c3fc
0000
ENDCHAR
STARTCHAR U51B7
ENCODING 20919
SWIDTH 960 0
DWIDTH 16 0
BBX 16 16 0 -2
BITMAP
00c0
60e0
31a0
31b0
3318
03fc
0606
0c03
37fc
30cc
30cc
60cc
60d8
c0c0
c0c0
00c0
ENDCHAR
STARTCHAR U51BD
ENCODING 20925
SWIDTH 960 0
DWIDTH 16 0
BBX 16 16 0 -2
BITMAP
0006
6ff6
3636
3636
0636
07d6
06d6
36d6
3556
35b6
69b6
6306
c306
c606
cc06
380e
ENDCHAR
STARTCHAR U51C4
ENCODING 20932
SWIDTH 960 0
DWIDTH 16 0
BBX 16 16 0 -2
BITMAP
00c0
60c0
37fe
30c0
37f8
00d8
1fff
00d8
1bf8
3180
3fff
6198
6330
c7f0
c1d8
1f0c
ENDCHAR
STARTCHAR U51C5
ENCODING 20933
SWIDTH 960 0
DWIDTH 16 0
BBX 16 16 0 -2
BITMAP
0000
6ffe
34c6
34c6
0ffe
0cc6
0cc6
0df6
35b6
35b6
35b6
6df6
6c06
cc06
cffe
0000
ENDCHAR
STARTCHAR U51C6
ENCODING 20934
SWIDTH 960 0
DWIDTH 16 0
BBX 16 16 0 -2
BITMAP
0198
6198
3330
33fe
0730
0730
0d30
03fe
1b30
3330
33fe
6330
6330
c330
c3ff
0000
ENDCHAR
STARTCHAR U51C9
ENCODING 20937
SWIDTH 960 0
DWIDTH 16 0
BBX 16 16 0 -2
BITMAP
0060
6060
3060
37ff
0000
03fc
030c
1b0c
1b0c
33fc
3060
6368
636c
c666
cc66
00e0
ENDCHAR
STARTCHAR U51CB
ENCODING 20939
SWIDTH 960 0
DWIDTH 16 0
BBX 16 16 0 -2
BITMAP
0000
67fe
3666
3666
06fa
0666
0666
1bfe
1a06
36fa
369a
669a
66fa
cc06
cc06
180e
ENDCHAR
STARTCHAR U51CC
ENCODING 20940
SWIDTH 960 0
DWIDTH 16 0
BBX 16 16 0 -2
BITMAP
0060
6060
37fe
3060
0060
0fff
01b0
19b6
1b5e
36f8
3598
63b0
6ed0
c0e0
c3b8
0e0f
ENDCHAR
STARTCHAR U51CD
ENCODING 20941
SWIDTH 960 0
DWIDTH 16 0
BBX 16 16 0 -2
BITMAP
00c0
60c0
6ffe
30c0
37fc
06cc
07fc
06cc
1acc
37fc
31e0
6350
66d8
cccc
d8c6
00c0
ENDCHAR
STARTCHAR U51D6
ENCODING 20950
SWIDTH 960 0
DWIDTH 16 0
BBX 16 16 0 -2
BITMAP
0198
61b0
33fe
3360
07fc
0d60
03fc
1b60
73fe
c180
0180
fffe
0180
0180
0180
0180
ENDCHAR
STARTCHAR U51DB
ENCODING 20955
SWIDTH 960 0
DWIDTH 16 0
BBX 16 16 0 -2
BITMAP
0060
6fff
360c
36f4
06b4
06f4
060c
1bfc
1800
37fc
3000
6fff
6368
c36c
c666
0ce0
ENDCHAR
STARTCHAR U51DC
ENCODING 20956
SWIDTH 960 0
DWIDTH 16 0
BBX 16 16 0 -2
BITMAP
0060
0060
6fff
6374
3354
3374
030c
03fc
181c
33f0
3060
6fff
60f0
c3ac
ce67
0060
ENDCHAR
STARTCHAR U51DD
ENCODING 20957
SWIDTH 960 0
DWIDTH 16 0
BBX 16 16 0 -2
BITMAP
0c00
0dbe
6f06
3434
3598
078c
06ff
379a
351c
3368
6fee
6368
66a8
c6d8
ccdc
1987
ENDCHAR
STARTCHAR U51E0
ENCODING 20960
SWIDTH 960 0
DWIDTH 16 0
BBX 16 16 0 -2
BITMAP
0000
0fe0
0c60
0c60
0c60
0c60
0c60
0c60
0c60
0c60
0c60
1860
1863
3063
603f
c000
ENDCHAR
STARTCHAR U51E1
ENCODING 20961
SWIDTH 960 0
DWIDTH 16 0
BBX 16 16 0 -2
BITMAP
0000
0fe0
0c60
0c60
0c60
0e60
0d60
0da0
0da0
0c60
0c60
1860
1866
3066
603e
c000
ENDCHAR
STARTCHAR U51E6
ENCODING 20966
SWIDTH 960 0
DWIDTH 16 0
BBX 16 16 0 -2
BITMAP
1800
187c
186c
1f6c
1b6c
336c
336c
6a6c
6a6c
cccc
0ccd
1a8d
1b07
3180
60e0
c03f
ENDCHAR
STARTCHAR U51E7
ENCODING 20967
SWIDTH 960 0
DWIDTH 16 0
BBX 16 16 0 -2
BITMAP
0000
3ff8
3018
3318
3318
37e8
3568
3568
3568
3568
3568
3558
350d
630d
6307
c303
ENDCHAR
STARTCHAR U51E9
ENCODING 20969
SWIDTH 960 0
DWIDTH 16 0
BBX 16 16 0 -2
BITMAP
0000
3ff8
3018
3198
3198
37f8
3198
3198
33d8
33d8
36a8
36a8
35b5
698d
6187
c183
ENDCHAR
STARTCHAR U51EA
ENCODING 20970
SWIDTH 960 0
DWIDTH 16 0
BBX 16 16 0 -2
BITMAP
0000
3ff8
3018
3198
3198
3198
3598
3598
35e8
3598
3598
3598
358d
6d8d
7ffb
c003
ENDCHAR
STARTCHAR U51ED
ENCODING 20973
SWIDTH 960 0
DWIDTH 16 0
BBX 16 16 0 -2
BITMAP
0c18
0c70
1be0
3060
77ff
d060
3060
37fe
3000
0000
0fe0
0c60
0c60
1866
3066
e03e
ENDCHAR
STARTCHAR U51F0
ENCODING 20976
SWIDTH 960 0
DWIDTH 16 0
BBX 16 16 0 -2
BITMAP
0000
3ffc
318c
330c
37f4
3434
37f4
3434
37f4
300c
37f4
318c
37ed
618d
6ffb
c003
ENDCHAR
STARTCHAR U51F1
ENCODING 20977
SWIDTH 960 0
DWIDTH 16 0
BBX 16 16 0 -2
BITMAP
1800
6b7c
6b6c
7f6c
006c
ffac
006c
7f6c
636c
636c
7f6c
666c
366c
35cd
1ecd
f187
ENDCHAR
STARTCHAR U51F5
ENCODING 20981
SWIDTH 960 0
DWIDTH 16 0
BBX 16 16 0 -2
BITMAP
6006
6006
6006
6006
6006
6006
6006
6006
6006
6006
6006
6006
6006
6006
7ffe
0000
ENDCHAR
STARTCHAR U51F6
ENCODING 20982
SWIDTH 960 0
DWIDTH 16 0
BBX 16 16 0 -2
BITMAP
0000
0030
6036
6036
6e66
63a6
60c6
60e6
61b6
6336
661a
6c1a
6806
6006
7ffe
0000
ENDCHAR
STARTCHAR U51F8
ENCODING 20984
SWIDTH 960 0
DWIDTH 16 0
BBX 16 16 0 -2
BITMAP
0000
07e0
0660
0660
0660
0660
0660
7e7e
6006
6006
6006
6006
6006
7ffe
0000
0000
ENDCHAR
STARTCHAR U51F9
ENCODING 20985
SWIDTH 960 0
DWIDTH 16 0
BBX 16 16 0 -2
BITMAP
0000
7e7e
6666
6666
6666
6666
6666
6666
67e6
6006
6006
6006
6006
7ffe
0000
0000
ENDCHAR
STARTCHAR U51FA
ENCODING 20986
SWIDTH 960 0
DWIDTH 16 0
BBX 16 16 0 -2
BITMAP
0180
0180
318c
318c
318c
318c
3ffc
0180
0180
6186
6186
6186
6186
6186
7ffe
0000
ENDCHAR
STARTCHAR U51FD
ENCODING 20989
SWIDTH 960 0
DWIDTH 16 0
BBX 16 16 0 -2
BITMAP
0000
ffff
0600
0600
679a
699a
6dd6
66c6
61a6
63a6
6eb6
799a
6706
6006
7ffe
0000
ENDCHAR
STARTCHAR U51FE
ENCODING 20990
SWIDTH 960 0
DWIDTH 16 0
BBX 16 16 0 -2
BITMAP
0000
1ff8
0030
00e0
6186
6efa
6a9a
6aaa
6aaa
6ab6
6ed6
699a
638e
6006
7ffe
6006
ENDCHAR
STARTCHAR U5200
ENCODING 20992
SWIDTH 960 0
DWIDTH 16 0
BBX 16 16 0 -2
BITMAP
0000
0000
7ffe
0186
0186
0186
0186
0186
0306
0306
0306
0606
0c06
180c
3038
0000
ENDCHAR
STARTCHAR U5203
ENCODING 20995
SWIDTH 960 0
DWIDTH 16 0
BBX 16 16 0 -2
BITMAP
0000
0000
7ffc
018c
018c
018c
1d8c
070c
038c
06cc
066c
0c0c
180c
3018
6070
0000
ENDCHAR
STARTCHAR U5204
ENCODING 20996
SWIDTH 960 0
DWIDTH 16 0
BBX 16 16 0 -2
BITMAP
0000
fffc
018c
018c
318c
198c
0d8c
070c
030c
038c
06ec
063c
0c0f
180c
3018
60f0
ENDCHAR
STARTCHAR U5206
ENCODING 20998
SWIDTH 960 0
DWIDTH 16 0
BBX 16 16 0 -2
BITMAP
07e0
0060
0c60
0c30
1830
1818
300c
6ff6
c333
0330
0330
0630
0630
0c30
1830
30e0
ENDCHAR
STARTCHAR U5207
ENCODING 20999
SWIDTH 960 0
DWIDTH 16 0
BBX 16 16 0 -2
BITMAP
3000
33fe
3066
3066
3766
3c66
f066
3066
3066
3066
36c6
36c6
1e86
0306
060c
1c38
ENDCHAR
STARTCHAR U5208
ENCODING 21000
SWIDTH 960 0
DWIDTH 16 0
BBX 16 16 0 -2
BITMAP
0306
0366
0366
0366
6366
3366
1a66
0e66
0666
0d66
0d66
1986
1986
3186
6006
c00e
ENDCHAR
STARTCHAR U520A
ENCODING 21002
SWIDTH 960 0
DWIDTH 16 0
BBX 16 16 0 -2
BITMAP
0006
7fa6
0c66
0c66
0c66
0c66
ffe6
0c66
0c66
0c66
0c66
0c06
0c06
0c06
0c06
0c0e
ENDCHAR
STARTCHAR U520B
ENCODING 21003
SWIDTH 960 0
DWIDTH 16 0
BBX 16 16 0 -2
BITMAP
0186
0f66
fc66
0c66
0c66
0c66
ffa6
0c66
0c66
0c66
0c66
1866
1806
3006
6006
c00e
ENDCHAR
STARTCHAR U520E
ENCODING 21006
SWIDTH 960 0
DWIDTH 16 0
BBX 16 16 0 -2
BITMAP
3006
3036
3fb6
35b6
6db6
6db6
dbb6
1ab6
36b6
36b6
6db6
cdb6
1986
3186
6186
070e
ENDCHAR
STARTCHAR U5211
ENCODING 21009
SWIDTH 960 0
DWIDTH 16 0
BBX 16 16 0 -2
BITMAP
0006
7fe6
1b66
1b66
1b66
1b66
ffe6
1b66
1b66
1b66
1b66
1b06
3306
3306
6306
c30e
ENDCHAR
STARTCHAR U5214
ENCODING 21012
SWIDTH 960 0
DWIDTH 16 0
BBX 16 16 0 -2
BITMAP
0c06
0c36
0c36
7fb6
0db6
0db6
0db6
0db6
fff6
0c36
0e36
1b06
1b06
3186
60c6
c00e
ENDCHAR
STARTCHAR U5217
ENCODING 21015
SWIDTH 960 0
DWIDTH 16 0
BBX 16 16 0 -2
BITMAP
0006
ffe6
1866
1866
1866
1f66
3366
3366
6b66
ce66
0666
0c06
0c06
1806
3006
600e
ENDCHAR
STARTCHAR U521D
ENCODING 21021
SWIDTH 960 0
DWIDTH 16 0
BBX 16 16 0 -2
BITMAP
1800
1800
1bfe
fe66
0666
0c66
0d66
1b66
1e66
3a66
6b66
db46
18c6
1986
1b06
1a1c
ENDCHAR
STARTCHAR U5224
ENCODING 21028
SWIDTH 960 0
DWIDTH 16 0
BBX 16 16 0 -2
BITMAP
0c06
0db6
6db6
35b6
3536
0c36
ffd6
0c36
0c36
0c36
ffd6
0c36
0c06
0c06
0c06
0c0e
ENDCHAR
STARTCHAR U5225
ENCODING 21029
SWIDTH 960 0
DWIDTH 16 0
BBX 16 16 0 -2
BITMAP
0006
7fa6
61a6
61a6
61a6
7fa6
1866
1866
1fa6
19a6
19a6
1986
3186
3186
6306
ce0e
ENDCHAR
STARTCHAR U5227
ENCODING 21031
SWIDTH 960 0
DWIDTH 16 0
BBX 16 16 0 -2
BITMAP
0c00
0cfe
0c36
7fb6
0c36
0c36
0c36
ffd6
0c36
0c36
1836
1a66
1b66
3746
fd86
019c
ENDCHAR
STARTCHAR U5229
ENCODING 21033
SWIDTH 960 0
DWIDTH 16 0
BBX 16 16 0 -2
BITMAP
0186
0766
7c66
0c66
0c66
0c66
ffa6
1c66
1e66
3566
35a6
6da6
cc06
0c06
0c06
0c0e
ENDCHAR
STARTCHAR U522A
ENCODING 21034
SWIDTH 960 0
DWIDTH 16 0
BBX 16 16 0 -2
BITMAP
0006
7fb6
6ab6
6ab6
6ab6
6ab6
6ab6
ffd6
6ab6
6ab6
6ab6
6a86
6a86
6a86
6a86
638e
ENDCHAR
STARTCHAR U522E
ENCODING 21038
SWIDTH 960 0
DWIDTH 16 0
BBX 16 16 0 -2
BITMAP
0186
0736
7c36
0c36
0c36
0c36
ffd6
0c36
0c36
0c36
3fb6
3186
3186
3186
3f86
000e
ENDCHAR
STARTCHAR U5230
ENCODING 21040
SWIDTH 960 0
DWIDTH 16 0
BBX 16 16 0 -2
BITMAP
0006
ffe6
1866
1a66
3366
3766
fda6
0da6
0c66
7fa6
0c66
0c06
0c06
0f86
f806
000e
ENDCHAR
STARTCHAR U5233
ENCODING 21043
SWIDTH 960 0
DWIDTH 16 0
BBX 16 16 0 -2
BITMAP
0c06
0c36
ffd6
1a36
3336
61b6
df56
0036
ffd6
1836
1836
3f06
3306
0306
0306
0e0e
ENDCHAR
STARTCHAR U5236
ENCODING 21046
SWIDTH 960 0
DWIDTH 16 0
BBX 16 16 0 -2
BITMAP
0606
3636
3636
3fd6
6636
6636
fff6
0636
3fd6
36d6
36d6
36d6
36c6
3786
3606
060e
ENDCHAR
STARTCHAR U5237
ENCODING 21047
SWIDTH 960 0
DWIDTH 16 0
BBX 16 16 0 -2
BITMAP
0006
7fb6
61b6
61b6
7fb6
6c36
6c36
7fb6
75b6
75b6
d5b6
d5b6
b586
3586
3406
0c0e
ENDCHAR
STARTCHAR U5238
ENCODING 21048
SWIDTH 960 0
DWIDTH 16 0
BBX 16 16 0 -2
BITMAP
1998
0d98
0db0
3ffe
0180
0340
ffff
0660
0c30
3ffc
e337
0330
0630
0630
0c30
38e0
ENDCHAR
STARTCHAR U5239
ENCODING 21049
SWIDTH 960 0
DWIDTH 16 0
BBX 16 16 0 -2
BITMAP
0606
0666
7466
1c66
1a66
3366
6d66
cc66
ffa6
0c66
1e66
3506
6d86
cc06
0c06
0c0e
ENDCHAR
STARTCHAR U523A
ENCODING 21050
SWIDTH 960 0
DWIDTH 16 0
BBX 16 16 0 -2
BITMAP
0c06
0c36
ffd6
0c36
0c36
7fb6
6db6
6db6
6db6
6e36
1d36
35b6
3586
6c06
cc06
0c0e
ENDCHAR
STARTCHAR U523B
ENCODING 21051
SWIDTH 960 0
DWIDTH 16 0
BBX 16 16 0 -2
BITMAP
0c06
0c66
ffe6
0c66
0c66
7b66
1a66
0e66
0da6
19a6
3366
6706
0d86
18c6
30c6
e00e
ENDCHAR
STARTCHAR U5243
ENCODING 21059
SWIDTH 960 0
DWIDTH 16 0
BBX 16 16 0 -2
BITMAP
3306
1a36
ffb6
0db6
0db6
7fb6
6c36
6c36
7fd6
0cd6
1cd6
1cc6
34c6
6d86
cc06
0c0e
ENDCHAR
STARTCHAR U5244
ENCODING 21060
SWIDTH 960 0
DWIDTH 16 0
BBX 16 16 0 -2
BITMAP
0006
ffb6
0036
36d6
36d6
edb6
6db6
36d6
0036
ffd6
0c36
0c06
0c06
0d86
3e06
e00e
ENDCHAR
STARTCHAR U5247
ENCODING 21063
SWIDTH 960 0
DWIDTH 16 0
BBX 16 16 0 -2
BITMAP
0006
7f66
6366
6366
7f66
6366
6366
6366
7f66
6366
6366
7f66
3666
3306
6306
c00e
ENDCHAR
STARTCHAR U524A
ENCODING 21066
SWIDTH 960 0
DWIDTH 16 0
BBX 16 16 0 -2
BITMAP
1806
db66
6b66
6a66
1866
7f66
6366
6366
7f66
6366
6366
7f66
6306
6306
6306
670e
ENDCHAR
STARTCHAR U524B
ENCODING 21067
SWIDTH 960 0
DWIDTH 16 0
BBX 16 16 0 -2
BITMAP
0c0c
0c6c
ffec
0c6c
0c6c
7fac
61ac
61ac
61ac
7fac
1a0c
1a0c
1a1c
3603
6303
c1ff
ENDCHAR
STARTCHAR U524C
ENCODING 21068
SWIDTH 960 0
DWIDTH 16 0
BBX 16 16 0 -2
BITMAP
0c06
0c36
ffd6
0c36
0c36
7fb6
6db6
6db6
6db6
7fb6
1c36
1e06
3506
6d86
cc06
0c0e
ENDCHAR
STARTCHAR U524D
ENCODING 21069
SWIDTH 960 0
DWIDTH 16 0
BBX 16 16 0 -2
BITMAP
1830
0c30
0c60
ffff
0000
7ecc
66cc
66cc
7ecc
66cc
66cc
7ecc
66cc
660c
660c
6e1c
ENDCHAR
STARTCHAR U524F
ENCODING 21071
SWIDTH 960 0
DWIDTH 16 0
BBX 16 16 0 -2
BITMAP
6300
337e
3636
ffb6
3636
3636
36d6
ffb6
3636
363a
3636
3667
3666
66c6
6686
c71c
ENDCHAR
STARTCHAR U5254
ENCODING 21076
SWIDTH 960 0
DWIDTH 16 0
BBX 16 16 0 -2
BITMAP
0006
3fb6
31b6
3fb6
31b6
31b6
3fb6
1836
1fd6
3556
6d56
db46
36c6
6cc6
18c6
038e
ENDCHAR
STARTCHAR U5256
ENCODING 21078
SWIDTH 960 0
DWIDTH 16 0
BBX 16 16 0 -2
BITMAP
0c06
0c36
7fd6
31b6
19b6
1b36
1b36
fff6
0036
0036
3fb6
31b6
3186
3186
3f86
000e
ENDCHAR
STARTCHAR U525B
ENCODING 21083
SWIDTH 960 0
DWIDTH 16 0
BBX 16 16 0 -2
BITMAP
0006
7fd6
60d6
7356
6ad6
60d6
7fd6
6cd6
7556
7556
7556
7f46
7346
60c6
60c6
61ce
ENDCHAR
STARTCHAR U525E
ENCODING 21086
SWIDTH 960 0
DWIDTH 16 0
BBX 16 16 0 -2
BITMAP
0c06
0c36
ffd6
0c36
1a36
7336
0036
fff6
01b6
7db6
6db6
6d86
7d86
0186
0186
038e
ENDCHAR
STARTCHAR U5263
ENCODING 21091
SWIDTH 960 0
DWIDTH 16 0
BBX 16 16 0 -2
BITMAP
0c06
0c36
1a36
1b36
31b6
7f56
cc36
7fb6
6db6
6db6
7fb6
0e36
0d06
1986
3186
e00e
ENDCHAR
STARTCHAR U5264
ENCODING 21092
SWIDTH 960 0
DWIDTH 16 0
BBX 16 16 0 -2
BITMAP
0c06
0c36
fff6
3336
1a36
0e36
3bb6
f1f6
31b6
3fb6
31b6
3f86
3186
6186
6186
c18e
ENDCHAR
STARTCHAR U5265
ENCODING 21093
SWIDTH 960 0
DWIDTH 16 0
BBX 16 16 0 -2
BITMAP
0006
7f36
0336
7f36
0336
0336
ffd6
0c36
cdb6
6f36
6e36
1d06
3586
ecc6
0c06
1c0e
ENDCHAR
STARTCHAR U5269
ENCODING 21097
SWIDTH 960 0
DWIDTH 16 0
BBX 16 16 0 -2
BITMAP
0306
7e36
0c36
ffd6
0c36
3556
f5b6
3536
7556
d5d6
1e36
1d06
3586
6cc6
cc06
0c0e
ENDCHAR
STARTCHAR U526A
ENCODING 21098
SWIDTH 960 0
DWIDTH 16 0
BBX 16 16 0 -2
BITMAP
0c30
0660
ffff
330c
3d6c
376c
3d6c
376c
336c
371c
0000
fffe
0306
0606
1c06
f01c
ENDCHAR
STARTCHAR U526F
ENCODING 21103
SWIDTH 960 0
DWIDTH 16 0
BBX 16 16 0 -2
BITMAP
0006
ffd6
0036
3f36
3336
3336
3f36
0036
7fb6
6db6
6db6
7fb6
6d86
6d86
7f86
000e
ENDCHAR
STARTCHAR U5270
ENCODING 21104
SWIDTH 960 0
DWIDTH 16 0
BBX 16 16 0 -2
BITMAP
0306
3e36
0c36
7fd6
35b6
35b6
fff6
35b6
35b6
7fd6
1e36
1d36
3586
6cc6
cc06
0c0e
ENDCHAR
STARTCHAR U5271
ENCODING 21105
SWIDTH 960 0
DWIDTH 16 0
BBX 16 16 0 -2
BITMAP
0c00
0cfe
1a36
3336
7fb6
ccd6
0c36
7fb6
6db6
6dba
7fb6
0c37
1a36
3366
6346
c19c
ENDCHAR
STARTCHAR U5272
ENCODING 21106
SWIDTH 960 0
DWIDTH 16 0
BBX 16 16 0 -2
BITMAP
0c06
ffd6
c0d6
ccd6
7fb6
0c36
7fb6
0c36
ffd6
0036
3fb6
31b6
3186
3186
3f86
000e
ENDCHAR
STARTCHAR U5273
ENCODING 21107
SWIDTH 960 0
DWIDTH 16 0
BBX 16 16 0 -2
BITMAP
3306
3336
ffd6
3336
0c36
0c36
1a36
3336
7fb6
c0d6
0036
7f86
6186
6186
7f86
000e
ENDCHAR
STARTCHAR U5274
ENCODING 21108
SWIDTH 960 0
DWIDTH 16 0
BBX 16 16 0 -2
BITMAP
0c06
6db6
6db6
7fb6
0036
ffd6
0036
7fb6
61b6
61b6
7fb6
3306
1b06
1ac6
1f06
f00e
ENDCHAR
STARTCHAR U5275
ENCODING 21109
SWIDTH 960 0
DWIDTH 16 0
BBX 16 16 0 -2
BITMAP
0606
0636
0d36
19b6
3f56
6076
dfb6
31b6
3fb6
31b6
3fb6
3036
6f86
6986
df86
000e
ENDCHAR
STARTCHAR U527D
ENCODING 21117
SWIDTH 960 0
DWIDTH 16 0
BBX 16 16 0 -2
BITMAP
0006
fff6
1b36
7fd6
6b56
6b56
7fd6
0036
7fd6
0036
fff6
36b6
36c6
66c6
c606
0e0e
ENDCHAR
STARTCHAR U527F
ENCODING 21119
SWIDTH 960 0
DWIDTH 16 0
BBX 16 16 0 -2
BITMAP
3686
6db6
ed36
36b6
7fb6
6db6
7fb6
6db6
7fb6
0c36
ffd6
1e06
3506
6d86
ccc6
0c0e
ENDCHAR
STARTCHAR U5283
ENCODING 21123
SWIDTH 960 0
DWIDTH 16 0
BBX 16 16 0 -2
BITMAP
0c06
7fb6
0db6
fff6
0db6
7fb6
0c36
3f36
ffd6
6db6
7fb6
6db6
7f86
0006
ffc6
000e
ENDCHAR
STARTCHAR U5287
ENCODING 21127
SWIDTH 960 0
DWIDTH 16 0
BBX 16 16 0 -2
BITMAP
0c06
0fb6
0c36
7fd6
6d56
7e36
6db6
67b6
7fd6
6e36
7ad6
6d46
7b86
6d46
db66
0e0e
ENDCHAR
STARTCHAR U5288
ENCODING 21128
SWIDTH 960 0
DWIDTH 16 0
BBX 16 16 0 -2
BITMAP
0018
3f18
337f
3366
3f34
31ff
3f18
6b7f
6b18
df18
0000
fffe
0186
0706
1c06
f03c
ENDCHAR
STARTCHAR U5289
ENCODING 21129
SWIDTH 960 0
DWIDTH 16 0
BBX 16 16 0 -2
BITMAP
1806
77c6
6356
6b56
7ad6
edd6
0c36
1b36
31d6
ff36
0c36
ffd6
0d86
6d06
3786
f80e
ENDCHAR
STARTCHAR U528D
ENCODING 21133
SWIDTH 960 0
DWIDTH 16 0
BBX 16 16 0 -2
BITMAP
0c06
0c36
1a36
3336
61b6
df56
0036
7bb6
6ab6
6ab6
7bb6
3336
3b86
6ec6
6606
cc0e
ENDCHAR
STARTCHAR U5291
ENCODING 21137
SWIDTH 960 0
DWIDTH 16 0
BBX 16 16 0 -2
BITMAP
0c06
0c36
fff6
1ad6
f5b6
7556
7556
d5b6
0036
31b6
3fb6
3186
3f86
3186
6186
c18e
ENDCHAR
STARTCHAR U5292
ENCODING 21138
SWIDTH 960 0
DWIDTH 16 0
BBX 16 16 0 -2
BITMAP
0c00
0cfe
1a36
3336
61b6
df36
0076
7bb6
6ad6
6ab6
7bb6
3336
3ba6
6ee6
66c6
cd9c
ENDCHAR
STARTCHAR U5294
ENCODING 21140
SWIDTH 960 0
DWIDTH 16 0
BBX 16 16 0 -2
BITMAP
0c00
0cfe
1a36
3336
61b6
df36
00d6
7bb6
6ab6
6aba
7bb7
3336
3ba6
6ee6
66c6
cd9c
ENDCHAR
STARTCHAR U529B
ENCODING 21147
SWIDTH 960 0
DWIDTH 16 0
BBX 16 16 0 -2
BITMAP
0300
0300
0300
0300
fffc
030c
030c
030c
060c
060c
060c
0c0c
0c0c
180c
3018
6070
ENDCHAR
STARTCHAR U529F
ENCODING 21151
SWIDTH 960 0
DWIDTH 16 0
BBX 16 16 0 -2
BITMAP
0060
0060
0060
fe60
1bfe
1866
1866
1866
1866
1866
1ec6
38c6
e0c6
0186
030c
0638
ENDCHAR
STARTCHAR U52A0
ENCODING 21152
SWIDTH 960 0
DWIDTH 16 0
BBX 16 16 0 -2
BITMAP
1800
1800
187e
1866
ffa6
19a6
19a6
19a6
19a6
19a6
19a6
19a6
31a6
31be
6180
c700
ENDCHAR
STARTCHAR U52A3
ENCODING 21155
SWIDTH 960 0
DWIDTH 16 0
BBX 16 16 0 -2
BITMAP
0180
0db0
0d98
198c
31b4
63a6
01c6
0f40
f8c0
00c0
3ffc
018c
030c
060c
1c0c
7038
ENDCHAR
STARTCHAR U52A9
ENCODING 21161
SWIDTH 960 0
DWIDTH 16 0
BBX 16 16 0 -2
BITMAP
0060
7e60
6660
6660
67fe
7e66
6666
6666
7e66
6666
66c6
6746
6ec6
7986
e30c
0638
ENDCHAR
STARTCHAR U52AA
ENCODING 21162
SWIDTH 960 0
DWIDTH 16 0
BBX 16 16 0 -2
BITMAP
0c00
0c00
fffc
1b4c
1b4c
3368
7e30
0d68
398e
e180
3ff8
0198
0318
0618
1c18
7070
ENDCHAR
STARTCHAR U52AB
ENCODING 21163
SWIDTH 960 0
DWIDTH 16 0
BBX 16 16 0 -2
BITMAP
0c30
0c30
0c30
7fb0
0cfe
0c36
0c36
0c36
ffb6
0c36
0c36
1a66
1b66
3766
fdc6
019c
ENDCHAR
STARTCHAR U52AC
ENCODING 21164
SWIDTH 960 0
DWIDTH 16 0
BBX 16 16 0 -2
BITMAP
1830
1830
1830
3fb0
31fe
61b6
7eb6
d6b6
36b6
36b6
36b6
3ea6
01a6
01a6
0346
0e9c
ENDCHAR
STARTCHAR U52AD
ENCODING 21165
SWIDTH 960 0
DWIDTH 16 0
BBX 16 16 0 -2
BITMAP
0030
ffb0
19b0
19b0
19fe
31b6
61b6
c736
0036
7f36
6336
6366
6366
6366
7f46
019c
ENDCHAR
STARTCHAR U52B1
ENCODING 21169
SWIDTH 960 0
DWIDTH 16 0
BBX 16 16 0 -2
BITMAP
0030
3fd0
3030
3030
3ffe
3436
3436
37b6
35b6
35b6
35b6
35b6
69a6
69a6
d346
0e9c
ENDCHAR
STARTCHAR U52B4
ENCODING 21172
SWIDTH 960 0
DWIDTH 16 0
BBX 16 16 0 -2
BITMAP
330c
198c
1998
19b0
fffe
c006
c306
0300
7ff8
0318
0318
0618
0618
0c18
3818
e070
ENDCHAR
STARTCHAR U52B5
ENCODING 21173
SWIDTH 960 0
DWIDTH 16 0
BBX 16 16 0 -2
BITMAP
0db0
0d98
1998
7ffe
0180
0340
ffff
0660
0db0
399c
eff7
0330
0330
0630
1c30
70e0
ENDCHAR
STARTCHAR U52B9
ENCODING 21177
SWIDTH 960 0
DWIDTH 16 0
BBX 16 16 0 -2
BITMAP
0c30
0c30
0c30
ffb0
36fe
3336
3336
6bb6
6a36
ce36
0666
0d66
1b46
30c6
6186
c31c
ENDCHAR
STARTCHAR U52BC
ENCODING 21180
SWIDTH 960 0
DWIDTH 16 0
BBX 16 16 0 -2
BITMAP
1830
1830
1830
ffb0
19fe
1836
1836
7f36
0036
0036
7f36
6366
6366
6346
7f86
031c
ENDCHAR
STARTCHAR U52BE
ENCODING 21182
SWIDTH 960 0
DWIDTH 16 0
BBX 16 16 0 -2
BITMAP
0c30
0c30
0c30
fffe
1836
1a36
f636
35b6
1db6
1b36
3366
6666
0d66
19c6
3186
e31c
ENDCHAR
STARTCHAR U52C1
ENCODING 21185
SWIDTH 960 0
DWIDTH 16 0
BBX 16 16 0 -2
BITMAP
0030
ffb0
0030
3530
357e
6a36
ea36
3536
3536
0036
ff36
1866
1866
1b66
3cc6
e19c
ENDCHAR
STARTCHAR U52C3
ENCODING 21187
SWIDTH 960 0
DWIDTH 16 0
BBX 16 16 0 -2
BITMAP
0c30
0c30
7f30
0c30
0cfe
ffb6
c1b6
deb6
0636
0c36
0fa6
fc66
0c66
0cc6
0d86
1d1c
ENDCHAR
STARTCHAR U52C5
ENCODING 21189
SWIDTH 960 0
DWIDTH 16 0
BBX 16 16 0 -2
BITMAP
0c30
0c30
ffd0
0c30
0dfe
7fb6
6db6
6db6
7fb6
1c36
1e36
3566
35a6
6cc6
cd86
0d1c
ENDCHAR
STARTCHAR U52C7
ENCODING 21191
SWIDTH 960 0
DWIDTH 16 0
BBX 16 16 0 -2
BITMAP
0000
3ff0
0ec0
0380
3ff8
3318
3ff8
3318
3318
3ff8
0300
fffc
030c
060c
1c0c
f078
ENDCHAR
STARTCHAR U52C9
ENCODING 21193
SWIDTH 960 0
DWIDTH 16 0
BBX 16 16 0 -2
BITMAP
1830
1830
3e30
3630
6c30
fffe
6db6
6db6
6db6
7fb6
1a66
1a66
36cc
36bb
6303
c1ff
ENDCHAR
STARTCHAR U52CD
ENCODING 21197
SWIDTH 960 0
DWIDTH 16 0
BBX 16 16 0 -2
BITMAP
0c30
0c30
0c30
ffb0
00fe
3f36
3336
3336
3336
3f36
0c66
3666
3566
6d46
cd86
1d1c
ENDCHAR
STARTCHAR U52D2
ENCODING 21202
SWIDTH 960 0
DWIDTH 16 0
BBX 16 16 0 -2
BITMAP
3630
3630
ff30
3630
36fe
3e36
1836
7f36
6b36
6b36
7f36
1866
ffa6
18c6
1986
1b3c
ENDCHAR
STARTCHAR U52D5
ENCODING 21205
SWIDTH 960 0
DWIDTH 16 0
BBX 16 16 0 -2
BITMAP
03b0
3e30
0c30
ffd0
0cfe
3fb6
35b6
3fb6
35b6
35b6
3fb6
0c36
7f66
0da6
1ec6
f19c
ENDCHAR
STARTCHAR U52D7
ENCODING 21207
SWIDTH 960 0
DWIDTH 16 0
BBX 16 16 0 -2
BITMAP
0000
3ff8
3018
3ff8
3018
3ff8
0030
3f30
33fe
3f36
3336
3f66
33a6
3f46
f186
031c
ENDCHAR
STARTCHAR U52D8
ENCODING 21208
SWIDTH 960 0
DWIDTH 16 0
BBX 16 16 0 -2
BITMAP
3330
3330
ffb0
3330
3f7e
3336
3f36
3336
ffb6
6a36
6a36
6aa6
73a6
6066
7f46
019c
ENDCHAR
STARTCHAR U52D9
ENCODING 21209
SWIDTH 960 0
DWIDTH 16 0
BBX 16 16 0 -2
BITMAP
00c0
7f40
06ff
358c
1b4c
1868
ff30
1aec
1ba7
3c60
3bfc
686c
686c
d8cc
198c
3b38
ENDCHAR
STARTCHAR U52DD
ENCODING 21213
SWIDTH 960 0
DWIDTH 16 0
BBX 16 16 0 -2
BITMAP
0060
7d6c
6da8
6c60
6dfe
7c60
6c70
6fff
6cd8
7dac
6dfe
6e6d
6c6c
6ccc
6d8c
dd38
ENDCHAR
STARTCHAR U52DE
ENCODING 21214
SWIDTH 960 0
DWIDTH 16 0
BBX 16 16 0 -2
BITMAP
0c30
3554
3554
6a68
334c
6180
fffe
c306
c306
7ff8
0318
0318
0618
0c18
3818
e070
ENDCHAR
STARTCHAR U52DF
ENCODING 21215
SWIDTH 960 0
DWIDTH 16 0
BBX 16 16 0 -2
BITMAP
0660
ffff
0660
1ff8
1818
1ff8
1818
1ff8
0300
ffff
0db0
3ffc
e337
0630
1c30
70e0
ENDCHAR
STARTCHAR U52E0
ENCODING 21216
SWIDTH 960 0
DWIDTH 16 0
BBX 16 16 0 -2
BITMAP
0030
ffb0
6ab0
ddb0
3bfe
eab6
1db6
1a36
3336
edb6
1a36
75b6
1b66
7666
1cc6
f19c
ENDCHAR
STARTCHAR U52E2
ENCODING 21218
SWIDTH 960 0
DWIDTH 16 0
BBX 16 16 0 -2
BITMAP
0c30
7f30
0c30
fffc
3534
35d4
7f6c
cdb4
0f5d
fb8d
0307
7ff8
0318
0618
1c18
7070
ENDCHAR
STARTCHAR U52E3
ENCODING 21219
SWIDTH 960 0
DWIDTH 16 0
BBX 16 16 0 -2
BITMAP
0c30
7f30
0c30
7f30
0cfe
ffb6
0036
3f36
3336
3f36
3336
3f36
3366
3f66
3b46
e19c
ENDCHAR
STARTCHAR U52E4
ENCODING 21220
SWIDTH 960 0
DWIDTH 16 0
BBX 16 16 0 -2
BITMAP
3330
3330
ffd0
3330
00fe
7fb6
6db6
6db6
7fb6
0c36
7fb6
0c66
7fa6
0c66
0f46
f99c
ENDCHAR
STARTCHAR U52E6
ENCODING 21222
SWIDTH 960 0
DWIDTH 16 0
BBX 16 16 0 -2
BITMAP
36b0
6db0
ed30
36b0
7ffe
6db6
7fb6
6db6
7fb6
0c36
ffd6
1d36
35a6
6c66
ccc6
0d9c
ENDCHAR
STARTCHAR U52E7
ENCODING 21223
SWIDTH 960 0
DWIDTH 16 0
BBX 16 16 0 -2
BITMAP
3030
3030
3fb0
6c30
6cfe
dfb6
1b36
3636
7fb6
d636
3f66
3666
3f66
36c6
3fc6
019c
ENDCHAR
STARTCHAR U52F2
ENCODING 21234
SWIDTH 960 0
DWIDTH 16 0
BBX 16 16 0 -2
BITMAP
0330
7e30
0c30
ffb0
0cfe
7f36
6d36
7f36
6d36
7f66
3e66
0f5c
f800
366c
6336
c333
ENDCHAR
STARTCHAR U52F3
ENCODING 21235
SWIDTH 960 0
DWIDTH 16 0
BBX 16 16 0 -2
BITMAP
0630
7c30
1830
ffb0
18fe
7f36
7b36
6d36
7f36
1836
7f36
1836
ffa6
7566
6ac6
da9c
ENDCHAR
STARTCHAR U52F5
ENCODING 21237
SWIDTH 960 0
DWIDTH 16 0
BBX 16 16 0 -2
BITMAP
0018
7fd8
6d18
7fd8
6d7e
6f9a
6a9a
6f9a
6a9a
6f9a
661a
7fd6
7556
dee6
30c6
31dc
ENDCHAR
STARTCHAR U52F8
ENCODING 21240
SWIDTH 960 0
DWIDTH 16 0
BBX 16 16 0 -2
BITMAP
1b30
ffd0
1b30
7bb0
6afe
7bb6
3636
3436
7fb6
ec36
7f36
6c36
7f66
6c66
7fc6
019c
ENDCHAR
STARTCHAR U52F9
ENCODING 21241
SWIDTH 960 0
DWIDTH 16 0
BBX 16 16 0 -2
BITMAP
1800
1800
1ffe
1806
3006
3006
6006
c006
0006
0006
0006
0006
0006
0006
000c
0078
ENDCHAR
STARTCHAR U52FA
ENCODING 21242
SWIDTH 960 0
DWIDTH 16 0
BBX 16 16 0 -2
BITMAP
0c00
0c00
0c00
0ffe
1806
1806
3006
6706
c186
00c6
00c6
0006
0006
0006
000c
0038
ENDCHAR
STARTCHAR U52FE
ENCODING 21246
SWIDTH 960 0
DWIDTH 16 0
BBX 16 16 0 -2
BITMAP
1800
1800
1800
1ffe
1b06
3306
3306
6306
c6c6
0666
0666
0df6
3f36
0006
000c
0078
ENDCHAR
STARTCHAR U52FF
ENCODING 21247
SWIDTH 960 0
DWIDTH 16 0
BBX 16 16 0 -2
BITMAP
1800
1800
1800
1ffc
366c
366c
666c
cccc
0ccc
18cc
318c
618c
030c
060c
0c18
0070
ENDCHAR
STARTCHAR U5301
ENCODING 21249
SWIDTH 960 0
DWIDTH 16 0
BBX 16 16 0 -2
BITMAP
1800
1800
1ffc
198c
398c
358c
6d8c
c68c
030c
038c
036c
063c
0c0f
380c
e018
00f0
ENDCHAR
STARTCHAR U5302
ENCODING 21250
SWIDTH 960 0
DWIDTH 16 0
BBX 16 16 0 -2
BITMAP
1800
1800
1800
1ffe
3406
3406
6c66
cdc6
0f06
0c06
0c36
0c36
07f6
0006
000c
0038
ENDCHAR
STARTCHAR U5305
ENCODING 21253
SWIDTH 960 0
DWIDTH 16 0
BBX 16 16 0 -2
BITMAP
0c00
0c00
0ffc
180c
180c
3fec
606c
c06c
006c
1fe8
1870
1800
1800
1806
0c06
07fe
ENDCHAR
STARTCHAR U5306
ENCODING 21254
SWIDTH 960 0
DWIDTH 16 0
BBX 16 16 0 -2
BITMAP
1800
1800
1ffe
1b66
3366
3366
6366
de66
0766
0dc6
38e6
e1b6
0306
0e06
380c
0038
ENDCHAR
STARTCHAR U5308
ENCODING 21256
SWIDTH 960 0
DWIDTH 16 0
BBX 16 16 0 -2
BITMAP
1800
1800
1ffe
1806
3066
3666
6b5a
d9da
19da
19aa
1b6a
1a1a
1ffa
0006
000c
0038
ENDCHAR
STARTCHAR U530D
ENCODING 21261
SWIDTH 960 0
DWIDTH 16 0
BBX 16 16 0 -2
BITMAP
1800
1800
1ffe
18c6
3366
3ffa
6306
dff6
3336
3ff6
3336
3ff6
3336
3336
3374
0038
ENDCHAR
STARTCHAR U530F
ENCODING 21263
SWIDTH 960 0
DWIDTH 16 0
BBX 16 16 0 -2
BITMAP
1860
1860
ff7e
3466
36c6
637a
feda
00da
ff7a
30c6
30c6
7edc
66c0
06c3
0663
1c3f
ENDCHAR
STARTCHAR U5310
ENCODING 21264
SWIDTH 960 0
DWIDTH 16 0
BBX 16 16 0 -2
BITMAP
1800
1800
1ffe
3006
3ff6
6006
dfe6
1866
1fe6
0006
3ff6
3336
3ff6
3336
3ff4
0038
ENDCHAR
STARTCHAR U5315
ENCODING 21269
SWIDTH 960 0
DWIDTH 16 0
BBX 16 16 0 -2
BITMAP
1800
1800
1800
180c
1818
1830
18e0
1b80
1e00
7800
1800
1800
1806
1806
0c06
07fe
ENDCHAR
STARTCHAR U5316
ENCODING 21270
SWIDTH 960 0
DWIDTH 16 0
BBX 16 16 0 -2
BITMAP
06c0
06c0
06c6
0cc6
0ccc
18cc
18d8
38d0
68e0
d8c0
18c0
18c0
18c3
18c3
1863
183f
ENDCHAR
STARTCHAR U5317
ENCODING 21271
SWIDTH 960 0
DWIDTH 16 0
BBX 16 16 0 -2
BITMAP
0cc0
0cc0
0cc0
0ccc
0ccc
fcd8
0cd0
0ce0
0cc0
0cc0
1cc0
34c6
ecc6
0c66
0c3e
0c00
ENDCHAR
STARTCHAR U5319
ENCODING 21273
SWIDTH 960 0
DWIDTH 16 0
BBX 16 16 0 -2
BITMAP
0060
3f60
3360
3f66
336c
3378
3f60
0060
ffa0
3466
3466
37a6
3c3e
6c00
6700
c1ff
ENDCHAR
STARTCHAR U531A
ENCODING 21274
SWIDTH 960 0
DWIDTH 16 0
BBX 16 16 0 -2
BITMAP
0000
7ffe
6000
6000
6000
6000
6000
6000
6000
6000
6000
6000
6000
6000
7ffe
0000
ENDCHAR
STARTCHAR U531D
ENCODING 21277
SWIDTH 960 0
DWIDTH 16 0
BBX 16 16 0 -2
BITMAP
0000
7ffe
6000
60c0
60c0
6ffc
6ccc
6ccc
6ccc
6ccc
6cd8
6cc0
60c0
60c0
7fff
0000
ENDCHAR
STARTCHAR U5320
ENCODING 21280
SWIDTH 960 0
DWIDTH 16 0
BBX 16 16 0 -2
BITMAP
0000
7ffe
6018
60f0
6f80
6c00
6ffc
6c60
6c60
6c60
6c60
6860
6860
7060
7ffe
0000
ENDCHAR
STARTCHAR U5321
ENCODING 21281
SWIDTH 960 0
DWIDTH 16 0
BBX 16 16 0 -2
BITMAP
0000
7ffe
6000
6000
6ff8
6180
6180
6ff0
6180
6180
6180
6ffc
6000
6000
7ffe
0000
ENDCHAR
STARTCHAR U5323
ENCODING 21283
SWIDTH 960 0
DWIDTH 16 0
BBX 16 16 0 -2
BITMAP
0000
7ffe
6000
6ffc
6ccc
6ccc
6ffc
6ccc
6ccc
6ffc
60c0
60c0
60c0
60c0
7fff
0000
ENDCHAR
STARTCHAR U532A
ENCODING 21290
SWIDTH 960 0
DWIDTH 16 0
BBX 16 16 0 -2
BITMAP
0000
7ffe
6360
6360
6f7c
6360
6360
6f7c
6360
67a0
6d7e
6660
6660
6c00
7ffe
0000
ENDCHAR
STARTCHAR U532F
ENCODING 21295
SWIDTH 960 0
DWIDTH 16 0
BBX 16 16 0 -2
BITMAP
0000
7fff
6800
6d98
61b0
73fe
6b60
67fc
6360
6dfc
6b60
6b60
73fe
6000
7fff
6000
ENDCHAR
STARTCHAR U5331
ENCODING 21297
SWIDTH 960 0
DWIDTH 16 0
BBX 16 16 0 -2
BITMAP
0000
7fff
60c0
67fc
66cc
67fc
60c0
6fff
6318
63f8
6318
63f8
63b8
6e0c
7fff
6000
ENDCHAR
STARTCHAR U5333
ENCODING 21299
SWIDTH 960 0
DWIDTH 16 0
BBX 16 16 0 -2
BITMAP
0000
7fff
60c0
61a0
6330
6fec
7807
6fbc
6dac
6fbc
6618
671c
6db6
6860
7fff
6000
ENDCHAR
STARTCHAR U5338
ENCODING 21304
SWIDTH 960 0
DWIDTH 16 0
BBX 16 16 0 -2
BITMAP
0000
ffff
3000
3000
3000
3000
3000
3000
3000
3000
3000
3000
3000
1800
0ffe
0000
ENDCHAR
STARTCHAR U5339
ENCODING 21305
SWIDTH 960 0
DWIDTH 16 0
BBX 16 16 0 -2
BITMAP
0000
0000
ffff
c660
c660
c660
c660
cc60
cc66
d866
d03e
c000
c000
ffff
0000
0000
ENDCHAR
STARTCHAR U533A
ENCODING 21306
SWIDTH 960 0
DWIDTH 16 0
BBX 16 16 0 -2
BITMAP
0000
7ffe
6018
6018
6018
6030
6e30
63a0
60c0
61a0
6330
6618
6c18
6800
7fff
0000
ENDCHAR
STARTCHAR U533B
ENCODING 21307
SWIDTH 960 0
DWIDTH 16 0
BBX 16 16 0 -2
BITMAP
0000
7ffe
6300
6300
67fc
6cc0
68c0
7ffe
61a0
61b0
6318
660c
6c0c
6800
7ffe
0000
ENDCHAR
STARTCHAR U533F
ENCODING 21311
SWIDTH 960 0
DWIDTH 16 0
BBX 16 16 0 -2
BITMAP
0000
7ffe
6000
6630
7ffe
66b0
6180
7ffe
6300
67f8
6e18
7a18
67f8
6000
7ffe
0000
ENDCHAR
STARTCHAR U5340
ENCODING 21312
SWIDTH 960 0
DWIDTH 16 0
BBX 16 16 0 -2
BITMAP
0000
ffff
6000
67f0
6630
6630
67f0
6000
6f7c
6b6c
6b6c
6b6c
6f7c
6000
7fff
0000
ENDCHAR
STARTCHAR U5341
ENCODING 21313
SWIDTH 960 0
DWIDTH 16 0
BBX 16 16 0 -2
BITMAP
0180
0180
0180
0180
0180
0180
ffff
0180
0180
0180
0180
0180
0180
0180
0180
0180
ENDCHAR
STARTCHAR U5343
ENCODING 21315
SWIDTH 960 0
DWIDTH 16 0
BBX 16 16 0 -2
BITMAP
0018
0070
3fc0
0180
0180
0180
0180
ffff
0180
0180
0180
0180
0180
0180
0180
0180
ENDCHAR
STARTCHAR U5345
ENCODING 21317
SWIDTH 960 0
DWIDTH 16 0
BBX 16 16 0 -2
BITMAP
1998
1998
1998
1998
1998
1998
ffff
1998
1998
1998
1998
1998
3198
3198
6198
c198
ENDCHAR
STARTCHAR U5346
ENCODING 21318
SWIDTH 960 0
DWIDTH 16 0
BBX 16 16 0 -2
BITMAP
0600
0600
ffe0
0660
0660
0c60
1866
3336
e31e
0300
fffe
0300
0300
0300
0300
0300
ENDCHAR
STARTCHAR U5347
ENCODING 21319
SWIDTH 960 0
DWIDTH 16 0
BBX 16 16 0 -2
BITMAP
0030
01b0
0730
7c30
0c30
0c30
0c30
ffff
0c30
0c30
0c30
0c30
1830
1830
3030
6030
ENDCHAR
STARTCHAR U5348
ENCODING 21320
SWIDTH 960 0
DWIDTH 16 0
BBX 16 16 0 -2
BITMAP
0c00
0c00
0ffc
1980
1980
3180
6180
0180
ffff
0180
0180
0180
0180
0180
0180
0180
ENDCHAR
STARTCHAR U5349
ENCODING 21321
SWIDTH 960 0
DWIDTH 16 0
BBX 16 16 0 -2
BITMAP
0180
0180
3ffc
0180
0180
0d98
0c18
0c18
ffff
0c18
0c18
0c18
1818
1818
3018
6018
ENDCHAR
STARTCHAR U534A
ENCODING 21322
SWIDTH 960 0
DWIDTH 16 0
BBX 16 16 0 -2
BITMAP
0180
018c
318c
1998
0db0
0d80
7ffe
0180
0180
0180
ffff
0180
0180
0180
0180
0180
ENDCHAR
STARTCHAR U534D
ENCODING 21325
SWIDTH 960 0
DWIDTH 16 0
BBX 16 16 0 -2
BITMAP
0006
ff86
0186
0186
0186
0186
0186
7ffe
6180
6180
6180
6180
6180
6180
61ff
6000
ENDCHAR
STARTCHAR U5351
ENCODING 21329
SWIDTH 960 0
DWIDTH 16 0
BBX 16 16 0 -2
BITMAP
0180
0300
1ffc
198c
198c
1ffc
198c
198c
1ffc
06c0
0cc0
ffff
00c0
00c0
00c0
00c0
ENDCHAR
STARTCHAR U5352
ENCODING 21330
SWIDTH 960 0
DWIDTH 16 0
BBX 16 16 0 -2
BITMAP
0180
0180
7ffe
0c30
0c30
0e38
1b6c
31c6
6180
ffff
0180
0180
0180
0180
0180
0180
ENDCHAR
STARTCHAR U5353
ENCODING 21331
SWIDTH 960 0
DWIDTH 16 0
BBX 16 16 0 -2
BITMAP
0180
0180
01fc
0180
1ff8
1818
1818
1ff8
1818
1818
1ff8
0180
ffff
0180
0180
0180
ENDCHAR
STARTCHAR U5354
ENCODING 21332
SWIDTH 960 0
DWIDTH 16 0
BBX 16 16 0 -2
BITMAP
30c0
30c0
37fc
30cc
30cc
fd8c
3338
3618
3618
3fff
36db
36db
36db
34db
34d3
3bae
ENDCHAR
STARTCHAR U5357
ENCODING 21335
SWIDTH 960 0
DWIDTH 16 0
BBX 16 16 0 -2
BITMAP
0180
0180
ffff
0180
0180
3ffc
366c
334c
37f4
318c
318c
3ffc
318c
318c
318c
319c
ENDCHAR
STARTCHAR U5358
ENCODING 21336
SWIDTH 960 0
DWIDTH 16 0
BBX 16 16 0 -2
BITMAP
1b18
0d98
0db0
1ffc
198c
198c
1ffc
198c
198c
1ffc
0180
0180
ffff
0180
0180
0180
ENDCHAR
STARTCHAR U535A
ENCODING 21338
SWIDTH 960 0
DWIDTH 16 0
BBX 16 16 0 -2
BITMAP
3068
306c
37ff
3060
33fe
3366
fdfe
3366
33fe
3018
37ff
3318
3198
3198
3018
3038
ENDCHAR
STARTCHAR U535C
ENCODING 21340
SWIDTH 960 0
DWIDTH 16 0
BBX 16 16 0 -2
BITMAP
0600
0600
0600
0600
0600
0780
06c0
0660
0630
0618
0600
0600
0600
0600
0600
0600
ENDCHAR
STARTCHAR U535E
ENCODING 21342
SWIDTH 960 0
DWIDTH 16 0
BBX 16 16 0 -2
BITMAP
0180
0180
ffff
0180
0180
0180
01c0
01b0
0198
018c
0180
0180
0180
0180
0180
0180
ENDCHAR
STARTCHAR U5360
ENCODING 21344
SWIDTH 960 0
DWIDTH 16 0
BBX 16 16 0 -2
BITMAP
0300
0300
0300
0300
03ff
0300
0300
0300
0300
3ff8
3018
3018
3018
3018
3ff8
0000
ENDCHAR
STARTCHAR U5366
ENCODING 21350
SWIDTH 960 0
DWIDTH 16 0
BBX 16 16 0 -2
BITMAP
0c30
0c30
7fb0
0c30
0c30
0c38
ffd4
0c36
0c36
7fb0
0c30
0c30
0dd0
1e30
f030
0030
ENDCHAR
STARTCHAR U5369
ENCODING 21353
SWIDTH 960 0
DWIDTH 16 0
BBX 16 16 0 -2
BITMAP
0000
1ff0
1830
1830
1830
1830
1830
1830
1830
1830
1830
19e0
1800
1800
1800
1800
ENDCHAR
STARTCHAR U536E
ENCODING 21358
SWIDTH 960 0
DWIDTH 16 0
BBX 16 16 0 -2
BITMAP
0018
00f0
3f80
3000
3000
3fff
3000
37f8
3618
3618
3618
3678
6606
6606
c306
01fe
ENDCHAR
STARTCHAR U536F
ENCODING 21359
SWIDTH 960 0
DWIDTH 16 0
BBX 16 16 0 -2
BITMAP
0600
1c00
70fc
66cc
66cc
66cc
66cc
66cc
66cc
66cc
7ecc
e6cc
0cd8
0cc0
18c0
30c0
ENDCHAR
STARTCHAR U5370
ENCODING 21360
SWIDTH 960 0
DWIDTH 16 0
BBX 16 16 0 -2
BITMAP
0300
0e00
78fe
60c6
60c6
60c6
7f46
60c6
60c6
60c6
60c6
7f5c
00c0
00c0
00c0
00c0
ENDCHAR
STARTCHAR U5371
ENCODING 21361
SWIDTH 960 0
DWIDTH 16 0
BBX 16 16 0 -2
BITMAP
0c00
0ff0
1860
30c0
7ffe
d000
3000
37f8
3618
3618
3618
3670
6606
6606
c306
01fe
ENDCHAR
STARTCHAR U5373
ENCODING 21363
SWIDTH 960 0
DWIDTH 16 0
BBX 16 16 0 -2
BITMAP
0000
3fbe
31a6
31a6
3fa6
31a6
31a6
31a6
3fa6
3466
3666
3366
36ac
39a0
e060
0060
ENDCHAR
STARTCHAR U5374
ENCODING 21364
SWIDTH 960 0
DWIDTH 16 0
BBX 16 16 0 -2
BITMAP
0c00
0c7e
7fa6
0c66
0c66
0c66
0c66
ffe6
1866
1a66
1b66
3366
37ac
fda0
01a0
0060
ENDCHAR
STARTCHAR U5375
ENCODING 21365
SWIDTH 960 0
DWIDTH 16 0
BBX 16 16 0 -2
BITMAP
0600
0c00
387e
3366
3366
3366
3b76
356a
356a
3366
3366
3f66
e66c
0660
0c60
1860
ENDCHAR
STARTCHAR U5377
ENCODING 21367
SWIDTH 960 0
DWIDTH 16 0
BBX 16 16 0 -2
BITMAP
0db0
0d98
1998
7ffe
0180
0340
ffff
0660
0c30
3ffc
ec37
0c30
0ce0
0c0c
060c
03fc
ENDCHAR
STARTCHAR U5378
ENCODING 21368
SWIDTH 960 0
DWIDTH 16 0
BBX 16 16 0 -2
BITMAP
3000
307e
3fa6
3466
6c66
cc66
ffe6
0c66
6c66
6fa6
6c66
6c66
6fbc
7c60
e060
0060
ENDCHAR
STARTCHAR U537B
ENCODING 21371
SWIDTH 960 0
DWIDTH 16 0
BBX 16 16 0 -2
BITMAP
0c00
1a7e
1b66
31a6
6da6
da66
1b66
31a6
31a6
7f66
d366
3366
336c
3360
3f60
0060
ENDCHAR
STARTCHAR U537F
ENCODING 21375
SWIDTH 960 0
DWIDTH 16 0
BBX 16 16 0 -2
BITMAP
0c00
1bde
76d6
6ad6
6bd6
6ad6
6ad6
6bd6
6a36
6b36
7ab6
ead6
1bdc
3670
3030
6030
ENDCHAR
STARTCHAR U5382
ENCODING 21378
SWIDTH 960 0
DWIDTH 16 0
BBX 16 16 0 -2
BITMAP
0000
3ffe
3000
3000
3000
3000
3000
3000
3000
3000
3000
3000
6000
6000
c000
0000
ENDCHAR
STARTCHAR U5384
ENCODING 21380
SWIDTH 960 0
DWIDTH 16 0
BBX 16 16 0 -2
BITMAP
0000
3fff
3000
3000
37f8
3618
3618
3618
3618
3618
3670
3606
6606
6306
c1fe
0000
ENDCHAR
STARTCHAR U5396
ENCODING 21398
SWIDTH 960 0
DWIDTH 16 0
BBX 16 16 0 -2
BITMAP
0000
3fff
300c
368c
36d8
3636
3fe6
360c
361b
3733
3566
350c
6d18
6b73
db03
31ff
ENDCHAR
STARTCHAR U5398
ENCODING 21400
SWIDTH 960 0
DWIDTH 16 0
BBX 16 16 0 -2
BITMAP
0000
3fff
3000
37fc
36cc
37fc
36cc
36cc
37fc
30c0
30c0
37fe
60c0
60c0
dfff
0000
ENDCHAR
STARTCHAR U539A
ENCODING 21402
SWIDTH 960 0
DWIDTH 16 0
BBX 16 16 0 -2
BITMAP
0000
3ffe
3000
37f8
3618
37f8
3618
37f8
3000
37f8
3060
30c0
6fff
60c0
c0c0
01c0
ENDCHAR
STARTCHAR U539F
ENCODING 21407
SWIDTH 960 0
DWIDTH 16 0
BBX 16 16 0 -2
BITMAP
0000
3fff
30c0
3180
37f8
3618
37f8
3618
3618
37f8
30c0
36d8
66cc
6cc6
d8c6
01c0
ENDCHAR
STARTCHAR U53A0
ENCODING 21408
SWIDTH 960 0
DWIDTH 16 0
BBX 16 16 0 -2
BITMAP
0000
3fff
3000
37c6
34d6
34d6
37d6
34d6
34d6
37d6
34d6
34d6
6fc6
6686
ccc6
180e
ENDCHAR
STARTCHAR U53A5
ENCODING 21413
SWIDTH 960 0
DWIDTH 16 0
BBX 16 16 0 -2
BITMAP
0000
3fff
34d0
36d0
36b0
3fdf
3363
356a
3558
3558
3558
37d4
6634
666c
ccc6
1983
ENDCHAR
STARTCHAR U53A6
ENCODING 21414
SWIDTH 960 0
DWIDTH 16 0
BBX 16 16 0 -2
BITMAP
0000
3fff
3000
3fff
30c0
37fc
360c
37fc
360c
37fc
30c0
31fc
6798
6cf0
c1d8
3f0f
ENDCHAR
STARTCHAR U53A8
ENCODING 21416
SWIDTH 960 0
DWIDTH 16 0
BBX 16 16 0 -2
BITMAP
0000
3fff
3000
300c
3fcc
300c
37ff
358c
35cc
37ac
306c
358c
668c
676c
c78c
3c1c
ENDCHAR
STARTCHAR U53A9
ENCODING 21417
SWIDTH 960 0
DWIDTH 16 0
BBX 16 16 0 -2
BITMAP
0000
3fff
3000
37be
35a8
35a8
37a8
35a8
35ff
3798
3438
3538
6da8
6dab
cedb
398f
ENDCHAR
STARTCHAR U53AD
ENCODING 21421
SWIDTH 960 0
DWIDTH 16 0
BBX 16 16 0 -2
BITMAP
0000
7fff
6000
6f9a
699b
6f98
69ff
6f98
6018
6f9c
69b4
6fb4
69b4
6fa6
d9c6
db83
ENDCHAR
STARTCHAR U53AE
ENCODING 21422
SWIDTH 960 0
DWIDTH 16 0
BBX 16 16 0 -2
BITMAP
0000
3fff
3006
358c
35b8
3ff0
35bf
37b6
35b6
37b6
35b6
35b6
7fe6
6d66
d9c6
3186
ENDCHAR
STARTCHAR U53B0
ENCODING 21424
SWIDTH 960 0
DWIDTH 16 0
BBX 16 16 0 -2
BITMAP
0000
7fff
6318
6d58
6d58
6b6f
6336
6fd6
68d6
6bea
6ada
6acc
6bcc
68da
d8d6
19e3
ENDCHAR
STARTCHAR U53B3
ENCODING 21427
SWIDTH 960 0
DWIDTH 16 0
BBX 16 16 0 -2
BITMAP
198c
0cd8
3fff
3030
37d0
3330
3fdf
35ac
37ac
35d4
37b4
3598
6dd8
6fb4
dda6
01c3
ENDCHAR
STARTCHAR U53B6
ENCODING 21430
SWIDTH 960 0
DWIDTH 16 0
BBX 16 16 0 -2
BITMAP
0300
0300
0300
0300
0300
0300
0300
0600
0660
0630
0618
0c18
0c7c
1bcc
fe06
0006
ENDCHAR
STARTCHAR U53BB
ENCODING 21435
SWIDTH 960 0
DWIDTH 16 0
BBX 16 16 0 -2
BITMAP
0180
0180
0180
3ffc
0180
0180
0180
0180
ffff
0300
0360
0630
0618
0df8
7f0c
000c
ENDCHAR
STARTCHAR U53C2
ENCODING 21442
SWIDTH 960 0
DWIDTH 16 0
BBX 16 16 0 -2
BITMAP
0300
0360
0638
3fec
0300
ffff
0660
0cd0
3b9c
ee67
00c0
0398
3e30
00e0
0380
3e00
ENDCHAR
STARTCHAR U53C3
ENCODING 21443
SWIDTH 960 0
DWIDTH 16 0
BBX 16 16 0 -2
BITMAP
0340
0670
3fe8
1818
1d9c
36b6
fd7d
0660
0db0
3b3c
ee67
39d8
0730
3ce0
0380
3e00
ENDCHAR
STARTCHAR U53C8
ENCODING 21448
SWIDTH 960 0
DWIDTH 16 0
BBX 16 16 0 -2
BITMAP
0000
0000
7ffc
0c0c
0c0c
0c18
0618
0630
0330
01a0
01c0
0340
0660
0c30
381c
e007
ENDCHAR
STARTCHAR U53C9
ENCODING 21449
SWIDTH 960 0
DWIDTH 16 0
BBX 16 16 0 -2
BITMAP
0000
0000
7ff8
1b18
1998
0db0
0db0
0660
0660
0340
0180
0340
0660
0c30
381c
e007
ENDCHAR
STARTCHAR U53CA
ENCODING 21450
SWIDTH 960 0
DWIDTH 16 0
BBX 16 16 0 -2
BITMAP
0000
7fe0
0c60
0cc0
0cc0
0ef0
0e30
0d30
0d30
19a0
18e0
18c0
31a0
3330
6618
dc0e
ENDCHAR
STARTCHAR U53CB
ENCODING 21451
SWIDTH 960 0
DWIDTH 16 0
BBX 16 16 0 -2
BITMAP
0300
0300
0300
ffff
0300
0300
07f0
0630
0730
0d60
0da0
18c0
31a0
6330
ce1c
3807
ENDCHAR
STARTCHAR U53CC
ENCODING 21452
SWIDTH 960 0
DWIDTH 16 0
BBX 16 16 0 -2
BITMAP
0000
fffc
060c
06cc
c6cc
66cc
36cc
1c68
0c68
0e30
1a30
1b68
3358
318c
6706
dc03
ENDCHAR
STARTCHAR U53CD
ENCODING 21453
SWIDTH 960 0
DWIDTH 16 0
BBX 16 16 0 -2
BITMAP
0000
3ffe
3000
3000
3000
3ff8
3618
3618
3330
3330
31a0
30c0
31a0
6330
6e1c
d807
ENDCHAR
STARTCHAR U53CE
ENCODING 21454
SWIDTH 960 0
DWIDTH 16 0
BBX 16 16 0 -2
BITMAP
0c00
0c00
6ffc
6d8c
6d8c
6d8c
6d8c
6cd8
6cd8
6c70
6e70
7c68
ccd8
0d8c
0d06
0c03
ENDCHAR
STARTCHAR U53D4
ENCODING 21460
SWIDTH 960 0
DWIDTH 16 0
BBX 16 16 0 -2
BITMAP
0c00
0c00
0dfc
0f4c
0ccc
0c6c
ffac
0c68
0c68
3538
3530
6db8
6da8
cccc
0d86
1d03
ENDCHAR
STARTCHAR U53D6
ENCODING 21462
SWIDTH 960 0
DWIDTH 16 0
BBX 16 16 0 -2
BITMAP
0000
ff80
337e
3366
3366
3f66
3366
3334
3f34
3338
3318
3334
3f6c
e346
0386
0303
ENDCHAR
STARTCHAR U53D7
ENCODING 21463
SWIDTH 960 0
DWIDTH 16 0
BBX 16 16 0 -2
BITMAP
0018
00f0
ff98
3618
1b30
1b60
fffe
c006
dff6
0c30
0660
0340
0180
0760
1c38
f00e
ENDCHAR
STARTCHAR U53D9
ENCODING 21465
SWIDTH 960 0
DWIDTH 16 0
BBX 16 16 0 -2
BITMAP
0c00
0dfc
1a0c
1b0c
318c
7f6c
cc6c
0c68
ffa8
0c38
3530
35b8
6da8
6ccc
cd86
1d03
ENDCHAR
STARTCHAR U53DB
ENCODING 21467
SWIDTH 960 0
DWIDTH 16 0
BBX 16 16 0 -2
BITMAP
1800
1aff
da80
6a80
6d80
19fc
ffac
19ac
19ac
1eb4
f9b8
1998
3334
336c
66c6
cd83
ENDCHAR
STARTCHAR U53DF
ENCODING 21471
SWIDTH 960 0
DWIDTH 16 0
BBX 16 16 0 -2
BITMAP
0300
0d00
3b78
3318
3318
3d78
3318
3318
3ff8
0300
fff8
1830
0e60
03c0
1e78
f00f
ENDCHAR
STARTCHAR U53E1
ENCODING 21473
SWIDTH 960 0
DWIDTH 16 0
BBX 16 16 0 -2
BITMAP
1800
1f7c
180c
ffac
c1ac
7f6c
0d6c
6dac
da34
3fb8
7358
df38
3334
3f6c
33c6
3f03
ENDCHAR
STARTCHAR U53E2
ENCODING 21474
SWIDTH 960 0
DWIDTH 16 0
BBX 16 16 0 -2
BITMAP
1b58
0d50
ffff
0660
3ffc
0180
1ff8
0180
ffff
3300
3f7c
336c
3f34
3318
ff74
03c7
ENDCHAR
STARTCHAR U53E3
ENCODING 21475
SWIDTH 960 0
DWIDTH 16 0
BBX 16 16 0 -2
BITMAP
0000
0000
7ffc
600c
600c
600c
600c
600c
600c
600c
600c
600c
600c
7ffc
600c
0000
ENDCHAR
STARTCHAR U53E4
ENCODING 21476
SWIDTH 960 0
DWIDTH 16 0
BBX 16 16 0 -2
BITMAP
0180
0180
0180
ffff
0180
0180
0180
0180
1ff8
1818
1818
1818
1818
1818
1ff8
0000
ENDCHAR
STARTCHAR U53E5
ENCODING 21477
SWIDTH 960 0
DWIDTH 16 0
BBX 16 16 0 -2
BITMAP
0c00
0c00
0c00
1ffe
1806
3006
6fe6
cc66
0c66
0c66
0c66
0fe6
0006
0006
000c
0038
ENDCHAR
STARTCHAR U53E8
ENCODING 21480
SWIDTH 960 0
DWIDTH 16 0
BBX 16 16 0 -2
BITMAP
0000
03fe
7e66
6666
6666
6666
6666
6666
6666
66c6
66c6
7ec6
0186
0306
060c
0c38
ENDCHAR
STARTCHAR U53E9
ENCODING 21481
SWIDTH 960 0
DWIDTH 16 0
BBX 16 16 0 -2
BITMAP
0000
7efe
66c6
66c6
66c6
66c6
66c6
66c6
66c6
66c6
66c6
7edc
00c0
00c0
00c0
00c0
ENDCHAR
STARTCHAR U53EA
ENCODING 21482
SWIDTH 960 0
DWIDTH 16 0
BBX 16 16 0 -2
BITMAP
0000
0000
3ff8
3018
3018
3018
3018
3018
3018
3ff8
0000
0c60
0c30
1818
300c
600c
ENDCHAR
STARTCHAR U53EB
ENCODING 21483
SWIDTH 960 0
DWIDTH 16 0
BBX 16 16 0 -2
BITMAP
000c
000c
7ecc
66cc
66cc
66cc
66cc
66cc
66cc
66cc
66cf
7efc
07cc
000c
000c
000c
ENDCHAR
STARTCHAR U53EC
ENCODING 21484
SWIDTH 960 0
DWIDTH 16 0
BBX 16 16 0 -2
BITMAP
0000
fffe
0306
0306
0606
0606
0c06
381c
e000
1ffc
180c
180c
180c
180c
1ffc
0000
ENDCHAR
STARTCHAR U53ED
ENCODING 21485
SWIDTH 960 0
DWIDTH 16 0
BBX 16 16 0 -2
BITMAP
01f8
0018
fc18
cc18
cd98
cd98
cd98
cd98
cd98
cd98
cd98
fd18
030c
060c
0c06
1803
ENDCHAR
STARTCHAR U53EE
ENCODING 21486
SWIDTH 960 0
DWIDTH 16 0
BBX 16 16 0 -2
BITMAP
0000
07ff
fc30
cc30
cc30
cc30
cc30
cc30
cc30
cc30
cc30
fc30
0030
0030
0030
0070
ENDCHAR
STARTCHAR U53EF
ENCODING 21487
SWIDTH 960 0
DWIDTH 16 0
BBX 16 16 0 -2
BITMAP
0000
0000
ffff
0018
0018
1fd8
18d8
18d8
18d8
18d8
1fd8
0018
0018
0018
0018
0038
ENDCHAR
STARTCHAR U53F0
ENCODING 21488
SWIDTH 960 0
DWIDTH 16 0
BBX 16 16 0 -2
BITMAP
0300
0300
0660
0630
0c18
19fc
ff0c
0006
0006
3ff8
3018
3018
3018
3018
3ff8
0000
ENDCHAR
STARTCHAR U53F1
ENCODING 21489
SWIDTH 960 0
DWIDTH 16 0
BBX 16 16 0 -2
BITMAP
0180
0180
fd80
cd8c
cd98
cdb0
cda0
cdc0
cf80
cd80
cd80
cd80
fd86
0186
00c6
007e
ENDCHAR
STARTCHAR U53F2
ENCODING 21490
SWIDTH 960 0
DWIDTH 16 0
BBX 16 16 0 -2
BITMAP
0180
0180
0180
3ffc
318c
318c
318c
318c
3ffc
0180
0d80
0700
0380
06e0
1c38
700f
ENDCHAR
STARTCHAR U53F3
ENCODING 21491
SWIDTH 960 0
DWIDTH 16 0
BBX 16 16 0 -2
BITMAP
0300
0300
0300
fffe
0600
0600
0600
0c00
0ff8
1c18
3418
6c18
cc18
0c18
0ff8
0000
ENDCHAR
STARTCHAR U53F6
ENCODING 21494
SWIDTH 960 0
DWIDTH 16 0
BBX 16 16 0 -2
BITMAP
0030
0030
7e30
6630
6630
6630
67ff
6630
6630
6630
6630
7e30
0030
0030
0030
0030
ENDCHAR
STARTCHAR U53F7
ENCODING 21495
SWIDTH 960 0
DWIDTH 16 0
BBX 16 16 0 -2
BITMAP
0000
1ff0
1830
1830
1830
1ff0
0000
ffff
0c00
0c00
0ff0
1830
0030
0030
0060
01c0
ENDCHAR
STARTCHAR U53F8
ENCODING 21496
SWIDTH 960 0
DWIDTH 16 0
BBX 16 16 0 -2
BITMAP
0000
fffc
000c
000c
7fec
000c
000c
3fcc
30cc
30cc
30cc
3fcc
000c
000c
0018
0070
ENDCHAR
STARTCHAR U53FA
ENCODING 21498
SWIDTH 960 0
DWIDTH 16 0
BBX 16 16 0 -2
BITMAP
01e0
0060
fc60
cc60
cc60
cc60
cc60
cc70
cc70
ccd0
ccd0
fd98
0198
030c
0e06
3803
ENDCHAR
STARTCHAR U5401
ENCODING 21505
SWIDTH 960 0
DWIDTH 16 0
BBX 16 16 0 -2
BITMAP
0000
03fc
fc60
cc60
cc60
cc60
cc60
cfff
cc60
cc60
cc60
fc60
0060
0060
0060
00e0
ENDCHAR
STARTCHAR U5403
ENCODING 21507
SWIDTH 960 0
DWIDTH 16 0
BBX 16 16 0 -2
BITMAP
0180
0180
f980
dbff
db00
db00
dafc
dc18
d830
d860
d8c0
f980
0306
0306
0306
01fe
ENDCHAR
STARTCHAR U5404
ENCODING 21508
SWIDTH 960 0
DWIDTH 16 0
BBX 16 16 0 -2
BITMAP
0600
0600
0ff8
0c30
1a60
3340
61c0
0760
0c30
381c
effb
1818
1818
1818
1ff8
0000
ENDCHAR
STARTCHAR U5408
ENCODING 21512
SWIDTH 960 0
DWIDTH 16 0
BBX 16 16 0 -2
BITMAP
0180
0180
0340
0660
0c30
381c
eff7
0000
0000
1ff8
1818
1818
1818
1818
1ff8
0000
ENDCHAR
STARTCHAR U5409
ENCODING 21513
SWIDTH 960 0
DWIDTH 16 0
BBX 16 16 0 -2
BITMAP
0180
0180
0180
ffff
0180
0180
0180
3ffc
0000
0000
1ff8
1818
1818
1818
1ff8
0000
ENDCHAR
STARTCHAR U540A
ENCODING 21514
SWIDTH 960 0
DWIDTH 16 0
BBX 16 16 0 -2
BITMAP
0000
0ff0
0c30
0c30
0c30
0c30
0ff0
0180
3ffc
318c
318c
318c
318c
31b8
3180
0180
ENDCHAR
STARTCHAR U540B
ENCODING 21515
SWIDTH 960 0
DWIDTH 16 0
BBX 16 16 0 -2
BITMAP
0018
0018
fc18
cc18
cfff
cc18
cd18
cd98
ccd8
ccd8
cc18
fc18
0018
0018
0018
0038
ENDCHAR
STARTCHAR U540C
ENCODING 21516
SWIDTH 960 0
DWIDTH 16 0
BBX 16 16 0 -2
BITMAP
0000
7ffe
6006
6006
6ffa
6006
6006
6ff6
6c36
6c36
6c36
6ff6
6006
6006
6006
600e
ENDCHAR
STARTCHAR U540D
ENCODING 21517
SWIDTH 960 0
DWIDTH 16 0
BBX 16 16 0 -2
BITMAP
0300
0300
03f8
0618
0c30
1a60
3340
6180
0300
0ffe
3a06
e606
0606
0606
07fe
0000
ENDCHAR
STARTCHAR U540E
ENCODING 21518
SWIDTH 960 0
DWIDTH 16 0
BBX 16 16 0 -2
BITMAP
000c
0078
1fc0
1800
1800
1fff
1800
1800
1800
1bfc
1a0c
360c
360c
660c
c7fc
0000
ENDCHAR
STARTCHAR U540F
ENCODING 21519
SWIDTH 960 0
DWIDTH 16 0
BBX 16 16 0 -2
BITMAP
0180
0180
ffff
0180
3ff8
3198
3198
3198
3ff8
0d80
0680
0300
0380
06e0
1c38
f00e
ENDCHAR
STARTCHAR U5410
ENCODING 21520
SWIDTH 960 0
DWIDTH 16 0
BBX 16 16 0 -2
BITMAP
0060
0060
fc60
cc60
cc60
cc60
cffe
cc60
cc60
cc60
cc60
fc60
0060
0060
1fff
0000
ENDCHAR
STARTCHAR U5411
ENCODING 21521
SWIDTH 960 0
DWIDTH 16 0
BBX 16 16 0 -2
BITMAP
0300
0300
0600
0c00
7ffe
6006
6006
6ff6
6c36
6c36
6c36
6ff6
6006
6006
6006
600e
ENDCHAR
STARTCHAR U541B
ENCODING 21531
SWIDTH 960 0
DWIDTH 16 0
BBX 16 16 0 -2
BITMAP
0000
3ff8
0318
0318
ffff
0318
0318
3ff8
0600
0600
0ffc
1c0c
340c
6c0c
cffc
0000
ENDCHAR
STARTCHAR U541D
ENCODING 21533
SWIDTH 960 0
DWIDTH 16 0
BBX 16 16 0 -2
BITMAP
0180
0180
ffff
0c30
0660
0340
0180
0760
1c38
f00f
1ff8
1818
1818
1818
1ff8
0000
ENDCHAR
STARTCHAR U541F
ENCODING 21535
SWIDTH 960 0
DWIDTH 16 0
BBX 16 16 0 -2
BITMAP
0060
0060
fcd0
ccd0
cd98
cd0c
cefa
cc03
cc00
cdfc
cc0c
fc18
0018
0030
0030
0060
ENDCHAR
STARTCHAR U5420
ENCODING 21536
SWIDTH 960 0
DWIDTH 16 0
BBX 16 16 0 -2
BITMAP
0060
0068
7e6c
666c
6660
67ff
6660
6660
6660
66d0
7ed0
0198
0198
030c
0e06
3803
ENDCHAR
STARTCHAR U5426
ENCODING 21542
SWIDTH 960 0
DWIDTH 16 0
BBX 16 16 0 -2
BITMAP
0000
ffff
00c0
01e0
03b8
0e8c
3986
e183
0180
1ff8
1818
1818
1818
1818
1ff8
0000
ENDCHAR
STARTCHAR U5429
ENCODING 21545
SWIDTH 960 0
DWIDTH 16 0
BBX 16 16 0 -2
BITMAP
00f8
0018
f998
d998
d98c
db0c
dbfe
da6d
dc6c
d86c
d86c
f8cc
00cc
018c
030c
0638
ENDCHAR
ENDFONT
